<svg xmlns="http://www.w3.org/2000/svg" xmlns:xlink="http://www.w3.org/1999/xlink" version="1.1"><metadata>Created by FontForge 20201107 at Thu Mar 27 09:21:51 2025 By www-data Copyright (c) 2018 by Nikola &amp; Zoran Kostic. All rights reserved.</metadata><defs><font id="Monotalic-NarrowLight" horiz-adv-x="480"><font-face x-height="500" ascent="800" bbox="-467 -357 571 1032" cap-height="660" descent="-200" font-family="Monotalic Narrow Light" font-stretch="condensed" font-weight="300" panose-1="0 0 4 6 0 0 0 0 0 0" underline-position="-100" underline-thickness="50" unicode-range="U+0020-25CA" units-per-em="1000"/><glyph d="M410 -210h-317v1000h317v-1000zM168 723v-33h65v-37h-66v-33h166v33h-66v37h66v33h-165zM167 594v-104h166v34h-66v70h-100zM233 524h-33v36h33v-36zM167 463v-33h66v-37h-66v-33h100v70h66v33h-166zM300 403v-66h-133v-34h166v100h-33zM233 281v-56h34v23h33v-47h-100 v80h-33v-113h166v113h-100zM167 108v-113h166v113h-166zM300 28h-100v47h100v-47zM167 -28v-33h70l-70 -47v-33h166v33h-102l70 47h32v33h-166z" glyph-name=".notdef" horiz-adv-x="500"/><glyph glyph-name=".null" horiz-adv-x="0"/><glyph glyph-name="nonmarkingreturn" horiz-adv-x="333"/><glyph glyph-name="space"/><glyph glyph-name="space"/><glyph d="M205 660h70l-14 -455h-42zM190.5 5.5q-18.5 13.5 -18.5 39.5t18 40t50 14t50 -14t18 -40t-18.5 -39.5t-49.5 -13.5t-49.5 13.5z" glyph-name="exclam" unicode="!"/><glyph d="M79 559q-9 68 -9 76q0 15 14.5 24t42.5 9t42.5 -9t14.5 -24t-10 -88q-19 -137 -24 -219h-46q-3 66 -25 231zM305 559q-9 68 -9 76q0 15 14.5 24t42.5 9t42.5 -9t14.5 -24t-10 -88q-19 -137 -24 -219h-46q-3 66 -25 231z" glyph-name="quotedbl" unicode="&quot;"/><glyph d="M367 456l-28 -252h111v-44h-116l-17 -160h-44l17 160h-138l-17 -160h-44l17 160h-78v44h83l28 252h-111v44h116l17 160h44l-17 -160h138l17 160h44l-17 -160h78v-44h-83zM323 456h-138l-28 -252h138z" glyph-name="numbersign" unicode="#"/><glyph d="M388.5 53.5q-43.5 -51.5 -126.5 -59.5v-144h-44v142q-49 2 -89.5 13.5t-59.5 22.5v74q22 -15 61 -28.5t88 -15.5v250l-40 17q-59 25 -94.5 62t-35.5 104q0 72 45 119.5t125 55.5v134h44v-132q42 -1 79.5 -10t55.5 -19v-70q-23 11 -59.5 21.5t-75.5 11.5v-236l18 -8 q82 -34 117 -75t35 -101q0 -77 -43.5 -128.5zM218 384v215q-47 -7 -71.5 -34t-24.5 -72q0 -37 18 -60.5t68 -44.5zM333.5 98q24.5 30 24.5 77q0 41 -19.5 65.5t-76.5 48.5v-228q47 7 71.5 37z" glyph-name="dollar" unicode="$"/><glyph d="M54.5 399q-26.5 41 -26.5 114t26.5 114t77.5 41t77.5 -41.5t26.5 -113.5t-26.5 -113.5t-77.5 -41.5t-77.5 41zM73 0h-51l385 660h51zM172 432.5q12 26.5 12 80.5t-12 80.5t-40 26.5t-40 -26t-12 -81q0 -54 12 -80.5t40 -26.5t40 26.5zM271.5 33.5q-26.5 41.5 -26.5 113.5 q0 71 28.5 113t75.5 42q51 0 77.5 -41.5t26.5 -113.5t-26.5 -113.5t-77.5 -41.5t-77.5 41.5zM389 67.5q12 27.5 12 79.5t-12 79.5t-40 27.5q-25 0 -38.5 -28t-13.5 -79q0 -53 12 -80t40 -27t40 27.5z" glyph-name="percent" unicode="%"/><glyph d="M399 312v-210q0 -26 7.5 -37t23.5 -11q14 0 20 3v-57q-6 -3 -17 -5.5t-22 -2.5q-47 0 -68 34q-43 -34 -113 -34q-62 0 -105 27.5t-64.5 72.5t-21.5 97q0 132 112 170v2q-33 7 -55 39.5t-22 89.5q0 75 44.5 126.5t132.5 51.5q28 0 55 -6.5t42 -14.5v-68q-15 9 -41 16 t-50 7q-53 0 -81 -32t-28 -91q0 -49 25 -78t72 -29l214 -1v-59h-60zM325 114v198h-90q-66 0 -94 -32.5t-28 -84.5q0 -54 30.5 -95.5t89.5 -41.5q33 0 57 9t36 25q-1 7 -1 22z" glyph-name="ampersand" unicode="&amp;"/><glyph d="M192 559q-9 68 -9 76q0 15 14.5 24t42.5 9t42.5 -9t14.5 -24t-10 -88q-19 -137 -24 -219h-46q-3 66 -25 231z" glyph-name="quotesingle" unicode="'"/><glyph d="M169.5 545q41.5 138 132.5 255h73q-103 -117 -146 -254t-43 -276q0 -135 43 -273t146 -257h-73q-91 117 -132.5 255t-41.5 275t41.5 275z" glyph-name="parenleft" unicode="("/><glyph d="M339.5 -5q-41.5 -138 -132.5 -255h-73q103 119 146 257t43 273q0 139 -43 276t-146 254h73q91 -117 132.5 -255t41.5 -275t-41.5 -275z" glyph-name="parenright" unicode=")"/><glyph d="M283 404l101 -183l-48 -26l-96 172l-96 -172l-48 26l101 183l-157 58l19 51l153 -55v202h56v-202l155 55l19 -51z" glyph-name="asterisk" unicode="*"/><glyph d="M425 276h-161v-240h-48v240h-161v48h161v240h48v-240h161v-48z" glyph-name="plus" unicode="+"/><glyph d="M127 -157q69 12 109 55t40 94q0 25 -5 38h-2q-8 -38 -48 -38q-25 0 -39.5 13.5t-14.5 38.5t19 40t50 15q46 0 72 -29t26 -78q0 -46 -24 -90t-71 -76.5t-112 -43.5v61z" glyph-name="comma" unicode=","/><glyph d="M369 324v-48h-258v48h258z" glyph-name="hyphen" unicode="-"/><glyph d="M369 324v-48h-258v48h258z" glyph-name="hyphen" unicode="­"/><glyph d="M190.5 5.5q-18.5 13.5 -18.5 39.5t18 40t50 14t50 -14t18 -40t-18.5 -39.5t-49.5 -13.5t-49.5 13.5z" glyph-name="period" unicode="."/><glyph d="M114 -260h-49l301 1060h49z" glyph-name="slash" unicode="/"/><glyph d="M390.5 586.5q50.5 -81.5 50.5 -256.5t-50.5 -256.5t-150.5 -81.5t-150.5 81.5t-50.5 256.5t50.5 256.5t150.5 81.5t150.5 -81.5zM144 540q-31 -62 -31 -210q0 -78 9 -132l217 334q-15 37 -39.5 53.5t-59.5 16.5q-65 0 -96 -62zM336 120.5q31 62.5 31 209.5q0 87 -11 147 l-220 -338q15 -42 41 -61.5t63 -19.5q65 0 96 62.5z" glyph-name="zero" unicode="0"/><glyph d="M429 66v-66h-378v66h176v497l-149 -123v75l176 145h47v-594h128z" glyph-name="one" unicode="1"/><glyph d="M424 66v-66h-368v66q126 127 186 204t76 122t16 97t-30 84.5t-91 32.5q-78 0 -145 -46v67q27 17 66 29t83 12q96 0 143.5 -53.5t47.5 -133.5q0 -75 -42 -148t-138 -180q-34 -38 -54.5 -54.5t-48.5 -30.5v-2h299z" glyph-name="two" unicode="2"/><glyph d="M287 384q68 0 112.5 -44t44.5 -126q0 -104 -59 -163t-159 -59q-97 0 -180 47v75q36 -25 82.5 -40.5t97.5 -15.5q66 0 105 38.5t39 115.5q0 63 -36.5 97t-102.5 34q-54 0 -92 -14v27l214 238h-297v66h368v-79l-178 -199v-2q19 4 41 4z" glyph-name="three" unicode="3"/><glyph d="M457 171h-85v-171h-74v171h-262v66l236 423h100v-423h85v-66zM298 237v350l-195 -350h195z" glyph-name="four" unicode="4"/><glyph d="M392.5 352.5q48.5 -54.5 48.5 -140.5q0 -59 -24 -109t-73 -80.5t-120 -30.5q-48 0 -96 14t-77 37v76q33 -28 79 -44.5t94 -16.5q74 0 108.5 42.5t34.5 107.5q0 135 -130 135q-39 0 -78 -13.5t-71 -35.5l-30 27l26 339h333v-66h-272l-15 -218q53 31 118 31 q96 0 144.5 -54.5z" glyph-name="five" unicode="5"/><glyph d="M366.5 365q38.5 -25 56.5 -64.5t18 -85.5q0 -105 -51 -164t-136 -59q-102 0 -158.5 86.5t-56.5 262.5q0 147 57 237t182 90q69 0 125 -29v-74q-22 15 -55.5 26t-69.5 11q-88 0 -126.5 -69t-38.5 -187q0 -44 3 -82h3q6 61 45 93.5t106 32.5q58 0 96.5 -25zM338 100.5 q29 42.5 29 108.5q0 52 -27.5 83.5t-82.5 31.5q-52 0 -88 -38t-40 -106q15 -64 46.5 -93t78.5 -29q55 0 84 42.5z" glyph-name="six" unicode="6"/><glyph d="M450 660v-66l-293 -594h-85l303 594h-340v66h415z" glyph-name="seven" unicode="7"/><glyph d="M411.5 271q29.5 -42 29.5 -94q0 -85 -51.5 -135t-149.5 -50t-149.5 50t-51.5 135q0 59 32 104t94 56v1q-105 56 -105 163q0 73 46.5 120t133.5 47t133.5 -46.5t46.5 -121.5q0 -59 -32 -99t-82 -51v-2l18 -8q58 -27 87.5 -69zM150.5 437q16.5 -24 59.5 -44l41 -19 q95 34 95 126q0 48 -27.5 75t-78.5 27t-78.5 -27.5t-27.5 -73.5q0 -40 16.5 -64zM336 89q31 31 31 79q0 41 -19.5 67.5t-74.5 52.5l-48 22q-62 -13 -87 -48t-25 -90q0 -50 31.5 -82t95.5 -32q65 0 96 31z" glyph-name="eight" unicode="8"/><glyph d="M386 589.5q55 -78.5 55 -240.5q0 -178 -60 -267.5t-177 -89.5q-75 0 -144 28v70q73 -32 144 -32q81 0 122 69.5t41 216.5q0 25 -1 37h-2q-7 -62 -45.5 -89.5t-97.5 -27.5q-87 0 -134.5 53.5t-47.5 141.5q0 91 49 150t142 59q101 0 156 -78.5zM315.5 363q35.5 39 39.5 120 q-15 63 -45.5 91t-79.5 28q-59 0 -88 -40.5t-29 -110.5q0 -61 30.5 -94t84.5 -33q52 0 87.5 39z" glyph-name="nine" unicode="9"/><glyph d="M190.5 376.5q-18.5 13.5 -18.5 39.5t18 40t50 14t50 -14t18 -40t-18.5 -39.5t-49.5 -13.5t-49.5 13.5zM190.5 5.5q-18.5 13.5 -18.5 39.5t18 40t50 14t50 -14t18 -40t-18.5 -39.5t-49.5 -13.5t-49.5 13.5z" glyph-name="colon" unicode=":"/><glyph d="M127 -157q69 12 109 55t40 94q0 25 -5 38h-2q-8 -38 -48 -38q-25 0 -39.5 13.5t-14.5 38.5t19 40t50 15q46 0 72 -29t26 -78q0 -46 -24 -90t-71 -76.5t-112 -43.5v61zM190.5 376.5q-18.5 13.5 -18.5 39.5t18 40t50 14t50 -14t18 -40t-18.5 -39.5t-49.5 -13.5t-49.5 13.5z" glyph-name="semicolon" unicode=";"/><glyph d="M408 11l-336 275v28l336 275v-61l-277 -227v-2l277 -227v-61z" glyph-name="less" unicode="&lt;"/><glyph d="M425 424v-48h-370v48h370zM425 224v-48h-370v48h370z" glyph-name="equal" unicode="="/><glyph d="M349 299v2l-277 227v61l336 -275v-28l-336 -275v61z" glyph-name="greater" unicode="&gt;"/><glyph d="M88 646q57 22 118 22q95 0 145.5 -51.5t50.5 -136.5q0 -81 -40.5 -125t-111.5 -44q-21 0 -41 5v-114h-56v157h55q63 0 92.5 26.5t29.5 94.5q0 126 -126 126q-52 0 -116 -25v65zM132.5 5.5q-18.5 13.5 -18.5 39.5t18 40t50 14t50 -14t18 -40t-18.5 -39.5t-49.5 -13.5 t-49.5 13.5z" glyph-name="question" unicode="?"/><glyph d="M372 386v19q0 67 -25 102t-81 35q-72 0 -119.5 -54t-47.5 -215q0 -293 197 -293q61 0 127 30v-60q-25 -12 -58 -20t-69 -8q-122 0 -188.5 91t-66.5 260q0 327 225 327q79 0 125.5 -53.5t46.5 -158.5v-82q0 -97 -34 -142.5t-91 -45.5q-63 0 -94 42.5t-31 107.5 q0 60 27.5 98t79.5 38q26 0 42.5 -4.5t33.5 -13.5h1zM372 356h-58q-60 0 -60 -88q0 -39 13 -65.5t46 -26.5q28 0 43.5 24.5t15.5 89.5v66z" glyph-name="at" unicode="@"/><glyph d="M342 173h-204l-41 -173h-74l157 660h120l157 -660h-74zM328 233l-83 353h-10l-83 -353h176z" glyph-name="A" unicode="A"/><glyph d="M434 202q0 -113 -45.5 -157.5t-142.5 -44.5h-190v660h188q84 0 126.5 -43t42.5 -126q0 -53 -18 -88t-57 -53q96 -32 96 -148zM130 594v-226h104q53 0 79 28.5t26 94.5q0 58 -23.5 80.5t-71.5 22.5h-114zM309.5 76.5q24.5 10.5 37.5 39.5t13 84q0 65 -30.5 88.5 t-95.5 23.5h-104v-246h114q41 0 65.5 10.5z" glyph-name="B" unicode="B"/><glyph d="M434 202q0 -113 -45.5 -157.5t-142.5 -44.5h-190v660h188q84 0 126.5 -43t42.5 -126q0 -53 -18 -88t-57 -53q96 -32 96 -148zM130 594v-226h104q53 0 79 28.5t26 94.5q0 58 -23.5 80.5t-71.5 22.5h-114zM309.5 76.5q24.5 10.5 37.5 39.5t13 84q0 65 -30.5 88.5 t-95.5 23.5h-104v-246h114q41 0 65.5 10.5z" glyph-name="B" unicode=""/><glyph d="M103 583q64 85 185 85q44 0 78 -11t51 -24v-75q-61 44 -129 44q-84 0 -129.5 -67.5t-45.5 -204.5q0 -134 43 -203t134 -69q38 0 75 13t63 31v-73q-18 -13 -55.5 -25t-84.5 -12q-249 0 -249 338q0 168 64 253z" glyph-name="C" unicode="C"/><glyph d="M56 660h176q105 0 157 -78t52 -250q0 -124 -23 -197t-67.5 -104t-111.5 -31h-183v660zM237 66q47 0 75 25.5t41.5 83t13.5 157.5q0 134 -32.5 198t-104.5 64h-100v-528h107z" glyph-name="D" unicode="D"/><glyph d="M434 66v-66h-368v660h354v-66h-280v-224h266v-60h-266v-244h294z" glyph-name="E" unicode="E"/><glyph d="M434 66v-66h-368v660h354v-66h-280v-224h266v-60h-266v-244h294z" glyph-name="E" unicode=""/><glyph d="M140 594v-244h263v-60h-263v-290h-74v660h372v-66h-298z" glyph-name="F" unicode="F"/><glyph d="M430 45q-24 -21 -63.5 -37t-90.5 -16q-124 0 -180.5 90t-56.5 248q0 165 59 251.5t178 86.5q47 0 84 -10.5t59 -24.5v-75q-29 20 -66.5 32t-76.5 12q-86 0 -124.5 -65.5t-38.5 -206.5q0 -136 38 -204t127 -68q42 0 84 21v186h-122v60h190v-280z" glyph-name="G" unicode="G"/><glyph d="M424 660v-660h-74v319h-220v-319h-74v660h74v-279h220v279h74z" glyph-name="H" unicode="H"/><glyph d="M277 594v-528h98v-66h-270v66h98v528h-98v66h270v-66h-98z" glyph-name="I" unicode="I"/><glyph d="M42 320h71v-80q0 -95 30.5 -137.5t89.5 -42.5q60 0 88.5 48.5t28.5 171.5v380h74v-380q0 -111 -22.5 -174t-64 -88.5t-104.5 -25.5q-95 0 -144.5 56.5t-49.5 191.5q0 32 3 80z" glyph-name="J" unicode="J"/><glyph d="M186 299h-56v-299h-74v660h74v-295h53l181 295h83l-199 -319l228 -341h-89z" glyph-name="K" unicode="K"/><glyph d="M434 66v-66h-348v660h74v-594h274z" glyph-name="L" unicode="L"/><glyph d="M40 660h107l89 -309h8l89 309h107v-660h-72v220l7 359h-7l-104 -359h-48l-104 359h-7l7 -359v-220h-72v660z" glyph-name="M" unicode="M"/><glyph d="M424 660v-660h-74l-231 589l11 -589h-74v660h106l199 -507l-11 507h74z" glyph-name="N" unicode="N"/><glyph d="M89.5 73.5q-50.5 81.5 -50.5 256.5t50.5 256.5t150.5 81.5t150.5 -81.5t50.5 -256.5t-50.5 -256.5t-150.5 -81.5t-150.5 81.5zM335 124q32 66 32 206t-32 206t-95 66t-95 -65.5t-32 -206.5t32 -206.5t95 -65.5t95 66z" glyph-name="O" unicode="O"/><glyph d="M395 602.5q46 -57.5 46 -179.5q0 -108 -44.5 -167.5t-131.5 -59.5h-125v-196h-74v660h180q103 0 149 -57.5zM341 302q26 44 26 117q0 67 -12.5 105t-39.5 54t-71 16h-104v-336h124q51 0 77 44z" glyph-name="P" unicode="P"/><glyph d="M368 43l63 -143h-79l-45 103q-31 -11 -67 -11q-100 0 -150.5 81.5t-50.5 256.5t50.5 256.5t150.5 81.5t150.5 -81.5t50.5 -256.5q0 -208 -73 -287zM145 123.5q32 -65.5 95 -65.5t95 66t32 206t-32 206t-95 66t-95 -65.5t-32 -206.5t32 -206.5z" glyph-name="Q" unicode="Q"/><glyph d="M372 0l-116 272h-1h-125v-272h-74v660h181q89 0 136 -50t47 -146q0 -144 -89 -179l121 -285h-80zM240 334q54 0 80 31t26 99q0 67 -26 98.5t-85 31.5h-105v-260h110z" glyph-name="R" unicode="R"/><glyph d="M102 619q54 49 149 49q45 0 86.5 -9t59.5 -20v-70q-24 12 -63 22.5t-81 10.5q-63 0 -97 -28.5t-34 -80.5q0 -37 18 -60.5t68 -44.5l72 -30q82 -34 117 -75t35 -101q0 -84 -51.5 -137t-149.5 -53q-53 0 -97 12t-65 24v74q23 -16 65.5 -30t94.5 -14q63 0 96 31t33 86 q0 42 -20.5 66.5t-79.5 49.5l-80 34q-59 25 -94.5 62t-35.5 104q0 79 54 128z" glyph-name="S" unicode="S"/><glyph d="M102 619q54 49 149 49q45 0 86.5 -9t59.5 -20v-70q-24 12 -63 22.5t-81 10.5q-63 0 -97 -28.5t-34 -80.5q0 -37 18 -60.5t68 -44.5l72 -30q82 -34 117 -75t35 -101q0 -84 -51.5 -137t-149.5 -53q-53 0 -97 12t-65 24v74q23 -16 65.5 -30t94.5 -14q63 0 96 31t33 86 q0 42 -20.5 66.5t-79.5 49.5l-80 34q-59 25 -94.5 62t-35.5 104q0 79 54 128z" glyph-name="S" unicode=""/><glyph d="M452 594h-175v-594h-74v594h-175v66h424v-66z" glyph-name="T" unicode="T"/><glyph d="M56 660h74v-380q0 -121 26.5 -170.5t83.5 -49.5t83.5 49.5t26.5 170.5v380h74v-380q0 -159 -48 -223.5t-136 -64.5t-136 64.5t-48 223.5v380z" glyph-name="U" unicode="U"/><glyph d="M459 660l-156 -660h-126l-156 660h76l139 -586h8l139 586h76z" glyph-name="V" unicode="V"/><glyph d="M78 660l39 -378l6 -205h6l84 333h54l84 -333h6l6 205l39 378h73l-66 -660h-98l-69 269h-4l-69 -269h-98l-66 660h73z" glyph-name="W" unicode="W"/><glyph d="M378 0l-144 274l-135 -274h-81l178 347l-165 313h84l129 -246l124 246h81l-166 -319l179 -341h-84z" glyph-name="X" unicode="X"/><glyph d="M462 660l-185 -420v-240h-74v240l-185 420h83l135 -328h8l135 328h83z" glyph-name="Y" unicode="Y"/><glyph d="M45 39l302 555h-295v66h384v-40l-301 -554h301v-66h-391v39z" glyph-name="Z" unicode="Z"/><glyph d="M218 793v-1046h196v-47h-254v1140h254v-47h-196z" glyph-name="bracketleft" unicode="["/><glyph d="M114 800l301 -1060h-49l-301 1060h49z" glyph-name="backslash" unicode="\"/><glyph d="M320 -300h-254v47h196v1046h-196v47h254v-1140z" glyph-name="bracketright" unicode="]"/><glyph d="M241 589h-2l-128 -289h-51l158 360h43l158 -360h-51z" glyph-name="asciicircum" unicode="^"/><glyph d="M460 -121v-47h-440v47h440z" glyph-name="underscore" unicode="_"/><glyph d="M446 57v-59q-13 -6 -39 -6q-39 0 -59.5 23t-24.5 71h-4q-6 -49 -34 -71.5t-78 -22.5q-70 0 -112 43t-42 118q0 65 42.5 106t115.5 41q51 0 109 -11h2v14q0 77 -27 108t-95 31q-32 0 -69.5 -9t-61.5 -22l-1 69q28 12 66 20t74 8q102 0 145 -49.5t43 -151.5v-200 q0 -30 6.5 -41.5t24.5 -11.5q7 0 19 3zM281.5 84.5q29.5 26.5 40.5 77.5v78h-104q-46 0 -68.5 -22.5t-22.5 -64.5q0 -43 21 -69t63 -26q41 0 70.5 26.5z" glyph-name="a" unicode="a"/><glyph d="M385.5 440.5q41.5 -67.5 41.5 -184.5q0 -84 -21.5 -143.5t-59.5 -90t-87 -30.5q-44 0 -74 22.5t-37 73.5h-4l-16 -88h-47v750h74v-220l-6 -111h2q14 48 43.5 68.5t73.5 20.5q76 0 117.5 -67.5zM326 107q27 49 27 148q0 95 -25.5 141t-73.5 46q-77 0 -99 -92v-180 q23 -112 96 -112q48 0 75 49z" glyph-name="b" unicode="b"/><glyph d="M385.5 440.5q41.5 -67.5 41.5 -184.5q0 -84 -21.5 -143.5t-59.5 -90t-87 -30.5q-44 0 -74 22.5t-37 73.5h-4l-16 -88h-47v750h74v-220l-6 -111h2q14 48 43.5 68.5t73.5 20.5q76 0 117.5 -67.5zM326 107q27 49 27 148q0 95 -25.5 141t-73.5 46q-77 0 -99 -92v-180 q23 -112 96 -112q48 0 75 49z" glyph-name="b" unicode=""/><glyph d="M126.5 440.5q60.5 67.5 161.5 67.5q39 0 68.5 -10t47.5 -23v-75q-26 20 -55.5 31t-58.5 11q-68 0 -109 -46t-41 -146q0 -95 42.5 -143.5t110.5 -48.5q39 0 70.5 13.5t61.5 38.5v-73q-22 -18 -57 -31.5t-79 -13.5q-109 0 -166 71.5t-57 186.5q0 123 60.5 190.5z" glyph-name="c" unicode="c"/><glyph d="M449 57v-57q-18 -8 -37 -8q-34 0 -55 20.5t-29 72.5h-2q-7 -93 -96 -93q-84 0 -130.5 68.5t-46.5 186.5q0 81 23 140t63 90t92 31q45 0 68 -20t28 -65h3l-5 107v220h74v-643q0 -29 6.5 -41t24.5 -12q13 0 19 3zM290.5 83q21.5 25 34.5 73v204q-25 82 -90 82 q-50 0 -79 -51t-29 -143q0 -91 27 -140.5t76 -49.5q39 0 60.5 25z" glyph-name="d" unicode="d"/><glyph d="M380.5 449q46.5 -59 46.5 -182v-49h-299q5 -84 39 -122t107 -38q38 0 72.5 8.5t56.5 18.5v-67q-19 -9 -55 -17.5t-76 -8.5q-114 0 -166.5 66.5t-52.5 191.5q0 128 54 193t143 65q84 0 130.5 -59zM361 278q0 89 -28.5 126.5t-82.5 37.5q-56 0 -87 -35.5t-35 -128.5h233z" glyph-name="e" unicode="e"/><glyph d="M209 434v-4q102 -63 148.5 -173t46.5 -236q0 -105 -39 -162t-106 -57q-45 0 -73.5 24.5t-44 88t-15.5 177.5q0 143 12 308q-51 24 -114 34v66h122q13 140 32 292q34 -2 50.5 -13.5t20 -27t3.5 -39.5q0 -27 -9 -74t-30 -136v-2h235v-66h-239zM206 358q-6 -124 -6 -266 q0 -90 6.5 -139t19 -67t31.5 -18q30 0 51.5 34t21.5 119q0 233 -124 337z" glyph-name="f" unicode="f"/><glyph d="M399 500v-509q0 -110 -49 -159.5t-130 -49.5q-34 0 -69.5 7.5t-59.5 20.5l-1 71q24 -14 58 -23.5t72 -9.5q50 0 77.5 32.5t27.5 110.5v17l6 77h-4q-14 -93 -101 -93q-81 0 -127 69t-46 186q0 81 23 140t63 90t92 31q44 0 70 -22.5t29 -66.5h3l18 81h48zM290.5 79 q22.5 21 34.5 79v201q-21 83 -85 83q-53 0 -83 -50.5t-30 -143.5q0 -95 26 -142.5t73 -47.5q42 0 64.5 21z" glyph-name="g" unicode="g"/><glyph d="M449 57v-58q-16 -7 -39 -7q-85 0 -85 109v239q0 55 -17 78.5t-59 23.5q-75 0 -94 -90v-352h-74v750h74v-230l-7 -111h4q13 99 117 99q68 0 99 -43t31 -114v-244q0 -28 6.5 -40.5t23.5 -12.5q11 0 20 3z" glyph-name="h" unicode="h"/><glyph d="M183 618q-18 14 -18 39q0 26 18 39.5t50 13.5t50 -13.5t18 -39.5q0 -25 -18 -39t-50 -14t-50 14zM446 67v-64q-7 -4 -25.5 -7.5t-37.5 -3.5q-150 0 -179 207q-38 -88 -100 -199h-83q73 118 116.5 200t58.5 140v160h74v-198q0 -135 33.5 -189.5t90.5 -54.5q30 0 52 9z" glyph-name="i" unicode="i"/><glyph d="M205.5 617.5q-18.5 13.5 -18.5 39.5t18 39.5t50 13.5t50 -13.5t18 -39.5q0 -25 -18 -39t-50 -14q-31 0 -49.5 13.5zM444 308q-50 -41 -131 -109v-255q0 -78 -36 -120t-100 -42q-67 0 -104 41.5t-37 111.5q0 71 40 127q15 20 47.5 54t77.5 73q15 14 38 33v212h-112v66h186 v-214q24 20 104 86q7 7 14 12.5t13 10.5v-87zM239 136l-11 -10q-39 -36 -60.5 -58t-34.5 -42q-12 -20 -17.5 -40t-5.5 -47q0 -91 67 -91q33 0 47.5 26.5t14.5 68.5v193z" glyph-name="j" unicode="j"/><glyph d="M182 221h-27v-221h-74v750h74v-467h22l176 217h93l-198 -243l226 -257h-99z" glyph-name="k" unicode="k"/><glyph d="M445 65v-66q-23 -7 -53 -7q-59 0 -110.5 36t-89.5 104l-90 -132h-84q103 145 141 204q-50 133 -50 318q0 238 124 238q57 0 90.5 -49.5t33.5 -145.5q0 -99 -27 -178.5t-95 -188.5q31 -67 74 -103.5t88 -36.5q29 0 48 7zM180 489q0 -115 26 -209q47 80 63 141t16 143 q0 73 -15 101.5t-37 28.5q-23 0 -36 -39.5t-16 -132.5z" glyph-name="l" unicode="l"/><glyph d="M424 477q21 -31 21 -103v-374h-70v361q0 46 -8 66.5t-36 20.5q-52 0 -56 -86v-362h-70v361q0 46 -8 66.5t-36 20.5q-46 0 -56 -63v-385h-70v500h52l14 -60h2q9 68 78 68q38 0 59 -16.5t29 -51.5h1q6 68 81 68q52 0 73 -31z" glyph-name="m" unicode="m"/><glyph d="M449 57v-58q-16 -7 -39 -7q-85 0 -85 109v239q0 55 -17 78.5t-59 23.5q-75 0 -94 -90v-352h-74v500h54l15 -81h2q6 40 35.5 64.5t81.5 24.5q68 0 99 -43t31 -114v-244q0 -28 6.5 -40.5t23.5 -12.5q11 0 20 3z" glyph-name="n" unicode="n"/><glyph d="M102 62.5q-49 70.5 -49 187.5t49 187.5t138 70.5q88 0 137.5 -71t49.5 -187t-49.5 -187t-137.5 -71q-89 0 -138 70.5zM325 110.5q28 52.5 28 139.5t-28 139.5t-85 52.5q-58 0 -85.5 -52.5t-27.5 -139.5t27.5 -139.5t85.5 -52.5q57 0 85 52.5z" glyph-name="o" unicode="o"/><glyph d="M386.5 441q40.5 -67 40.5 -185q0 -84 -21 -143.5t-57.5 -90t-82.5 -30.5q-40 0 -73 19.5t-47 79.5h-4l13 -107v-194h-74v710h58l11 -81h4q8 47 40 68t74 21q78 0 118.5 -67zM353 255q0 94 -25.5 140.5t-73.5 46.5q-79 0 -99 -95v-179q14 -59 37.5 -84.5t58.5 -25.5 q102 0 102 197z" glyph-name="p" unicode="p"/><glyph d="M399 500v-710h-74v210l11 85h-6q-10 -52 -34.5 -72.5t-69.5 -20.5t-84.5 26.5t-64 83.5t-24.5 145q0 81 23 140t63 90t92 31q93 0 100 -89h3l21 81h44zM290 81q21 23 35 77v189q-12 52 -34 73.5t-56 21.5q-50 0 -79 -51t-29 -143q0 -91 27 -140.5t76 -49.5q39 0 60 23z" glyph-name="q" unicode="q"/><glyph d="M468 57v-59q-12 -6 -37 -6q-42 0 -78 23.5t-58.5 72.5t-22.5 121q0 116 64 222v3h-170q-17 -212 -68 -434h-82q33 114 56.5 242.5t28.5 220.5q-16 11 -25 28.5t-9 38.5q0 29 18 47.5t52 18.5q17 0 35 -5q0 -31 -2 -91h241v-66q-25 -33 -45 -92.5t-20 -125.5 q0 -76 29.5 -119t72.5 -43q11 0 20 3z" glyph-name="r" unicode="r"/><glyph d="M102.5 469.5q49.5 38.5 138.5 38.5q79 0 144 -27v-72q-25 15 -64.5 24t-77.5 9q-53 0 -84.5 -20.5t-31.5 -61.5q0 -35 19.5 -50.5t75.5 -24.5l70 -11q69 -11 102 -42t33 -82q0 -77 -51 -117.5t-145 -40.5q-50 0 -92.5 10.5t-64.5 21.5v72q24 -14 65.5 -26t89.5 -12 q59 0 91.5 21t32.5 65q0 21 -6.5 33t-27 21t-62.5 16l-70 11q-69 11 -101.5 44t-32.5 91q0 71 49.5 109.5z" glyph-name="s" unicode="s"/><glyph d="M102.5 469.5q49.5 38.5 138.5 38.5q79 0 144 -27v-72q-25 15 -64.5 24t-77.5 9q-53 0 -84.5 -20.5t-31.5 -61.5q0 -35 19.5 -50.5t75.5 -24.5l70 -11q69 -11 102 -42t33 -82q0 -77 -51 -117.5t-145 -40.5q-50 0 -92.5 10.5t-64.5 21.5v72q24 -14 65.5 -26t89.5 -12 q59 0 91.5 21t32.5 65q0 21 -6.5 33t-27 21t-62.5 16l-70 11q-69 11 -101.5 44t-32.5 91q0 71 49.5 109.5z" glyph-name="s" unicode=""/><glyph d="M217 434v-207q0 -67 13 -104t38 -51t65 -14q39 0 89 14v-63q-12 -5 -40.5 -11t-48.5 -6q-63 0 -104.5 21t-63.5 72.5t-22 141.5v207h-111v66h111v132h74v-132h217v-66h-217z" glyph-name="t" unicode="t"/><glyph d="M450 57v-58q-16 -7 -39 -7q-70 0 -83 87h-3q-3 -41 -28.5 -64t-71.5 -23q-143 0 -143 184v258h-55v66h129v-324q0 -61 18.5 -91.5t57.5 -30.5q37 0 60.5 24.5t32.5 80.5v341h74v-393q0 -30 7.5 -41.5t24.5 -11.5q10 0 19 3z" glyph-name="u" unicode="u"/><glyph d="M449 500l-133 -500h-126l-110 438h-62v62h120l107 -426h16l114 426h74z" glyph-name="v" unicode="v"/><glyph d="M76 500l46 -291l7 -135h6l71 314h68l70 -314h6l8 135l46 291h72l-77 -500h-95l-63 281h-2l-63 -281h-95l-77 500h72z" glyph-name="w" unicode="w"/><glyph d="M76 500l46 -291l7 -135h6l71 314h68l70 -314h6l8 135l46 291h72l-77 -500h-95l-63 281h-2l-63 -281h-95l-77 500h72z" glyph-name="w" unicode=""/><glyph d="M370 0l-134 199l-127 -199h-88l174 259l-162 241h89l124 -184l119 184h82l-161 -243l173 -257h-89z" glyph-name="x" unicode="x"/><glyph d="M459 500l-137 -494q-26 -94 -48.5 -141.5t-49.5 -65t-70 -17.5q-26 0 -43 2.5t-36 8.5l-1 67q36 -12 69 -12q26 0 42.5 13.5t30 45t30.5 93.5h-43l-115 438h-67v62h125l112 -426h8l118 426h75z" glyph-name="y" unicode="y"/><glyph d="M459 500l-137 -494q-26 -94 -48.5 -141.5t-49.5 -65t-70 -17.5q-26 0 -43 2.5t-36 8.5l-1 67q36 -12 69 -12q26 0 42.5 13.5t30 45t30.5 93.5h-43l-115 438h-67v62h125l112 -426h8l118 426h75z" glyph-name="y" unicode=""/><glyph d="M50 52l282 382h-275v66h367v-52l-282 -382h289v-66h-381v52z" glyph-name="z" unicode="z"/><glyph d="M253.5 703q-19.5 -19 -19.5 -51q0 -22 8.5 -45.5t24.5 -55.5q18 -36 27 -62t9 -53q0 -54 -32.5 -97.5t-106.5 -67.5v-2q74 -24 106.5 -67.5t32.5 -97.5q0 -27 -9 -53t-27 -62q-16 -32 -24.5 -55.5t-8.5 -45.5q0 -32 19.5 -51t66.5 -25l107 -15v-51l-119 17q-66 9 -99 44 t-33 79q0 34 10.5 63t29.5 68q16 32 23.5 53.5t7.5 42.5q0 31 -21.5 61.5t-62 50.5t-95.5 20h-26v50h26q55 0 95.5 20t62 50.5t21.5 61.5q0 21 -7.5 42.5t-23.5 53.5q-19 39 -29.5 68t-10.5 63q0 45 33 79.5t99 43.5l119 17v-51l-107 -15q-47 -6 -66.5 -25z" glyph-name="braceleft" unicode="{"/><glyph d="M263 780v-930h-47v930h47z" glyph-name="bar" unicode="|"/><glyph d="M438 295v-50h-26q-55 0 -95.5 -20t-62 -50.5t-21.5 -61.5q0 -21 7.5 -42.5t23.5 -53.5q20 -39 30 -68t10 -63q0 -44 -33 -79t-99 -44l-119 -17v51l107 15q47 6 66.5 25t19.5 51q0 22 -8.5 45.5t-24.5 55.5q-18 36 -27 62t-9 53q0 54 32.5 97.5t106.5 67.5v2 q-74 24 -106.5 67.5t-32.5 97.5q0 27 9 53t27 62q16 32 24.5 55.5t8.5 45.5q0 32 -19.5 51t-66.5 25l-107 15v51l119 -17q66 -9 99 -43.5t33 -79.5q0 -34 -10 -63t-30 -68q-16 -32 -23.5 -53.5t-7.5 -42.5q0 -31 21.5 -61.5t62 -50.5t95.5 -20h26z" glyph-name="braceright" unicode="}"/><glyph d="M274.5 217q-24.5 19 -46.5 56l-19 32q-16 28 -29.5 39t-29.5 11q-26 0 -37.5 -35t-11.5 -118h-47q0 104 25.5 152t71.5 48q30 0 53.5 -18t46.5 -58l20 -34q15 -25 28 -36t30 -11q27 0 39 35.5t12 117.5h47q0 -104 -26 -152t-71 -48q-31 0 -55.5 19z" glyph-name="asciitilde" unicode="~"/><glyph d="M289.5 431.5q18.5 -13.5 18.5 -39.5t-18 -40t-50 -14t-50 14t-18 40t18.5 39.5t49.5 13.5t49.5 -13.5zM275 -223h-70l14 455h42z" glyph-name="exclamdown" unicode="¡"/><glyph d="M422 97q-17 -15 -50 -28.5t-72 -16.5v-122h-42v123q-96 9 -145 79.5t-49 177.5q0 115 52 181.5t142 75.5v133h42v-132q38 -3 69 -15.5t46 -23.5v-75q-22 18 -52.5 31.5t-62.5 15.5v-383q67 4 122 52v-73zM170.5 179.5q32.5 -47.5 87.5 -58.5v379q-55 -9 -87.5 -55 t-32.5 -135q0 -83 32.5 -130.5z" glyph-name="cent" unicode="¢"/><glyph d="M438 66v-66h-396v66h25q54 0 86 45t32 110q0 30 -20 67h-123v44h97q-28 45 -43 80.5t-15 78.5q0 49 22.5 89t65.5 64t103 24q45 0 78.5 -9.5t55.5 -22.5v-71q-22 14 -59 25.5t-72 11.5q-62 0 -91 -31t-29 -80q0 -27 12.5 -55.5t36.5 -70.5q7 -11 19 -33h145v-44h-124 q15 -37 15 -67q0 -65 -28 -104t-73 -49v-2h280z" glyph-name="sterling" unicode="£"/><glyph d="M364 176l78 -112l-56 -35l-64 96q-37 -28 -82 -28t-82 29l-64 -97l-56 35l78 112q-28 53 -28 124t27 122l-77 114l57 35l63 -97q37 29 82 29q46 0 83 -29l64 97l55 -35l-76 -114q26 -52 26 -122q0 -74 -28 -124zM302 197.5q24 34.5 24 102.5t-24 102.5t-62 34.5 t-62 -34.5t-24 -102.5t24 -102.5t62 -34.5t62 34.5z" glyph-name="currency" unicode="¤"/><glyph d="M320 338h118v-44h-137l-24 -54v-54h161v-44h-161v-142h-74v142h-161v44h161v54l-24 54h-137v44h118l-142 322h83l133 -322h12l133 322h83z" glyph-name="yen" unicode="¥"/><glyph d="M216 780h47v-390h-47v390zM216 240h47v-390h-47v390z" glyph-name="brokenbar" unicode="¦"/><glyph d="M397.5 56q15.5 -27 15.5 -64q0 -68 -47.5 -107t-134.5 -39q-39 0 -79 7t-64 17v64q27 -11 67 -18.5t76 -7.5q50 0 79 20.5t29 55.5q0 37 -19 54t-62 17h-48q-76 0 -116.5 34t-40.5 102q0 44 17.5 79t58.5 47v3q-31 14 -46.5 41t-15.5 64q0 68 47.5 107t134.5 39 q37 0 71 -6.5t51 -14.5v-64q-21 10 -54.5 16.5t-67.5 6.5q-50 0 -79 -20.5t-29 -55.5q0 -37 19 -54t62 -17h48q76 0 116.5 -34t40.5 -102q0 -44 -17.5 -79.5t-58.5 -47.5v-2q31 -14 46.5 -41zM252 113q51 0 76 27t25 73q0 91 -94 91h-31q-53 0 -77 -26.5t-24 -73.5 q0 -91 94 -91h31z" glyph-name="section" unicode="§"/><glyph d="M128 54q-48 37 -74.5 101.5t-26.5 144.5q0 79 26.5 143.5t74.5 101.5t112 37q63 0 111 -37t74.5 -101.5t26.5 -143.5q0 -80 -26.5 -144.5t-74.5 -101.5t-111 -37q-64 0 -112 37zM355 134.5q42 64.5 42 165.5q0 100 -42.5 164.5t-114.5 64.5q-73 0 -115.5 -64t-42.5 -165 t42.5 -165.5t115.5 -64.5t115 64.5zM171.5 413.5q31.5 38.5 85.5 38.5q24 0 42.5 -7.5t27.5 -15.5v-58q-31 23 -60 23q-61 0 -61 -94q0 -50 16 -72.5t47 -22.5q14 0 32 7.5t31 17.5v-57q-9 -9 -30.5 -17.5t-42.5 -8.5q-60 0 -89.5 41t-29.5 112q0 75 31.5 113.5z" glyph-name="copyright" unicode="©"/><glyph d="M193 504h58l-142 -204l142 -204h-58l-142 204zM371 504h58l-142 -204l142 -204h-58l-142 204z" glyph-name="guillemotleft" unicode="«"/><glyph d="M425 324v-288h-47v240h-323v48h370z" glyph-name="logicalnot" unicode="¬"/><glyph d="M351 545q48 -37 74.5 -101.5t26.5 -143.5q0 -80 -26.5 -144.5t-74.5 -101.5t-111 -37q-64 0 -112 37t-74.5 101.5t-26.5 144.5q0 79 26.5 143.5t74.5 101.5t112 37q63 0 111 -37zM355 134.5q42 64.5 42 165.5q0 100 -42.5 164.5t-114.5 64.5q-73 0 -115.5 -64t-42.5 -165 t42.5 -165.5t115.5 -64.5t115 64.5zM348 155h-60l-42 106h-41v-106h-55v289h96q44 0 70 -24t26 -69q0 -58 -41 -79zM205 303h34q25 0 36.5 10.5t11.5 35.5q0 23 -11 34t-37 11h-34v-91z" glyph-name="registered" unicode="®"/><glyph d="M155 302q-40 24 -64 68.5t-24 103.5q0 58 24.5 102.5t64 68t84.5 23.5t84.5 -23.5t63.5 -68t24 -102.5q0 -59 -24 -103.5t-63.5 -68.5t-84.5 -24t-85 24zM317.5 374.5q32.5 34.5 32.5 99.5q0 64 -32.5 98t-77.5 34t-78 -34.5t-33 -97.5q0 -65 33 -99.5t78 -34.5 t77.5 34.5z" glyph-name="degree" unicode="°"/><glyph d="M425 404v-48h-161v-160h-48v160h-161v48h161v160h48v-160h161zM55 114h370v-48h-370v48z" glyph-name="plusminus" unicode="±"/><glyph d="M452 616h-62v-676h-44v676h-96v-676h-44v406h-17q-70 0 -106.5 43t-36.5 113q0 68 38 113t105 45h263v-44z" glyph-name="paragraph" unicode="¶"/><glyph d="M190.5 272.5q-18.5 13.5 -18.5 39.5t18 40t50 14t50 -14t18 -40t-18.5 -39.5t-49.5 -13.5t-49.5 13.5z" glyph-name="periodcentered" unicode="·"/><glyph d="M109 96h-58l142 204l-142 204h58l142 -204zM287 96h-58l142 204l-142 204h58l142 -204z" glyph-name="guillemotright" unicode="»"/><glyph d="M357.5 431.5q18.5 -13.5 18.5 -39.5t-18 -40t-50 -14t-50 14t-18 40t18.5 39.5t49.5 13.5t49.5 -13.5zM402 -209q-57 -22 -118 -22q-95 0 -145.5 51.5t-50.5 136.5q0 81 40.5 125t111.5 44q21 0 41 -5v114h56v-157h-55q-63 0 -92.5 -26.5t-29.5 -94.5q0 -126 126 -126 q52 0 116 25v-65z" glyph-name="questiondown" unicode="¿"/><glyph d="M342 173h-204l-41 -173h-74l157 660h120l157 -660h-74zM328 233l-83 353h-10l-83 -353h176zM209 910l90 -170h-59l-120 170h89z" glyph-name="Agrave" unicode="À"/><glyph d="M342 173h-204l-41 -173h-74l157 660h120l157 -660h-74zM328 233l-83 353h-10l-83 -353h176zM240 740h-59l90 170h89z" glyph-name="Aacute" unicode="Á"/><glyph d="M342 173h-204l-41 -173h-74l157 660h120l157 -660h-74zM328 233l-83 353h-10l-83 -353h176zM80 803l160 100l160 -100v-66l-160 100l-160 -100v66z" glyph-name="Acircumflex" unicode="Â"/><glyph d="M342 173h-204l-41 -173h-74l157 660h120l157 -660h-74zM328 233l-83 353h-10l-83 -353h176zM258 755q-20 15 -31 45l-22 57q-8 21 -13.5 28t-17.5 7q-22 0 -31.5 -35.5t-9.5 -122.5h-52q0 117 22.5 163.5t70.5 46.5q54 0 77 -60l22 -58q7 -20 13 -27t19 -7q22 0 32 34.5 t10 113.5h52q0 -110 -23 -155t-71 -45q-27 0 -47 15z" glyph-name="Atilde" unicode="Ã"/><glyph d="M342 173h-204l-41 -173h-74l157 660h120l157 -660h-74zM328 233l-83 353h-10l-83 -353h176zM302.5 789.5q-18.5 13.5 -18.5 39.5t18 40t50 14t50 -14t18 -40t-18.5 -39.5t-49.5 -13.5t-49.5 13.5zM78.5 789.5q-18.5 13.5 -18.5 39.5t18 40t50 14t50 -14t18 -40 t-18.5 -39.5t-49.5 -13.5t-49.5 13.5z" glyph-name="Adieresis" unicode="Ä"/><glyph d="M342 173h-204l-41 -173h-74l149 628q-35 17 -56 51.5t-21 79.5q0 44 20.5 77t53.5 50.5t71 17.5t71 -17.5t53.5 -50.5t20.5 -77q0 -45 -21 -79t-56 -52l149 -628h-74zM173.5 685.5q28.5 -25.5 66.5 -25.5t66.5 25.5t28.5 73.5q0 47 -28.5 72t-66.5 25t-66.5 -25 t-28.5 -72q0 -48 28.5 -73.5zM328 233l-83 353h-10l-83 -353h176z" glyph-name="Aring" unicode="Å"/><glyph d="M465 66v-66h-232v174h-109l-31 -174h-75l118 660h315v-66h-144v-224h130v-60h-130v-244h158zM233 234v360h-35l-64 -360h99z" glyph-name="AE" unicode="Æ"/><glyph d="M280 -8l-13 -47q16 4 32 4q43 0 67 -23t24 -64q0 -54 -41 -81.5t-99 -27.5q-51 0 -93 15v55q47 -15 93 -15q34 0 58 11.5t24 38.5q0 22 -15.5 32.5t-51.5 10.5q-34 0 -62 -7l29 103q-193 35 -193 333q0 168 64 253t185 85q44 0 78 -11t51 -24v-75q-61 44 -129 44 q-84 0 -129.5 -67.5t-45.5 -204.5q0 -134 43 -203t134 -69q38 0 75 13t63 31v-73q-18 -13 -55.5 -25t-84.5 -12h-8z" glyph-name="Ccedilla" unicode="Ç"/><glyph d="M434 66v-66h-368v660h354v-66h-280v-224h266v-60h-266v-244h294zM209 910l90 -170h-59l-120 170h89z" glyph-name="Egrave" unicode="È"/><glyph d="M434 66v-66h-368v660h354v-66h-280v-224h266v-60h-266v-244h294zM240 740h-59l90 170h89z" glyph-name="Eacute" unicode="É"/><glyph d="M434 66v-66h-368v660h354v-66h-280v-224h266v-60h-266v-244h294zM80 803l160 100l160 -100v-66l-160 100l-160 -100v66z" glyph-name="Ecircumflex" unicode="Ê"/><glyph d="M434 66v-66h-368v660h354v-66h-280v-224h266v-60h-266v-244h294zM302.5 789.5q-18.5 13.5 -18.5 39.5t18 40t50 14t50 -14t18 -40t-18.5 -39.5t-49.5 -13.5t-49.5 13.5zM78.5 789.5q-18.5 13.5 -18.5 39.5t18 40t50 14t50 -14t18 -40t-18.5 -39.5t-49.5 -13.5t-49.5 13.5 z" glyph-name="Edieresis" unicode="Ë"/><glyph d="M277 594v-528h98v-66h-270v66h98v528h-98v66h270v-66h-98zM209 910l90 -170h-59l-120 170h89z" glyph-name="Igrave" unicode="Ì"/><glyph d="M277 594v-528h98v-66h-270v66h98v528h-98v66h270v-66h-98zM240 740h-59l90 170h89z" glyph-name="Iacute" unicode="Í"/><glyph d="M277 594v-528h98v-66h-270v66h98v528h-98v66h270v-66h-98zM80 803l160 100l160 -100v-66l-160 100l-160 -100v66z" glyph-name="Icircumflex" unicode="Î"/><glyph d="M277 594v-528h98v-66h-270v66h98v528h-98v66h270v-66h-98zM302.5 789.5q-18.5 13.5 -18.5 39.5t18 40t50 14t50 -14t18 -40t-18.5 -39.5t-49.5 -13.5t-49.5 13.5zM78.5 789.5q-18.5 13.5 -18.5 39.5t18 40t50 14t50 -14t18 -40t-18.5 -39.5t-49.5 -13.5t-49.5 13.5z" glyph-name="Idieresis" unicode="Ï"/><glyph d="M389 582q52 -78 52 -250q0 -124 -23 -197t-67.5 -104t-111.5 -31h-183v308h-36v44h36v308h176q105 0 157 -78zM312 91.5q28 25.5 41.5 83t13.5 157.5q0 134 -32.5 198t-104.5 64h-100v-242h110v-44h-110v-242h107q47 0 75 25.5z" glyph-name="Eth" unicode="Ð"/><glyph d="M424 660v-660h-74l-231 589l11 -589h-74v660h106l199 -507l-11 507h74zM258 755q-20 15 -31 45l-22 57q-8 21 -13.5 28t-17.5 7q-22 0 -31.5 -35.5t-9.5 -122.5h-52q0 117 22.5 163.5t70.5 46.5q54 0 77 -60l22 -58q7 -20 13 -27t19 -7q22 0 32 34.5t10 113.5h52 q0 -110 -23 -155t-71 -45q-27 0 -47 15z" glyph-name="Ntilde" unicode="Ñ"/><glyph d="M89.5 73.5q-50.5 81.5 -50.5 256.5t50.5 256.5t150.5 81.5t150.5 -81.5t50.5 -256.5t-50.5 -256.5t-150.5 -81.5t-150.5 81.5zM335 124q32 66 32 206t-32 206t-95 66t-95 -65.5t-32 -206.5t32 -206.5t95 -65.5t95 66zM209 910l90 -170h-59l-120 170h89z" glyph-name="Ograve" unicode="Ò"/><glyph d="M89.5 73.5q-50.5 81.5 -50.5 256.5t50.5 256.5t150.5 81.5t150.5 -81.5t50.5 -256.5t-50.5 -256.5t-150.5 -81.5t-150.5 81.5zM335 124q32 66 32 206t-32 206t-95 66t-95 -65.5t-32 -206.5t32 -206.5t95 -65.5t95 66zM240 740h-59l90 170h89z" glyph-name="Oacute" unicode="Ó"/><glyph d="M89.5 73.5q-50.5 81.5 -50.5 256.5t50.5 256.5t150.5 81.5t150.5 -81.5t50.5 -256.5t-50.5 -256.5t-150.5 -81.5t-150.5 81.5zM335 124q32 66 32 206t-32 206t-95 66t-95 -65.5t-32 -206.5t32 -206.5t95 -65.5t95 66zM80 803l160 100l160 -100v-66l-160 100l-160 -100v66 z" glyph-name="Ocircumflex" unicode="Ô"/><glyph d="M89.5 73.5q-50.5 81.5 -50.5 256.5t50.5 256.5t150.5 81.5t150.5 -81.5t50.5 -256.5t-50.5 -256.5t-150.5 -81.5t-150.5 81.5zM335 124q32 66 32 206t-32 206t-95 66t-95 -65.5t-32 -206.5t32 -206.5t95 -65.5t95 66zM258 755q-20 15 -31 45l-22 57q-8 21 -13.5 28 t-17.5 7q-22 0 -31.5 -35.5t-9.5 -122.5h-52q0 117 22.5 163.5t70.5 46.5q54 0 77 -60l22 -58q7 -20 13 -27t19 -7q22 0 32 34.5t10 113.5h52q0 -110 -23 -155t-71 -45q-27 0 -47 15z" glyph-name="Otilde" unicode="Õ"/><glyph d="M89.5 73.5q-50.5 81.5 -50.5 256.5t50.5 256.5t150.5 81.5t150.5 -81.5t50.5 -256.5t-50.5 -256.5t-150.5 -81.5t-150.5 81.5zM335 124q32 66 32 206t-32 206t-95 66t-95 -65.5t-32 -206.5t32 -206.5t95 -65.5t95 66zM302.5 789.5q-18.5 13.5 -18.5 39.5t18 40t50 14 t50 -14t18 -40t-18.5 -39.5t-49.5 -13.5t-49.5 13.5zM78.5 789.5q-18.5 13.5 -18.5 39.5t18 40t50 14t50 -14t18 -40t-18.5 -39.5t-49.5 -13.5t-49.5 13.5z" glyph-name="Odieresis" unicode="Ö"/><glyph d="M269 300l127 -176l-38 -27l-118 163l-118 -163l-39 26l128 177l-127 176l38 27l118 -163l117 163l39 -26z" glyph-name="multiply" unicode="×"/><glyph d="M410 547q31 -82 31 -217q0 -175 -50.5 -256.5t-150.5 -81.5q-92 0 -140 66l-43 -67l-37 24l55 87q-36 81 -36 228q0 175 50.5 256.5t150.5 81.5q97 0 146 -75l37 58l37 -24zM126 182l215 340q-31 80 -101 80q-63 0 -95 -65.5t-32 -206.5q0 -92 13 -148zM357 464 l-214 -337q32 -69 97 -69q63 0 95 66t32 206q0 81 -10 134z" glyph-name="Oslash" unicode="Ø"/><glyph d="M56 660h74v-380q0 -121 26.5 -170.5t83.5 -49.5t83.5 49.5t26.5 170.5v380h74v-380q0 -159 -48 -223.5t-136 -64.5t-136 64.5t-48 223.5v380zM209 910l90 -170h-59l-120 170h89z" glyph-name="Ugrave" unicode="Ù"/><glyph d="M56 660h74v-380q0 -121 26.5 -170.5t83.5 -49.5t83.5 49.5t26.5 170.5v380h74v-380q0 -159 -48 -223.5t-136 -64.5t-136 64.5t-48 223.5v380zM240 740h-59l90 170h89z" glyph-name="Uacute" unicode="Ú"/><glyph d="M56 660h74v-380q0 -121 26.5 -170.5t83.5 -49.5t83.5 49.5t26.5 170.5v380h74v-380q0 -159 -48 -223.5t-136 -64.5t-136 64.5t-48 223.5v380zM80 803l160 100l160 -100v-66l-160 100l-160 -100v66z" glyph-name="Ucircumflex" unicode="Û"/><glyph d="M56 660h74v-380q0 -121 26.5 -170.5t83.5 -49.5t83.5 49.5t26.5 170.5v380h74v-380q0 -159 -48 -223.5t-136 -64.5t-136 64.5t-48 223.5v380zM302.5 789.5q-18.5 13.5 -18.5 39.5t18 40t50 14t50 -14t18 -40t-18.5 -39.5t-49.5 -13.5t-49.5 13.5zM78.5 789.5 q-18.5 13.5 -18.5 39.5t18 40t50 14t50 -14t18 -40t-18.5 -39.5t-49.5 -13.5t-49.5 13.5z" glyph-name="Udieresis" unicode="Ü"/><glyph d="M462 660l-185 -420v-240h-74v240l-185 420h83l135 -328h8l135 328h83zM240 740h-59l90 170h89z" glyph-name="Yacute" unicode="Ý"/><glyph d="M395 512.5q46 -57.5 46 -179.5q0 -108 -44.5 -167.5t-131.5 -59.5h-125v-106h-74v660h74v-90h106q103 0 149 -57.5zM341 212q26 44 26 117q0 67 -12.5 105t-39.5 54t-71 16h-104v-336h124q51 0 77 44z" glyph-name="Thorn" unicode="Þ"/><glyph d="M427 190q0 -100 -39.5 -149t-107.5 -49q-36 0 -72 8v62q29 -8 56 -8q45 0 67 31.5t22 104.5q0 60 -27.5 86t-85.5 26h-22v66q58 8 86 55.5t28 117.5q0 89 -24 121t-68 32q-34 0 -52 -16t-25.5 -54t-7.5 -107v-727h-74v731q0 91 17.5 143.5t51.5 74t88 21.5 q168 0 168 -219q0 -61 -19.5 -109t-60.5 -75q101 -27 101 -167z" glyph-name="germandbls" unicode="ß"/><glyph d="M446 57v-59q-13 -6 -39 -6q-39 0 -59.5 23t-24.5 71h-4q-6 -49 -34 -71.5t-78 -22.5q-70 0 -112 43t-42 118q0 65 42.5 106t115.5 41q51 0 109 -11h2v14q0 77 -27 108t-95 31q-32 0 -69.5 -9t-61.5 -22l-1 69q28 12 66 20t74 8q102 0 145 -49.5t43 -151.5v-200 q0 -30 6.5 -41.5t24.5 -11.5q7 0 19 3zM281.5 84.5q29.5 26.5 40.5 77.5v78h-104q-46 0 -68.5 -22.5t-22.5 -64.5q0 -43 21 -69t63 -26q41 0 70.5 26.5zM209 750l90 -170h-59l-120 170h89z" glyph-name="agrave" unicode="à"/><glyph d="M446 57v-59q-13 -6 -39 -6q-39 0 -59.5 23t-24.5 71h-4q-6 -49 -34 -71.5t-78 -22.5q-70 0 -112 43t-42 118q0 65 42.5 106t115.5 41q51 0 109 -11h2v14q0 77 -27 108t-95 31q-32 0 -69.5 -9t-61.5 -22l-1 69q28 12 66 20t74 8q102 0 145 -49.5t43 -151.5v-200 q0 -30 6.5 -41.5t24.5 -11.5q7 0 19 3zM281.5 84.5q29.5 26.5 40.5 77.5v78h-104q-46 0 -68.5 -22.5t-22.5 -64.5q0 -43 21 -69t63 -26q41 0 70.5 26.5zM240 580h-59l90 170h89z" glyph-name="aacute" unicode="á"/><glyph d="M446 57v-59q-13 -6 -39 -6q-39 0 -59.5 23t-24.5 71h-4q-6 -49 -34 -71.5t-78 -22.5q-70 0 -112 43t-42 118q0 65 42.5 106t115.5 41q51 0 109 -11h2v14q0 77 -27 108t-95 31q-32 0 -69.5 -9t-61.5 -22l-1 69q28 12 66 20t74 8q102 0 145 -49.5t43 -151.5v-200 q0 -30 6.5 -41.5t24.5 -11.5q7 0 19 3zM281.5 84.5q29.5 26.5 40.5 77.5v78h-104q-46 0 -68.5 -22.5t-22.5 -64.5q0 -43 21 -69t63 -26q41 0 70.5 26.5zM80 643l160 100l160 -100v-66l-160 100l-160 -100v66z" glyph-name="acircumflex" unicode="â"/><glyph d="M446 57v-59q-13 -6 -39 -6q-39 0 -59.5 23t-24.5 71h-4q-6 -49 -34 -71.5t-78 -22.5q-70 0 -112 43t-42 118q0 65 42.5 106t115.5 41q51 0 109 -11h2v14q0 77 -27 108t-95 31q-32 0 -69.5 -9t-61.5 -22l-1 69q28 12 66 20t74 8q102 0 145 -49.5t43 -151.5v-200 q0 -30 6.5 -41.5t24.5 -11.5q7 0 19 3zM281.5 84.5q29.5 26.5 40.5 77.5v78h-104q-46 0 -68.5 -22.5t-22.5 -64.5q0 -43 21 -69t63 -26q41 0 70.5 26.5zM258 595q-20 15 -31 45l-22 57q-8 21 -13.5 28t-17.5 7q-22 0 -31.5 -35.5t-9.5 -122.5h-52q0 117 22.5 163.5 t70.5 46.5q54 0 77 -60l22 -58q7 -20 13 -27t19 -7q22 0 32 34.5t10 113.5h52q0 -110 -23 -155t-71 -45q-27 0 -47 15z" glyph-name="atilde" unicode="ã"/><glyph d="M446 57v-59q-13 -6 -39 -6q-39 0 -59.5 23t-24.5 71h-4q-6 -49 -34 -71.5t-78 -22.5q-70 0 -112 43t-42 118q0 65 42.5 106t115.5 41q51 0 109 -11h2v14q0 77 -27 108t-95 31q-32 0 -69.5 -9t-61.5 -22l-1 69q28 12 66 20t74 8q102 0 145 -49.5t43 -151.5v-200 q0 -30 6.5 -41.5t24.5 -11.5q7 0 19 3zM281.5 84.5q29.5 26.5 40.5 77.5v78h-104q-46 0 -68.5 -22.5t-22.5 -64.5q0 -43 21 -69t63 -26q41 0 70.5 26.5zM302.5 629.5q-18.5 13.5 -18.5 39.5t18 40t50 14t50 -14t18 -40t-18.5 -39.5t-49.5 -13.5t-49.5 13.5zM78.5 629.5 q-18.5 13.5 -18.5 39.5t18 40t50 14t50 -14t18 -40t-18.5 -39.5t-49.5 -13.5t-49.5 13.5z" glyph-name="adieresis" unicode="ä"/><glyph d="M446 57v-59q-13 -6 -39 -6q-39 0 -59.5 23t-24.5 71h-4q-6 -49 -34 -71.5t-78 -22.5q-70 0 -112 43t-42 118q0 65 42.5 106t115.5 41q51 0 109 -11h2v14q0 77 -27 108t-95 31q-32 0 -69.5 -9t-61.5 -22l-1 69q28 12 66 20t74 8q102 0 145 -49.5t43 -151.5v-200 q0 -30 6.5 -41.5t24.5 -11.5q7 0 19 3zM281.5 84.5q29.5 26.5 40.5 77.5v78h-104q-46 0 -68.5 -22.5t-22.5 -64.5q0 -43 21 -69t63 -26q41 0 70.5 26.5zM169 597.5q-33 17.5 -53.5 51t-20.5 78.5q0 44 20.5 77t53.5 50.5t71 17.5t71 -17.5t53.5 -50.5t20.5 -77t-20 -77.5 t-53.5 -51.5t-71.5 -18t-71 17.5zM306.5 653.5q28.5 25.5 28.5 73.5q0 47 -28.5 72t-66.5 25t-66.5 -25t-28.5 -72q0 -48 28.5 -73.5t66.5 -25.5t66.5 25.5z" glyph-name="aring" unicode="å"/><glyph d="M438 220h-166q3 -95 25.5 -130.5t66.5 -35.5q16 0 28.5 3t28.5 11v-62q-28 -14 -63 -14q-42 0 -70.5 16t-46.5 51h-1q-4 -31 -24.5 -49t-54.5 -18q-56 0 -87.5 43.5t-31.5 121.5q0 67 31 104.5t85 37.5q26 0 48 -9h2v53q0 103 -71 103q-42 0 -80 -20l-1 63q41 19 81 19 q79 0 109 -51q28 51 83 51q58 0 83.5 -53t25.5 -175v-60zM376 278q0 68 -4.5 104t-14.5 50t-28 14q-20 0 -31.5 -14.5t-18 -51t-7.5 -102.5h104zM191 64.5q11 10.5 17 30.5v146h-38q-31 0 -47.5 -19t-16.5 -66q0 -54 13.5 -78t41.5 -24q19 0 30 10.5z" glyph-name="ae" unicode="æ"/><glyph d="M370.5 6.5q-33.5 -13.5 -75.5 -14.5l-13 -47q16 4 32 4q43 0 67 -23t24 -64q0 -54 -41 -81.5t-99 -27.5q-51 0 -93 15v55q47 -15 93 -15q34 0 58 11.5t24 38.5q0 22 -15.5 32.5t-51.5 10.5q-34 0 -62 -7l29 101q-89 14 -135 83t-46 172q0 123 60.5 190.5t161.5 67.5 q39 0 68.5 -10t47.5 -23v-75q-26 20 -55.5 31t-58.5 11q-68 0 -109 -46t-41 -146q0 -95 42.5 -143.5t110.5 -48.5q39 0 70.5 13.5t61.5 38.5v-73q-21 -17 -54.5 -30.5z" glyph-name="ccedilla" unicode="ç"/><glyph d="M380.5 449q46.5 -59 46.5 -182v-49h-299q5 -84 39 -122t107 -38q38 0 72.5 8.5t56.5 18.5v-67q-19 -9 -55 -17.5t-76 -8.5q-114 0 -166.5 66.5t-52.5 191.5q0 128 54 193t143 65q84 0 130.5 -59zM361 278q0 89 -28.5 126.5t-82.5 37.5q-56 0 -87 -35.5t-35 -128.5h233z M209 750l90 -170h-59l-120 170h89z" glyph-name="egrave" unicode="è"/><glyph d="M380.5 449q46.5 -59 46.5 -182v-49h-299q5 -84 39 -122t107 -38q38 0 72.5 8.5t56.5 18.5v-67q-19 -9 -55 -17.5t-76 -8.5q-114 0 -166.5 66.5t-52.5 191.5q0 128 54 193t143 65q84 0 130.5 -59zM361 278q0 89 -28.5 126.5t-82.5 37.5q-56 0 -87 -35.5t-35 -128.5h233z M240 580h-59l90 170h89z" glyph-name="eacute" unicode="é"/><glyph d="M380.5 449q46.5 -59 46.5 -182v-49h-299q5 -84 39 -122t107 -38q38 0 72.5 8.5t56.5 18.5v-67q-19 -9 -55 -17.5t-76 -8.5q-114 0 -166.5 66.5t-52.5 191.5q0 128 54 193t143 65q84 0 130.5 -59zM361 278q0 89 -28.5 126.5t-82.5 37.5q-56 0 -87 -35.5t-35 -128.5h233z M80 643l160 100l160 -100v-66l-160 100l-160 -100v66z" glyph-name="ecircumflex" unicode="ê"/><glyph d="M380.5 449q46.5 -59 46.5 -182v-49h-299q5 -84 39 -122t107 -38q38 0 72.5 8.5t56.5 18.5v-67q-19 -9 -55 -17.5t-76 -8.5q-114 0 -166.5 66.5t-52.5 191.5q0 128 54 193t143 65q84 0 130.5 -59zM361 278q0 89 -28.5 126.5t-82.5 37.5q-56 0 -87 -35.5t-35 -128.5h233z M302.5 629.5q-18.5 13.5 -18.5 39.5t18 40t50 14t50 -14t18 -40t-18.5 -39.5t-49.5 -13.5t-49.5 13.5zM78.5 629.5q-18.5 13.5 -18.5 39.5t18 40t50 14t50 -14t18 -40t-18.5 -39.5t-49.5 -13.5t-49.5 13.5z" glyph-name="edieresis" unicode="ë"/><glyph d="M446 67v-64q-7 -4 -25.5 -7.5t-37.5 -3.5q-150 0 -179 207q-38 -88 -100 -199h-83q73 118 116.5 200t58.5 140v160h74v-198q0 -135 33.5 -189.5t90.5 -54.5q30 0 52 9zM202 750l90 -170h-59l-120 170h89z" glyph-name="igrave" unicode="ì"/><glyph d="M446 67v-64q-7 -4 -25.5 -7.5t-37.5 -3.5q-150 0 -179 207q-38 -88 -100 -199h-83q73 118 116.5 200t58.5 140v160h74v-198q0 -135 33.5 -189.5t90.5 -54.5q30 0 52 9zM233 580h-59l90 170h89z" glyph-name="iacute" unicode="í"/><glyph d="M446 67v-64q-7 -4 -25.5 -7.5t-37.5 -3.5q-150 0 -179 207q-38 -88 -100 -199h-83q73 118 116.5 200t58.5 140v160h74v-198q0 -135 33.5 -189.5t90.5 -54.5q30 0 52 9zM73 643l160 100l160 -100v-66l-160 100l-160 -100v66z" glyph-name="icircumflex" unicode="î"/><glyph d="M446 67v-64q-7 -4 -25.5 -7.5t-37.5 -3.5q-150 0 -179 207q-38 -88 -100 -199h-83q73 118 116.5 200t58.5 140v160h74v-198q0 -135 33.5 -189.5t90.5 -54.5q30 0 52 9zM295.5 629.5q-18.5 13.5 -18.5 39.5t18 40t50 14t50 -14t18 -40t-18.5 -39.5t-49.5 -13.5t-49.5 13.5 zM71.5 629.5q-18.5 13.5 -18.5 39.5t18 40t50 14t50 -14t18 -40t-18.5 -39.5t-49.5 -13.5t-49.5 13.5z" glyph-name="idieresis" unicode="ï"/><glyph d="M427 290q0 -97 -24.5 -164t-67 -100.5t-95.5 -33.5q-55 0 -97.5 31t-66 89t-23.5 138q0 120 50.5 189t136.5 69q70 0 95 -73l4 1q-22 108 -93 187l-167 -81l-19 40l153 74q-56 50 -130 94h118q44 -26 81 -60l121 59l19 -40l-107 -52q112 -131 112 -367zM323.5 116 q29.5 62 29.5 164v23q-5 67 -34 105t-79 38q-113 0 -113 -196t113 -196q54 0 83.5 62z" glyph-name="eth" unicode="ð"/><glyph d="M449 57v-58q-16 -7 -39 -7q-85 0 -85 109v239q0 55 -17 78.5t-59 23.5q-75 0 -94 -90v-352h-74v500h54l15 -81h2q6 40 35.5 64.5t81.5 24.5q68 0 99 -43t31 -114v-244q0 -28 6.5 -40.5t23.5 -12.5q11 0 20 3zM258 595q-20 15 -31 45l-22 57q-8 21 -13.5 28t-17.5 7 q-22 0 -31.5 -35.5t-9.5 -122.5h-52q0 117 22.5 163.5t70.5 46.5q54 0 77 -60l22 -58q7 -20 13 -27t19 -7q22 0 32 34.5t10 113.5h52q0 -110 -23 -155t-71 -45q-27 0 -47 15z" glyph-name="ntilde" unicode="ñ"/><glyph d="M102 62.5q-49 70.5 -49 187.5t49 187.5t138 70.5q88 0 137.5 -71t49.5 -187t-49.5 -187t-137.5 -71q-89 0 -138 70.5zM325 110.5q28 52.5 28 139.5t-28 139.5t-85 52.5q-58 0 -85.5 -52.5t-27.5 -139.5t27.5 -139.5t85.5 -52.5q57 0 85 52.5zM209 750l90 -170h-59 l-120 170h89z" glyph-name="ograve" unicode="ò"/><glyph d="M102 62.5q-49 70.5 -49 187.5t49 187.5t138 70.5q88 0 137.5 -71t49.5 -187t-49.5 -187t-137.5 -71q-89 0 -138 70.5zM325 110.5q28 52.5 28 139.5t-28 139.5t-85 52.5q-58 0 -85.5 -52.5t-27.5 -139.5t27.5 -139.5t85.5 -52.5q57 0 85 52.5zM240 580h-59l90 170h89z" glyph-name="oacute" unicode="ó"/><glyph d="M102 62.5q-49 70.5 -49 187.5t49 187.5t138 70.5q88 0 137.5 -71t49.5 -187t-49.5 -187t-137.5 -71q-89 0 -138 70.5zM325 110.5q28 52.5 28 139.5t-28 139.5t-85 52.5q-58 0 -85.5 -52.5t-27.5 -139.5t27.5 -139.5t85.5 -52.5q57 0 85 52.5zM80 643l160 100l160 -100 v-66l-160 100l-160 -100v66z" glyph-name="ocircumflex" unicode="ô"/><glyph d="M102 62.5q-49 70.5 -49 187.5t49 187.5t138 70.5q88 0 137.5 -71t49.5 -187t-49.5 -187t-137.5 -71q-89 0 -138 70.5zM325 110.5q28 52.5 28 139.5t-28 139.5t-85 52.5q-58 0 -85.5 -52.5t-27.5 -139.5t27.5 -139.5t85.5 -52.5q57 0 85 52.5zM258 595q-20 15 -31 45 l-22 57q-8 21 -13.5 28t-17.5 7q-22 0 -31.5 -35.5t-9.5 -122.5h-52q0 117 22.5 163.5t70.5 46.5q54 0 77 -60l22 -58q7 -20 13 -27t19 -7q22 0 32 34.5t10 113.5h52q0 -110 -23 -155t-71 -45q-27 0 -47 15z" glyph-name="otilde" unicode="õ"/><glyph d="M102 62.5q-49 70.5 -49 187.5t49 187.5t138 70.5q88 0 137.5 -71t49.5 -187t-49.5 -187t-137.5 -71q-89 0 -138 70.5zM325 110.5q28 52.5 28 139.5t-28 139.5t-85 52.5q-58 0 -85.5 -52.5t-27.5 -139.5t27.5 -139.5t85.5 -52.5q57 0 85 52.5zM302.5 629.5 q-18.5 13.5 -18.5 39.5t18 40t50 14t50 -14t18 -40t-18.5 -39.5t-49.5 -13.5t-49.5 13.5zM78.5 629.5q-18.5 13.5 -18.5 39.5t18 40t50 14t50 -14t18 -40t-18.5 -39.5t-49.5 -13.5t-49.5 13.5z" glyph-name="odieresis" unicode="ö"/><glyph d="M190.5 445.5q-18.5 13.5 -18.5 39.5t18 40t50 14t50 -14t18 -40t-18.5 -39.5t-49.5 -13.5t-49.5 13.5zM425 324v-48h-370v48h370zM190.5 96.5q-18.5 13.5 -18.5 39.5t18 40t50 14t50 -14t18 -40t-18.5 -39.5t-49.5 -13.5t-49.5 13.5z" glyph-name="divide" unicode="÷"/><glyph d="M427 250q0 -116 -49.5 -187t-137.5 -71q-65 0 -111 41l-32 -50l-37 24l39 61q-46 69 -46 182q0 117 49 187.5t138 70.5q67 0 112 -42l31 48l37 -24l-38 -59q45 -69 45 -181zM143 137l171 269q-28 36 -74 36q-58 0 -85.5 -52.5t-27.5 -139.5q0 -66 16 -113zM325 110.5 q28 52.5 28 139.5q0 65 -15 111l-171 -268q27 -35 73 -35q57 0 85 52.5z" glyph-name="oslash" unicode="ø"/><glyph d="M450 57v-58q-16 -7 -39 -7q-70 0 -83 87h-3q-3 -41 -28.5 -64t-71.5 -23q-143 0 -143 184v258h-55v66h129v-324q0 -61 18.5 -91.5t57.5 -30.5q37 0 60.5 24.5t32.5 80.5v341h74v-393q0 -30 7.5 -41.5t24.5 -11.5q10 0 19 3zM209 750l90 -170h-59l-120 170h89z" glyph-name="ugrave" unicode="ù"/><glyph d="M450 57v-58q-16 -7 -39 -7q-70 0 -83 87h-3q-3 -41 -28.5 -64t-71.5 -23q-143 0 -143 184v258h-55v66h129v-324q0 -61 18.5 -91.5t57.5 -30.5q37 0 60.5 24.5t32.5 80.5v341h74v-393q0 -30 7.5 -41.5t24.5 -11.5q10 0 19 3zM240 580h-59l90 170h89z" glyph-name="uacute" unicode="ú"/><glyph d="M450 57v-58q-16 -7 -39 -7q-70 0 -83 87h-3q-3 -41 -28.5 -64t-71.5 -23q-143 0 -143 184v258h-55v66h129v-324q0 -61 18.5 -91.5t57.5 -30.5q37 0 60.5 24.5t32.5 80.5v341h74v-393q0 -30 7.5 -41.5t24.5 -11.5q10 0 19 3zM80 643l160 100l160 -100v-66l-160 100 l-160 -100v66z" glyph-name="ucircumflex" unicode="û"/><glyph d="M450 57v-58q-16 -7 -39 -7q-70 0 -83 87h-3q-3 -41 -28.5 -64t-71.5 -23q-143 0 -143 184v258h-55v66h129v-324q0 -61 18.5 -91.5t57.5 -30.5q37 0 60.5 24.5t32.5 80.5v341h74v-393q0 -30 7.5 -41.5t24.5 -11.5q10 0 19 3zM302.5 629.5q-18.5 13.5 -18.5 39.5t18 40 t50 14t50 -14t18 -40t-18.5 -39.5t-49.5 -13.5t-49.5 13.5zM78.5 629.5q-18.5 13.5 -18.5 39.5t18 40t50 14t50 -14t18 -40t-18.5 -39.5t-49.5 -13.5t-49.5 13.5z" glyph-name="udieresis" unicode="ü"/><glyph d="M459 500l-137 -494q-26 -94 -48.5 -141.5t-49.5 -65t-70 -17.5q-26 0 -43 2.5t-36 8.5l-1 67q36 -12 69 -12q26 0 42.5 13.5t30 45t30.5 93.5h-43l-115 438h-67v62h125l112 -426h8l118 426h75zM240 580h-59l90 170h89z" glyph-name="yacute" unicode="ý"/><glyph d="M386.5 441q40.5 -67 40.5 -185q0 -84 -21 -143.5t-57.5 -90t-82.5 -30.5q-40 0 -73 19.5t-47 79.5h-3l12 -118v-183h-74v960h74v-220l-4 -111h3q8 47 40 68t74 21q78 0 118.5 -67zM353 255q0 94 -25.5 140.5t-73.5 46.5q-79 0 -99 -95v-179q14 -59 37.5 -84.5t58.5 -25.5 q102 0 102 197z" glyph-name="thorn" unicode="þ"/><glyph d="M459 500l-137 -494q-26 -94 -48.5 -141.5t-49.5 -65t-70 -17.5q-26 0 -43 2.5t-36 8.5l-1 67q36 -12 69 -12q26 0 42.5 13.5t30 45t30.5 93.5h-43l-115 438h-67v62h125l112 -426h8l118 426h75zM302.5 629.5q-18.5 13.5 -18.5 39.5t18 40t50 14t50 -14t18 -40t-18.5 -39.5 t-49.5 -13.5t-49.5 13.5zM78.5 629.5q-18.5 13.5 -18.5 39.5t18 40t50 14t50 -14t18 -40t-18.5 -39.5t-49.5 -13.5t-49.5 13.5z" glyph-name="ydieresis" unicode="ÿ"/><glyph d="M342 173h-204l-41 -173h-74l157 660h120l157 -660h-74zM328 233l-83 353h-10l-83 -353h176zM392 836v-44h-304v44h304z" glyph-name="Amacron" unicode="Ā"/><glyph d="M446 57v-59q-13 -6 -39 -6q-39 0 -59.5 23t-24.5 71h-4q-6 -49 -34 -71.5t-78 -22.5q-70 0 -112 43t-42 118q0 65 42.5 106t115.5 41q51 0 109 -11h2v14q0 77 -27 108t-95 31q-32 0 -69.5 -9t-61.5 -22l-1 69q28 12 66 20t74 8q102 0 145 -49.5t43 -151.5v-200 q0 -30 6.5 -41.5t24.5 -11.5q7 0 19 3zM281.5 84.5q29.5 26.5 40.5 77.5v78h-104q-46 0 -68.5 -22.5t-22.5 -64.5q0 -43 21 -69t63 -26q41 0 70.5 26.5zM392 676v-44h-304v44h304z" glyph-name="amacron" unicode="ā"/><glyph d="M342 173h-204l-41 -173h-74l157 660h120l157 -660h-74zM328 233l-83 353h-10l-83 -353h176zM335.5 793.5q-38.5 -42.5 -95.5 -42.5t-95.5 42t-38.5 117h56q0 -54 21.5 -79.5t56.5 -25.5t56.5 25.5t21.5 79.5h56q0 -74 -38.5 -116.5z" glyph-name="Abreve" unicode="Ă"/><glyph d="M446 57v-59q-13 -6 -39 -6q-39 0 -59.5 23t-24.5 71h-4q-6 -49 -34 -71.5t-78 -22.5q-70 0 -112 43t-42 118q0 65 42.5 106t115.5 41q51 0 109 -11h2v14q0 77 -27 108t-95 31q-32 0 -69.5 -9t-61.5 -22l-1 69q28 12 66 20t74 8q102 0 145 -49.5t43 -151.5v-200 q0 -30 6.5 -41.5t24.5 -11.5q7 0 19 3zM281.5 84.5q29.5 26.5 40.5 77.5v78h-104q-46 0 -68.5 -22.5t-22.5 -64.5q0 -43 21 -69t63 -26q41 0 70.5 26.5zM335.5 633.5q-38.5 -42.5 -95.5 -42.5t-95.5 42t-38.5 117h56q0 -54 21.5 -79.5t56.5 -25.5t56.5 25.5t21.5 79.5h56 q0 -74 -38.5 -116.5z" glyph-name="abreve" unicode="ă"/><glyph d="M463 -163v-48q-22 -6 -48 -6q-48 0 -76 23t-28 63q0 67 72 131l-41 173h-204l-41 -173h-74l157 660h120l157 -660h-17q-33 -31 -51 -63.5t-18 -61.5q0 -43 53 -43q16 0 39 5zM328 233l-83 353h-10l-83 -353h176z" glyph-name="Aogonek" unicode="Ą"/><glyph d="M354 -125q0 -43 53 -43q16 0 39 5v-48q-22 -6 -48 -6q-48 0 -76 23t-28 63q0 67 72 131h1q-39 20 -44 86h-4q-6 -49 -34 -71.5t-78 -22.5q-70 0 -112 43t-42 118q0 65 42.5 106t115.5 41q51 0 109 -11h2v14q0 77 -27 108t-95 31q-32 0 -69.5 -9t-61.5 -22l-1 69 q28 12 66 20t74 8q102 0 145 -49.5t43 -151.5v-200q0 -30 6.5 -41.5t24.5 -11.5q7 0 19 3v-59q-10 -4 -31 -6q-61 -61 -61 -117zM281.5 84.5q29.5 26.5 40.5 77.5v78h-104q-46 0 -68.5 -22.5t-22.5 -64.5q0 -43 21 -69t63 -26q41 0 70.5 26.5z" glyph-name="aogonek" unicode="ą"/><glyph d="M103 583q64 85 185 85q44 0 78 -11t51 -24v-75q-61 44 -129 44q-84 0 -129.5 -67.5t-45.5 -204.5q0 -134 43 -203t134 -69q38 0 75 13t63 31v-73q-18 -13 -55.5 -25t-84.5 -12q-249 0 -249 338q0 168 64 253zM260 740h-59l90 170h89z" glyph-name="Cacute" unicode="Ć"/><glyph d="M126.5 440.5q60.5 67.5 161.5 67.5q39 0 68.5 -10t47.5 -23v-75q-26 20 -55.5 31t-58.5 11q-68 0 -109 -46t-41 -146q0 -95 42.5 -143.5t110.5 -48.5q39 0 70.5 13.5t61.5 38.5v-73q-22 -18 -57 -31.5t-79 -13.5q-109 0 -166 71.5t-57 186.5q0 123 60.5 190.5zM275 580 h-59l90 170h89z" glyph-name="cacute" unicode="ć"/><glyph d="M103 583q64 85 185 85q44 0 78 -11t51 -24v-75q-61 44 -129 44q-84 0 -129.5 -67.5t-45.5 -204.5q0 -134 43 -203t134 -69q38 0 75 13t63 31v-73q-18 -13 -55.5 -25t-84.5 -12q-249 0 -249 338q0 168 64 253zM210.5 789.5q-18.5 13.5 -18.5 39.5t18 40t50 14t50 -14 t18 -40t-18.5 -39.5t-49.5 -13.5t-49.5 13.5z" glyph-name="Cdotaccent" unicode="Ċ"/><glyph d="M126.5 440.5q60.5 67.5 161.5 67.5q39 0 68.5 -10t47.5 -23v-75q-26 20 -55.5 31t-58.5 11q-68 0 -109 -46t-41 -146q0 -95 42.5 -143.5t110.5 -48.5q39 0 70.5 13.5t61.5 38.5v-73q-22 -18 -57 -31.5t-79 -13.5q-109 0 -166 71.5t-57 186.5q0 123 60.5 190.5z M225.5 629.5q-18.5 13.5 -18.5 39.5t18 40t50 14t50 -14t18 -40t-18.5 -39.5t-49.5 -13.5t-49.5 13.5z" glyph-name="cdotaccent" unicode="ċ"/><glyph d="M103 583q64 85 185 85q44 0 78 -11t51 -24v-75q-61 44 -129 44q-84 0 -129.5 -67.5t-45.5 -204.5q0 -134 43 -203t134 -69q38 0 75 13t63 31v-73q-18 -13 -55.5 -25t-84.5 -12q-249 0 -249 338q0 168 64 253zM388 910l-90 -170h-76l-90 170h70l58 -126l58 126h70z" glyph-name="Ccaron" unicode="Č"/><glyph d="M126.5 440.5q60.5 67.5 161.5 67.5q39 0 68.5 -10t47.5 -23v-75q-26 20 -55.5 31t-58.5 11q-68 0 -109 -46t-41 -146q0 -95 42.5 -143.5t110.5 -48.5q39 0 70.5 13.5t61.5 38.5v-73q-22 -18 -57 -31.5t-79 -13.5q-109 0 -166 71.5t-57 186.5q0 123 60.5 190.5zM403 750 l-90 -170h-76l-90 170h70l58 -126l58 126h70z" glyph-name="ccaron" unicode="č"/><glyph d="M56 660h176q105 0 157 -78t52 -250q0 -124 -23 -197t-67.5 -104t-111.5 -31h-183v660zM237 66q47 0 75 25.5t41.5 83t13.5 157.5q0 134 -32.5 198t-104.5 64h-100v-528h107zM341 910l-90 -170h-76l-90 170h70l58 -126l58 126h70z" glyph-name="Dcaron" unicode="Ď"/><glyph d="M556 820.5q15 -27.5 15 -79.5q0 -71 -32.5 -132t-87.5 -78v61q39 16 56.5 57t17.5 92q0 29 -2 38h-2q-2 -19 -9.5 -28.5t-22.5 -9.5q-16 0 -26.5 14t-10.5 38q0 25 14.5 40t38.5 15q36 0 51 -27.5zM405.5 66q6.5 -12 24.5 -12q13 0 19 3v-57q-18 -8 -37 -8 q-34 0 -55 20.5t-29 72.5h-2q-7 -93 -96 -93q-84 0 -130.5 68.5t-46.5 186.5q0 81 23 140t63 90t92 31q45 0 68 -20t28 -65h3l-5 107v220h74v-643q0 -29 6.5 -41zM290.5 83q21.5 25 34.5 73v204q-25 82 -90 82q-50 0 -79 -51t-29 -143q0 -91 27 -140.5t76 -49.5 q39 0 60.5 25z" glyph-name="dcaron" unicode="ď"/><glyph d="M389 582q52 -78 52 -250q0 -124 -23 -197t-67.5 -104t-111.5 -31h-183v308h-36v44h36v308h176q105 0 157 -78zM312 91.5q28 25.5 41.5 83t13.5 157.5q0 134 -32.5 198t-104.5 64h-100v-242h110v-44h-110v-242h107q47 0 75 25.5z" glyph-name="Dcroat" unicode="Đ"/><glyph d="M399 582v-475q0 -29 6.5 -41t24.5 -12q13 0 19 3v-57q-18 -8 -37 -8q-34 0 -55 20.5t-29 72.5h-2q-7 -93 -96 -93q-84 0 -130.5 68.5t-46.5 186.5q0 81 23 140t63 90t92 31q45 0 68 -20t28 -65h3l-5 107v52h-127v44h127v124h74v-124h73v-44h-73zM290.5 83 q21.5 25 34.5 73v204q-25 82 -90 82q-50 0 -79 -51t-29 -143q0 -91 27 -140.5t76 -49.5q39 0 60.5 25z" glyph-name="dcroat" unicode="đ"/><glyph d="M434 66v-66h-368v660h354v-66h-280v-224h266v-60h-266v-244h294zM392 836v-44h-304v44h304z" glyph-name="Emacron" unicode="Ē"/><glyph d="M380.5 449q46.5 -59 46.5 -182v-49h-299q5 -84 39 -122t107 -38q38 0 72.5 8.5t56.5 18.5v-67q-19 -9 -55 -17.5t-76 -8.5q-114 0 -166.5 66.5t-52.5 191.5q0 128 54 193t143 65q84 0 130.5 -59zM361 278q0 89 -28.5 126.5t-82.5 37.5q-56 0 -87 -35.5t-35 -128.5h233z M392 676v-44h-304v44h304z" glyph-name="emacron" unicode="ē"/><glyph d="M434 66v-66h-368v660h354v-66h-280v-224h266v-60h-266v-244h294zM190.5 789.5q-18.5 13.5 -18.5 39.5t18 40t50 14t50 -14t18 -40t-18.5 -39.5t-49.5 -13.5t-49.5 13.5z" glyph-name="Edotaccent" unicode="Ė"/><glyph d="M380.5 449q46.5 -59 46.5 -182v-49h-299q5 -84 39 -122t107 -38q38 0 72.5 8.5t56.5 18.5v-67q-19 -9 -55 -17.5t-76 -8.5q-114 0 -166.5 66.5t-52.5 191.5q0 128 54 193t143 65q84 0 130.5 -59zM361 278q0 89 -28.5 126.5t-82.5 37.5q-56 0 -87 -35.5t-35 -128.5h233z M190.5 629.5q-18.5 13.5 -18.5 39.5t18 40t50 14t50 -14t18 -40t-18.5 -39.5t-49.5 -13.5t-49.5 13.5z" glyph-name="edotaccent" unicode="ė"/><glyph d="M360 -63.5q-18 -32.5 -18 -61.5q0 -43 53 -43q16 0 39 5v-48q-22 -6 -48 -6q-48 0 -76 23t-28 63q0 67 72 131h-288v660h354v-66h-280v-224h266v-60h-266v-244h294v-66h-23q-33 -31 -51 -63.5z" glyph-name="Eogonek" unicode="Ę"/><glyph d="M380.5 449q46.5 -59 46.5 -182v-49h-299q5 -84 39 -122t107 -38q38 0 72.5 8.5t56.5 18.5v-67l-19 -18q-33 -31 -51 -63.5t-18 -61.5q0 -43 53 -43q16 0 39 5v-48q-23 -6 -48 -6q-48 0 -76 23t-28 63q0 65 67 127q-20 -4 -50 -4q-114 0 -166.5 66.5t-52.5 191.5 q0 128 54 193t143 65q84 0 130.5 -59zM361 278q0 89 -28.5 126.5t-82.5 37.5q-56 0 -87 -35.5t-35 -128.5h233z" glyph-name="eogonek" unicode="ę"/><glyph d="M434 66v-66h-368v660h354v-66h-280v-224h266v-60h-266v-244h294zM368 910l-90 -170h-76l-90 170h70l58 -126l58 126h70z" glyph-name="Ecaron" unicode="Ě"/><glyph d="M380.5 449q46.5 -59 46.5 -182v-49h-299q5 -84 39 -122t107 -38q38 0 72.5 8.5t56.5 18.5v-67q-19 -9 -55 -17.5t-76 -8.5q-114 0 -166.5 66.5t-52.5 191.5q0 128 54 193t143 65q84 0 130.5 -59zM361 278q0 89 -28.5 126.5t-82.5 37.5q-56 0 -87 -35.5t-35 -128.5h233z M368 750l-90 -170h-76l-90 170h70l58 -126l58 126h70z" glyph-name="ecaron" unicode="ě"/><glyph d="M430 45q-24 -21 -63.5 -37t-90.5 -16q-124 0 -180.5 90t-56.5 248q0 165 59 251.5t178 86.5q47 0 84 -10.5t59 -24.5v-75q-29 20 -66.5 32t-76.5 12q-86 0 -124.5 -65.5t-38.5 -206.5q0 -136 38 -204t127 -68q42 0 84 21v186h-122v60h190v-280zM368.5 793.5 q-38.5 -42.5 -95.5 -42.5t-95.5 42t-38.5 117h56q0 -54 21.5 -79.5t56.5 -25.5t56.5 25.5t21.5 79.5h56q0 -74 -38.5 -116.5z" glyph-name="Gbreve" unicode="Ğ"/><glyph d="M399 500v-509q0 -110 -49 -159.5t-130 -49.5q-34 0 -69.5 7.5t-59.5 20.5l-1 71q24 -14 58 -23.5t72 -9.5q50 0 77.5 32.5t27.5 110.5v17l6 77h-4q-14 -93 -101 -93q-81 0 -127 69t-46 186q0 81 23 140t63 90t92 31q44 0 70 -22.5t29 -66.5h3l18 81h48zM290.5 79 q22.5 21 34.5 79v201q-21 83 -85 83q-53 0 -83 -50.5t-30 -143.5q0 -95 26 -142.5t73 -47.5q42 0 64.5 21zM335.5 633.5q-38.5 -42.5 -95.5 -42.5t-95.5 42t-38.5 117h56q0 -54 21.5 -79.5t56.5 -25.5t56.5 25.5t21.5 79.5h56q0 -74 -38.5 -116.5z" glyph-name="gbreve" unicode="ğ"/><glyph d="M430 45q-24 -21 -63.5 -37t-90.5 -16q-124 0 -180.5 90t-56.5 248q0 165 59 251.5t178 86.5q47 0 84 -10.5t59 -24.5v-75q-29 20 -66.5 32t-76.5 12q-86 0 -124.5 -65.5t-38.5 -206.5q0 -136 38 -204t127 -68q42 0 84 21v186h-122v60h190v-280zM223.5 789.5 q-18.5 13.5 -18.5 39.5t18 40t50 14t50 -14t18 -40t-18.5 -39.5t-49.5 -13.5t-49.5 13.5z" glyph-name="Gdotaccent" unicode="Ġ"/><glyph d="M399 500v-509q0 -110 -49 -159.5t-130 -49.5q-34 0 -69.5 7.5t-59.5 20.5l-1 71q24 -14 58 -23.5t72 -9.5q50 0 77.5 32.5t27.5 110.5v17l6 77h-4q-14 -93 -101 -93q-81 0 -127 69t-46 186q0 81 23 140t63 90t92 31q44 0 70 -22.5t29 -66.5h3l18 81h48zM290.5 79 q22.5 21 34.5 79v201q-21 83 -85 83q-53 0 -83 -50.5t-30 -143.5q0 -95 26 -142.5t73 -47.5q42 0 64.5 21zM190.5 629.5q-18.5 13.5 -18.5 39.5t18 40t50 14t50 -14t18 -40t-18.5 -39.5t-49.5 -13.5t-49.5 13.5z" glyph-name="gdotaccent" unicode="ġ"/><glyph d="M430 45q-24 -21 -63.5 -37t-90.5 -16q-124 0 -180.5 90t-56.5 248q0 165 59 251.5t178 86.5q47 0 84 -10.5t59 -24.5v-75q-29 20 -66.5 32t-76.5 12q-86 0 -124.5 -65.5t-38.5 -206.5q0 -136 38 -204t127 -68q42 0 84 21v186h-122v60h190v-280zM160 -296q69 12 109 55 t40 94q0 25 -5 38h-2q-8 -38 -48 -38q-25 0 -39.5 13.5t-14.5 38.5t19 40t50 15q46 0 72 -29t26 -78q0 -46 -24 -90t-71 -76.5t-112 -43.5v61z" glyph-name="uni0122" unicode="Ģ"/><glyph d="M399 500v-509q0 -110 -49 -159.5t-130 -49.5q-34 0 -69.5 7.5t-59.5 20.5l-1 71q24 -14 58 -23.5t72 -9.5q50 0 77.5 32.5t27.5 110.5v17l6 77h-4q-14 -93 -101 -93q-81 0 -127 69t-46 186q0 81 23 140t63 90t92 31q44 0 70 -22.5t29 -66.5h3l18 81h48zM290.5 79 q22.5 21 34.5 79v201q-21 83 -85 83q-53 0 -83 -50.5t-30 -143.5q0 -95 26 -142.5t73 -47.5q42 0 64.5 21zM353 835q-69 -12 -109 -55t-40 -94q0 -25 5 -38h2q8 38 48 38q25 0 39.5 -13.5t14.5 -38.5t-19 -40t-50 -15q-46 0 -72 29t-26 78q0 46 24 90t71 76.5t112 43.5v-61z" glyph-name="uni0123" unicode="ģ"/><glyph d="M467 486h-43v-486h-74v319h-220v-319h-74v486h-43v44h43v130h74v-130h220v130h74v-130h43v-44zM350 486h-220v-105h220v105z" glyph-name="Hbar" unicode="Ħ"/><glyph d="M449 57v-58q-16 -7 -39 -7q-85 0 -85 109v239q0 55 -17 78.5t-59 23.5q-75 0 -94 -90v-352h-74v582h-73v44h73v124h74v-124h127v-44h-127v-62l-7 -111h4q13 99 117 99q68 0 99 -43t31 -114v-244q0 -28 6.5 -40.5t23.5 -12.5q11 0 20 3z" glyph-name="hbar" unicode="ħ"/><glyph d="M277 594v-528h98v-66h-270v66h98v528h-98v66h270v-66h-98zM392 836v-44h-304v44h304z" glyph-name="Imacron" unicode="Ī"/><glyph d="M446 67v-64q-7 -4 -25.5 -7.5t-37.5 -3.5q-150 0 -179 207q-38 -88 -100 -199h-83q73 118 116.5 200t58.5 140v160h74v-198q0 -135 33.5 -189.5t90.5 -54.5q30 0 52 9zM385 676v-44h-304v44h304z" glyph-name="imacron" unicode="ī"/><glyph d="M277 594v-528h98v-66h-92q-33 -31 -51 -63.5t-18 -61.5q0 -43 53 -43q16 0 39 5v-48q-22 -6 -48 -6q-48 0 -76 23t-28 63q0 67 72 131h-121v66h98v528h-98v66h270v-66h-98z" glyph-name="Iogonek" unicode="Į"/><glyph d="M183 618q-18 14 -18 39q0 26 18 39.5t50 13.5t50 -13.5t18 -39.5q0 -25 -18 -39t-50 -14t-50 14zM370.5 -66q-16.5 -31 -16.5 -59q0 -43 53 -43q16 0 39 5v-48q-22 -6 -48 -6q-48 0 -76 23t-28 63q0 64 65 124q-127 16 -155 206q-38 -88 -100 -199h-83q73 118 116.5 200 t58.5 140v160h74v-198q0 -135 33.5 -189.5t90.5 -54.5q30 0 52 9v-64q-6 -3 -28 -8q-31 -30 -47.5 -61z" glyph-name="iogonek" unicode="į"/><glyph d="M277 594v-528h98v-66h-270v66h98v528h-98v66h270v-66h-98zM190.5 789.5q-18.5 13.5 -18.5 39.5t18 40t50 14t50 -14t18 -40t-18.5 -39.5t-49.5 -13.5t-49.5 13.5z" glyph-name="Idotaccent" unicode="İ"/><glyph d="M446 67v-64q-7 -4 -25.5 -7.5t-37.5 -3.5q-150 0 -179 207q-38 -88 -100 -199h-83q73 118 116.5 200t58.5 140v160h74v-198q0 -135 33.5 -189.5t90.5 -54.5q30 0 52 9z" glyph-name="dotlessi" unicode="ı"/><glyph d="M186 299h-56v-299h-74v660h74v-295h53l181 295h83l-199 -319l228 -341h-89zM127 -296q69 12 109 55t40 94q0 25 -5 38h-2q-8 -38 -48 -38q-25 0 -39.5 13.5t-14.5 38.5t19 40t50 15q46 0 72 -29t26 -78q0 -46 -24 -90t-71 -76.5t-112 -43.5v61z" glyph-name="uni0136" unicode="Ķ"/><glyph d="M182 221h-27v-221h-74v750h74v-467h22l176 217h93l-198 -243l226 -257h-99zM127 -296q69 12 109 55t40 94q0 25 -5 38h-2q-8 -38 -48 -38q-25 0 -39.5 13.5t-14.5 38.5t19 40t50 15q46 0 72 -29t26 -78q0 -46 -24 -90t-71 -76.5t-112 -43.5v61z" glyph-name="uni0137" unicode="ķ"/><glyph d="M434 66v-66h-348v660h74v-594h274zM141 740h-59l90 170h89z" glyph-name="Lacute" unicode="Ĺ"/><glyph d="M445 65v-66q-23 -7 -53 -7q-59 0 -110.5 36t-89.5 104l-90 -132h-84q103 145 141 204q-50 133 -50 318q0 238 124 238q57 0 90.5 -49.5t33.5 -145.5q0 -99 -27 -178.5t-95 -188.5q31 -67 74 -103.5t88 -36.5q29 0 48 7zM180 489q0 -115 26 -209q47 80 63 141t16 143 q0 73 -15 101.5t-37 28.5q-23 0 -36 -39.5t-16 -132.5zM233 840h-59l90 170h89z" glyph-name="lacute" unicode="ĺ"/><glyph d="M434 66v-66h-348v660h74v-594h274zM127 -296q69 12 109 55t40 94q0 25 -5 38h-2q-8 -38 -48 -38q-25 0 -39.5 13.5t-14.5 38.5t19 40t50 15q46 0 72 -29t26 -78q0 -46 -24 -90t-71 -76.5t-112 -43.5v61z" glyph-name="uni013B" unicode="Ļ"/><glyph d="M445 65v-66q-23 -7 -53 -7q-59 0 -110.5 36t-89.5 104l-90 -132h-84q103 145 141 204q-50 133 -50 318q0 238 124 238q57 0 90.5 -49.5t33.5 -145.5q0 -99 -27 -178.5t-95 -188.5q31 -67 74 -103.5t88 -36.5q29 0 48 7zM180 489q0 -115 26 -209q47 80 63 141t16 143 q0 73 -15 101.5t-37 28.5q-23 0 -36 -39.5t-16 -132.5zM127 -296q69 12 109 55t40 94q0 25 -5 38h-2q-8 -38 -48 -38q-25 0 -39.5 13.5t-14.5 38.5t19 40t50 15q46 0 72 -29t26 -78q0 -46 -24 -90t-71 -76.5t-112 -43.5v61z" glyph-name="uni013C" unicode="ļ"/><glyph d="M434 66v-66h-348v660h74v-594h274zM269 910l-90 -170h-76l-90 170h70l58 -126l58 126h70z" glyph-name="Lcaron" unicode="Ľ"/><glyph d="M445 65v-66q-23 -7 -53 -7q-59 0 -110.5 36t-89.5 104l-90 -132h-84q103 145 141 204q-50 133 -50 318q0 238 124 238q57 0 90.5 -49.5t33.5 -145.5q0 -99 -27 -178.5t-95 -188.5q31 -67 74 -103.5t88 -36.5q29 0 48 7zM180 489q0 -115 26 -209q47 80 63 141t16 143 q0 73 -15 101.5t-37 28.5q-23 0 -36 -39.5t-16 -132.5zM361 1010l-90 -170h-76l-90 170h70l58 -126l58 126h70z" glyph-name="lcaron" unicode="ľ"/><glyph d="M434 66v-66h-348v271l-59 -27l-18 41l77 35v340h74v-306l133 61l18 -40l-151 -70v-239h274z" glyph-name="Lslash" unicode="Ł"/><glyph d="M445 65v-66q-23 -7 -53 -7q-59 0 -110.5 36t-89.5 104l-90 -132h-84q85 120 127 183l-111 -11l-3 39l121 11q-43 131 -43 300q0 238 124 238q57 0 90.5 -49.5t33.5 -145.5q0 -91 -23 -165t-79 -168l129 12l3 -38l-149 -14q31 -65 73 -99.5t86 -34.5q29 0 48 7zM180 489 q0 -115 26 -209q47 80 63 141t16 143q0 73 -15 101.5t-37 28.5q-23 0 -36 -39.5t-16 -132.5z" glyph-name="lslash" unicode="ł"/><glyph d="M424 660v-660h-74l-231 589l11 -589h-74v660h106l199 -507l-11 507h74zM240 740h-59l90 170h89z" glyph-name="Nacute" unicode="Ń"/><glyph d="M449 57v-58q-16 -7 -39 -7q-85 0 -85 109v239q0 55 -17 78.5t-59 23.5q-75 0 -94 -90v-352h-74v500h54l15 -81h2q6 40 35.5 64.5t81.5 24.5q68 0 99 -43t31 -114v-244q0 -28 6.5 -40.5t23.5 -12.5q11 0 20 3zM240 580h-59l90 170h89z" glyph-name="nacute" unicode="ń"/><glyph d="M424 660v-660h-74l-231 589l11 -589h-74v660h106l199 -507l-11 507h74zM127 -296q69 12 109 55t40 94q0 25 -5 38h-2q-8 -38 -48 -38q-25 0 -39.5 13.5t-14.5 38.5t19 40t50 15q46 0 72 -29t26 -78q0 -46 -24 -90t-71 -76.5t-112 -43.5v61z" glyph-name="uni0145" unicode="Ņ"/><glyph d="M449 57v-58q-16 -7 -39 -7q-85 0 -85 109v239q0 55 -17 78.5t-59 23.5q-75 0 -94 -90v-352h-74v500h54l15 -81h2q6 40 35.5 64.5t81.5 24.5q68 0 99 -43t31 -114v-244q0 -28 6.5 -40.5t23.5 -12.5q11 0 20 3zM127 -296q69 12 109 55t40 94q0 25 -5 38h-2q-8 -38 -48 -38 q-25 0 -39.5 13.5t-14.5 38.5t19 40t50 15q46 0 72 -29t26 -78q0 -46 -24 -90t-71 -76.5t-112 -43.5v61z" glyph-name="uni0146" unicode="ņ"/><glyph d="M424 660v-660h-74l-231 589l11 -589h-74v660h106l199 -507l-11 507h74zM368 910l-90 -170h-76l-90 170h70l58 -126l58 126h70z" glyph-name="Ncaron" unicode="Ň"/><glyph d="M449 57v-58q-16 -7 -39 -7q-85 0 -85 109v239q0 55 -17 78.5t-59 23.5q-75 0 -94 -90v-352h-74v500h54l15 -81h2q6 40 35.5 64.5t81.5 24.5q68 0 99 -43t31 -114v-244q0 -28 6.5 -40.5t23.5 -12.5q11 0 20 3zM368 750l-90 -170h-76l-90 170h70l58 -126l58 126h70z" glyph-name="ncaron" unicode="ň"/><glyph d="M424 660v-718q0 -72 -33.5 -116t-99.5 -44q-38 0 -60 8v61q21 -7 53 -7q34 0 50 22.5t16 69.5v64l-231 589l11 -589h-74v660h106l199 -507l-11 507h74z" glyph-name="Eng" unicode="Ŋ"/><glyph d="M368 465q31 -43 31 -114v-410q0 -72 -35 -115.5t-100 -43.5q-17 0 -33 3t-25 7v59q21 -7 45 -7q74 0 74 92v404q0 55 -17 78.5t-59 23.5q-75 0 -94 -90v-352h-74v500h54l15 -81h2q6 40 35.5 64.5t81.5 24.5q68 0 99 -43z" glyph-name="eng" unicode="ŋ"/><glyph d="M89.5 73.5q-50.5 81.5 -50.5 256.5t50.5 256.5t150.5 81.5t150.5 -81.5t50.5 -256.5t-50.5 -256.5t-150.5 -81.5t-150.5 81.5zM335 124q32 66 32 206t-32 206t-95 66t-95 -65.5t-32 -206.5t32 -206.5t95 -65.5t95 66zM392 836v-44h-304v44h304z" glyph-name="Omacron" unicode="Ō"/><glyph d="M102 62.5q-49 70.5 -49 187.5t49 187.5t138 70.5q88 0 137.5 -71t49.5 -187t-49.5 -187t-137.5 -71q-89 0 -138 70.5zM325 110.5q28 52.5 28 139.5t-28 139.5t-85 52.5q-58 0 -85.5 -52.5t-27.5 -139.5t27.5 -139.5t85.5 -52.5q57 0 85 52.5zM392 676v-44h-304v44h304z" glyph-name="omacron" unicode="ō"/><glyph d="M89.5 73.5q-50.5 81.5 -50.5 256.5t50.5 256.5t150.5 81.5t150.5 -81.5t50.5 -256.5t-50.5 -256.5t-150.5 -81.5t-150.5 81.5zM335 124q32 66 32 206t-32 206t-95 66t-95 -65.5t-32 -206.5t32 -206.5t95 -65.5t95 66zM148 740h-55l90 170h85zM327 740h-55l90 170h85z" glyph-name="Ohungarumlaut" unicode="Ő"/><glyph d="M102 62.5q-49 70.5 -49 187.5t49 187.5t138 70.5q88 0 137.5 -71t49.5 -187t-49.5 -187t-137.5 -71q-89 0 -138 70.5zM325 110.5q28 52.5 28 139.5t-28 139.5t-85 52.5q-58 0 -85.5 -52.5t-27.5 -139.5t27.5 -139.5t85.5 -52.5q57 0 85 52.5zM148 580h-55l90 170h85z M327 580h-55l90 170h85z" glyph-name="ohungarumlaut" unicode="ő"/><glyph d="M465 66v-66h-225q-106 0 -160 79.5t-54 250.5t54 250.5t160 79.5h211v-66h-137v-224h125v-60h-125v-244h151zM240 594q-70 0 -105 -63.5t-35 -200.5t35 -200.5t105 -63.5v528z" glyph-name="OE" unicode="Œ"/><glyph d="M438 220h-162q3 -95 24.5 -130.5t63.5 -35.5q16 0 28.5 3t28.5 11v-62q-28 -14 -63 -14q-40 0 -68 15.5t-45 48.5q-30 -64 -88 -64q-63 0 -90 68t-27 190t27 190t90 68q56 0 86 -60q27 60 86 60q58 0 83.5 -53t25.5 -175v-60zM199.5 105q10.5 51 10.5 145t-10.5 145 t-39.5 51t-39.5 -51t-10.5 -145t10.5 -145t39.5 -51t39.5 51zM376 278q0 68 -4.5 104t-14.5 50t-28 14q-27 0 -39.5 -35.5t-13.5 -132.5h100z" glyph-name="oe" unicode="œ"/><glyph d="M372 0l-116 272h-1h-125v-272h-74v660h181q89 0 136 -50t47 -146q0 -144 -89 -179l121 -285h-80zM240 334q54 0 80 31t26 99q0 67 -26 98.5t-85 31.5h-105v-260h110zM233 740h-59l90 170h89z" glyph-name="Racute" unicode="Ŕ"/><glyph d="M468 57v-59q-12 -6 -37 -6q-42 0 -78 23.5t-58.5 72.5t-22.5 121q0 116 64 222v3h-170q-17 -212 -68 -434h-82q33 114 56.5 242.5t28.5 220.5q-16 11 -25 28.5t-9 38.5q0 29 18 47.5t52 18.5q17 0 35 -5q0 -31 -2 -91h241v-66q-25 -33 -45 -92.5t-20 -125.5 q0 -76 29.5 -119t72.5 -43q11 0 20 3zM285 580h-59l90 170h89z" glyph-name="racute" unicode="ŕ"/><glyph d="M372 0l-116 272h-1h-125v-272h-74v660h181q89 0 136 -50t47 -146q0 -144 -89 -179l121 -285h-80zM240 334q54 0 80 31t26 99q0 67 -26 98.5t-85 31.5h-105v-260h110zM127 -296q69 12 109 55t40 94q0 25 -5 38h-2q-8 -38 -48 -38q-25 0 -39.5 13.5t-14.5 38.5t19 40t50 15 q46 0 72 -29t26 -78q0 -46 -24 -90t-71 -76.5t-112 -43.5v61z" glyph-name="uni0156" unicode="Ŗ"/><glyph d="M468 57v-59q-12 -6 -37 -6q-42 0 -78 23.5t-58.5 72.5t-22.5 121q0 116 64 222v3h-170q-17 -212 -68 -434h-82q33 114 56.5 242.5t28.5 220.5q-16 11 -25 28.5t-9 38.5q0 29 18 47.5t52 18.5q17 0 35 -5q0 -31 -2 -91h241v-66q-25 -33 -45 -92.5t-20 -125.5 q0 -76 29.5 -119t72.5 -43q11 0 20 3zM127 -296q69 12 109 55t40 94q0 25 -5 38h-2q-8 -38 -48 -38q-25 0 -39.5 13.5t-14.5 38.5t19 40t50 15q46 0 72 -29t26 -78q0 -46 -24 -90t-71 -76.5t-112 -43.5v61z" glyph-name="uni0157" unicode="ŗ"/><glyph d="M372 0l-116 272h-1h-125v-272h-74v660h181q89 0 136 -50t47 -146q0 -144 -89 -179l121 -285h-80zM240 334q54 0 80 31t26 99q0 67 -26 98.5t-85 31.5h-105v-260h110zM361 910l-90 -170h-76l-90 170h70l58 -126l58 126h70z" glyph-name="Rcaron" unicode="Ř"/><glyph d="M468 57v-59q-12 -6 -37 -6q-42 0 -78 23.5t-58.5 72.5t-22.5 121q0 116 64 222v3h-170q-17 -212 -68 -434h-82q33 114 56.5 242.5t28.5 220.5q-16 11 -25 28.5t-9 38.5q0 29 18 47.5t52 18.5q17 0 35 -5q0 -31 -2 -91h241v-66q-25 -33 -45 -92.5t-20 -125.5 q0 -76 29.5 -119t72.5 -43q11 0 20 3zM413 750l-90 -170h-76l-90 170h70l58 -126l58 126h70z" glyph-name="rcaron" unicode="ř"/><glyph d="M102 619q54 49 149 49q45 0 86.5 -9t59.5 -20v-70q-24 12 -63 22.5t-81 10.5q-63 0 -97 -28.5t-34 -80.5q0 -37 18 -60.5t68 -44.5l72 -30q82 -34 117 -75t35 -101q0 -84 -51.5 -137t-149.5 -53q-53 0 -97 12t-65 24v74q23 -16 65.5 -30t94.5 -14q63 0 96 31t33 86 q0 42 -20.5 66.5t-79.5 49.5l-80 34q-59 25 -94.5 62t-35.5 104q0 79 54 128zM240 740h-59l90 170h89z" glyph-name="Sacute" unicode="Ś"/><glyph d="M102.5 469.5q49.5 38.5 138.5 38.5q79 0 144 -27v-72q-25 15 -64.5 24t-77.5 9q-53 0 -84.5 -20.5t-31.5 -61.5q0 -35 19.5 -50.5t75.5 -24.5l70 -11q69 -11 102 -42t33 -82q0 -77 -51 -117.5t-145 -40.5q-50 0 -92.5 10.5t-64.5 21.5v72q24 -14 65.5 -26t89.5 -12 q59 0 91.5 21t32.5 65q0 21 -6.5 33t-27 21t-62.5 16l-70 11q-69 11 -101.5 44t-32.5 91q0 71 49.5 109.5zM240 580h-59l90 170h89z" glyph-name="sacute" unicode="ś"/><glyph d="M388 52.5q-44 -51.5 -128 -59.5l-13 -48q16 4 32 4q43 0 67 -23t24 -64q0 -54 -41 -81.5t-99 -27.5q-51 0 -93 15v55q47 -15 93 -15q34 0 58 11.5t24 38.5q0 22 -15.5 32.5t-51.5 10.5q-34 0 -62 -7l28 99q-47 2 -85.5 13t-56.5 22v74q23 -16 65.5 -30t94.5 -14 q63 0 96 31t33 86q0 42 -20.5 66.5t-79.5 49.5l-80 34q-59 25 -94.5 62t-35.5 104q0 79 54 128t149 49q45 0 86.5 -9t59.5 -20v-70q-24 12 -63 22.5t-81 10.5q-63 0 -97 -28.5t-34 -80.5q0 -37 18 -60.5t68 -44.5l72 -30q82 -34 117 -75t35 -101q0 -78 -44 -129.5z" glyph-name="Scedilla" unicode="Ş"/><glyph d="M384 39q-43 -40 -124 -46l-13 -48q16 4 32 4q43 0 67 -23t24 -64q0 -54 -41 -81.5t-99 -27.5q-51 0 -93 15v55q47 -15 93 -15q34 0 58 11.5t24 38.5q0 22 -15.5 32.5t-51.5 10.5q-34 0 -62 -7l28 99q-44 2 -81 11.5t-56 19.5v72q24 -14 65.5 -26t89.5 -12q59 0 91.5 21 t32.5 65q0 21 -6.5 33t-27 21t-62.5 16l-70 11q-69 11 -101.5 44t-32.5 91q0 71 49.5 109.5t138.5 38.5q79 0 144 -27v-72q-25 15 -64.5 24t-77.5 9q-53 0 -84.5 -20.5t-31.5 -61.5q0 -35 19.5 -50.5t75.5 -24.5l70 -11q69 -11 102 -42t33 -82q0 -71 -43 -111z" glyph-name="scedilla" unicode="ş"/><glyph d="M102 619q54 49 149 49q45 0 86.5 -9t59.5 -20v-70q-24 12 -63 22.5t-81 10.5q-63 0 -97 -28.5t-34 -80.5q0 -37 18 -60.5t68 -44.5l72 -30q82 -34 117 -75t35 -101q0 -84 -51.5 -137t-149.5 -53q-53 0 -97 12t-65 24v74q23 -16 65.5 -30t94.5 -14q63 0 96 31t33 86 q0 42 -20.5 66.5t-79.5 49.5l-80 34q-59 25 -94.5 62t-35.5 104q0 79 54 128zM368 910l-90 -170h-76l-90 170h70l58 -126l58 126h70z" glyph-name="Scaron" unicode="Š"/><glyph d="M102.5 469.5q49.5 38.5 138.5 38.5q79 0 144 -27v-72q-25 15 -64.5 24t-77.5 9q-53 0 -84.5 -20.5t-31.5 -61.5q0 -35 19.5 -50.5t75.5 -24.5l70 -11q69 -11 102 -42t33 -82q0 -77 -51 -117.5t-145 -40.5q-50 0 -92.5 10.5t-64.5 21.5v72q24 -14 65.5 -26t89.5 -12 q59 0 91.5 21t32.5 65q0 21 -6.5 33t-27 21t-62.5 16l-70 11q-69 11 -101.5 44t-32.5 91q0 71 49.5 109.5zM368 750l-90 -170h-76l-90 170h70l58 -126l58 126h70z" glyph-name="scaron" unicode="š"/><glyph d="M452 594h-175v-594h-74v594h-175v66h424v-66zM368 910l-90 -170h-76l-90 170h70l58 -126l58 126h70z" glyph-name="Tcaron" unicode="Ť"/><glyph d="M217 434v-207q0 -67 13 -104t38 -51t65 -14q39 0 89 14v-63q-12 -5 -40.5 -11t-48.5 -6q-63 0 -104.5 21t-63.5 72.5t-22 141.5v207h-111v66h111v132h74v-132h217v-66h-217zM247 592q69 12 109 55t40 94q0 25 -5 38h-2q-8 -38 -48 -38q-25 0 -39.5 13.5t-14.5 38.5t19 40 t50 15q46 0 72 -29t26 -78q0 -46 -24 -90t-71 -76.5t-112 -43.5v61z" glyph-name="tcaron" unicode="ť"/><glyph d="M277 594v-242h100v-44h-100v-308h-74v308h-100v44h100v242h-175v66h424v-66h-175z" glyph-name="Tbar" unicode="Ŧ"/><glyph d="M217 434v-132h140v-44h-140v-31q0 -67 13 -104t38 -51t65 -14q39 0 89 14v-63q-12 -5 -40.5 -11t-48.5 -6q-63 0 -104.5 21t-63.5 72.5t-22 141.5v31h-60v44h60v132h-111v66h111v132h74v-132h217v-66h-217z" glyph-name="tbar" unicode="ŧ"/><glyph d="M56 660h74v-380q0 -121 26.5 -170.5t83.5 -49.5t83.5 49.5t26.5 170.5v380h74v-380q0 -159 -48 -223.5t-136 -64.5t-136 64.5t-48 223.5v380zM392 836v-44h-304v44h304z" glyph-name="Umacron" unicode="Ū"/><glyph d="M450 57v-58q-16 -7 -39 -7q-70 0 -83 87h-3q-3 -41 -28.5 -64t-71.5 -23q-143 0 -143 184v258h-55v66h129v-324q0 -61 18.5 -91.5t57.5 -30.5q37 0 60.5 24.5t32.5 80.5v341h74v-393q0 -30 7.5 -41.5t24.5 -11.5q10 0 19 3zM392 676v-44h-304v44h304z" glyph-name="umacron" unicode="ū"/><glyph d="M56 660h74v-380q0 -121 26.5 -170.5t83.5 -49.5t83.5 49.5t26.5 170.5v380h74v-380q0 -159 -48 -223.5t-136 -64.5t-136 64.5t-48 223.5v380zM335.5 793.5q-38.5 -42.5 -95.5 -42.5t-95.5 42t-38.5 117h56q0 -54 21.5 -79.5t56.5 -25.5t56.5 25.5t21.5 79.5h56 q0 -74 -38.5 -116.5z" glyph-name="Ubreve" unicode="Ŭ"/><glyph d="M450 57v-58q-16 -7 -39 -7q-70 0 -83 87h-3q-3 -41 -28.5 -64t-71.5 -23q-143 0 -143 184v258h-55v66h129v-324q0 -61 18.5 -91.5t57.5 -30.5q37 0 60.5 24.5t32.5 80.5v341h74v-393q0 -30 7.5 -41.5t24.5 -11.5q10 0 19 3zM335.5 633.5q-38.5 -42.5 -95.5 -42.5 t-95.5 42t-38.5 117h56q0 -54 21.5 -79.5t56.5 -25.5t56.5 25.5t21.5 79.5h56q0 -74 -38.5 -116.5z" glyph-name="ubreve" unicode="ŭ"/><glyph d="M56 660h74v-380q0 -121 26.5 -170.5t83.5 -49.5t83.5 49.5t26.5 170.5v380h74v-380q0 -159 -48 -223.5t-136 -64.5t-136 64.5t-48 223.5v380zM169 757.5q-33 17.5 -53.5 51t-20.5 78.5q0 44 20.5 77t53.5 50.5t71 17.5t71 -17.5t53.5 -50.5t20.5 -77t-20 -77.5 t-53.5 -51.5t-71.5 -18t-71 17.5zM306.5 813.5q28.5 25.5 28.5 73.5q0 47 -28.5 72t-66.5 25t-66.5 -25t-28.5 -72q0 -48 28.5 -73.5t66.5 -25.5t66.5 25.5z" glyph-name="Uring" unicode="Ů"/><glyph d="M450 57v-58q-16 -7 -39 -7q-70 0 -83 87h-3q-3 -41 -28.5 -64t-71.5 -23q-143 0 -143 184v258h-55v66h129v-324q0 -61 18.5 -91.5t57.5 -30.5q37 0 60.5 24.5t32.5 80.5v341h74v-393q0 -30 7.5 -41.5t24.5 -11.5q10 0 19 3zM169 597.5q-33 17.5 -53.5 51t-20.5 78.5 q0 44 20.5 77t53.5 50.5t71 17.5t71 -17.5t53.5 -50.5t20.5 -77t-20 -77.5t-53.5 -51.5t-71.5 -18t-71 17.5zM306.5 653.5q28.5 25.5 28.5 73.5q0 47 -28.5 72t-66.5 25t-66.5 -25t-28.5 -72q0 -48 28.5 -73.5t66.5 -25.5t66.5 25.5z" glyph-name="uring" unicode="ů"/><glyph d="M56 660h74v-380q0 -121 26.5 -170.5t83.5 -49.5t83.5 49.5t26.5 170.5v380h74v-380q0 -159 -48 -223.5t-136 -64.5t-136 64.5t-48 223.5v380zM148 740h-55l90 170h85zM327 740h-55l90 170h85z" glyph-name="Uhungarumlaut" unicode="Ű"/><glyph d="M450 57v-58q-16 -7 -39 -7q-70 0 -83 87h-3q-3 -41 -28.5 -64t-71.5 -23q-143 0 -143 184v258h-55v66h129v-324q0 -61 18.5 -91.5t57.5 -30.5q37 0 60.5 24.5t32.5 80.5v341h74v-393q0 -30 7.5 -41.5t24.5 -11.5q10 0 19 3zM148 580h-55l90 170h85zM327 580h-55l90 170 h85z" glyph-name="uhungarumlaut" unicode="ű"/><glyph d="M424 660v-380q0 -121 -28 -186.5t-81 -87.5l-6 -6q-33 -31 -51 -63.5t-18 -61.5q0 -43 53 -43q16 0 39 5v-48q-23 -6 -48 -6q-48 0 -76 23t-28 63q0 62 63 123h-3q-88 0 -136 64.5t-48 223.5v380h74v-380q0 -121 26.5 -170.5t83.5 -49.5t83.5 49.5t26.5 170.5v380h74z" glyph-name="Uogonek" unicode="Ų"/><glyph d="M373.5 -67.5q-15.5 -30.5 -15.5 -57.5q0 -43 53 -43q16 0 39 5v-48q-22 -6 -48 -6q-48 0 -76 23t-28 63q0 67 72 131l2 1q-35 20 -44 78h-3q-3 -41 -28.5 -64t-71.5 -23q-143 0 -143 184v258h-55v66h129v-324q0 -61 18.5 -91.5t57.5 -30.5q37 0 60.5 24.5t32.5 80.5v341 h74v-393q0 -30 7.5 -41.5t24.5 -11.5q10 0 19 3v-58q-11 -6 -31 -7q-30 -29 -45.5 -59.5z" glyph-name="uogonek" unicode="ų"/><glyph d="M78 660l39 -378l6 -205h6l84 333h54l84 -333h6l6 205l39 378h73l-66 -660h-98l-69 269h-4l-69 -269h-98l-66 660h73zM80 803l160 100l160 -100v-66l-160 100l-160 -100v66z" glyph-name="Wcircumflex" unicode="Ŵ"/><glyph d="M76 500l46 -291l7 -135h6l71 314h68l70 -314h6l8 135l46 291h72l-77 -500h-95l-63 281h-2l-63 -281h-95l-77 500h72zM80 643l160 100l160 -100v-66l-160 100l-160 -100v66z" glyph-name="wcircumflex" unicode="ŵ"/><glyph d="M462 660l-185 -420v-240h-74v240l-185 420h83l135 -328h8l135 328h83zM80 803l160 100l160 -100v-66l-160 100l-160 -100v66z" glyph-name="Ycircumflex" unicode="Ŷ"/><glyph d="M459 500l-137 -494q-26 -94 -48.5 -141.5t-49.5 -65t-70 -17.5q-26 0 -43 2.5t-36 8.5l-1 67q36 -12 69 -12q26 0 42.5 13.5t30 45t30.5 93.5h-43l-115 438h-67v62h125l112 -426h8l118 426h75zM80 643l160 100l160 -100v-66l-160 100l-160 -100v66z" glyph-name="ycircumflex" unicode="ŷ"/><glyph d="M462 660l-185 -420v-240h-74v240l-185 420h83l135 -328h8l135 328h83zM302.5 789.5q-18.5 13.5 -18.5 39.5t18 40t50 14t50 -14t18 -40t-18.5 -39.5t-49.5 -13.5t-49.5 13.5zM78.5 789.5q-18.5 13.5 -18.5 39.5t18 40t50 14t50 -14t18 -40t-18.5 -39.5t-49.5 -13.5 t-49.5 13.5z" glyph-name="Ydieresis" unicode="Ÿ"/><glyph d="M45 39l302 555h-295v66h384v-40l-301 -554h301v-66h-391v39zM240 740h-59l90 170h89z" glyph-name="Zacute" unicode="Ź"/><glyph d="M50 52l282 382h-275v66h367v-52l-282 -382h289v-66h-381v52zM240 580h-59l90 170h89z" glyph-name="zacute" unicode="ź"/><glyph d="M45 39l302 555h-295v66h384v-40l-301 -554h301v-66h-391v39zM190.5 789.5q-18.5 13.5 -18.5 39.5t18 40t50 14t50 -14t18 -40t-18.5 -39.5t-49.5 -13.5t-49.5 13.5z" glyph-name="Zdotaccent" unicode="Ż"/><glyph d="M50 52l282 382h-275v66h367v-52l-282 -382h289v-66h-381v52zM190.5 629.5q-18.5 13.5 -18.5 39.5t18 40t50 14t50 -14t18 -40t-18.5 -39.5t-49.5 -13.5t-49.5 13.5z" glyph-name="zdotaccent" unicode="ż"/><glyph d="M45 39l302 555h-295v66h384v-40l-301 -554h301v-66h-391v39zM368 910l-90 -170h-76l-90 170h70l58 -126l58 126h70z" glyph-name="Zcaron" unicode="Ž"/><glyph d="M50 52l282 382h-275v66h367v-52l-282 -382h289v-66h-381v52zM368 750l-90 -170h-76l-90 170h70l58 -126l58 126h70z" glyph-name="zcaron" unicode="ž"/><glyph d="M102 619q54 49 149 49q45 0 86.5 -9t59.5 -20v-70q-24 12 -63 22.5t-81 10.5q-63 0 -97 -28.5t-34 -80.5q0 -37 18 -60.5t68 -44.5l72 -30q82 -34 117 -75t35 -101q0 -84 -51.5 -137t-149.5 -53q-53 0 -97 12t-65 24v74q23 -16 65.5 -30t94.5 -14q63 0 96 31t33 86 q0 42 -20.5 66.5t-79.5 49.5l-80 34q-59 25 -94.5 62t-35.5 104q0 79 54 128zM127 -296q69 12 109 55t40 94q0 25 -5 38h-2q-8 -38 -48 -38q-25 0 -39.5 13.5t-14.5 38.5t19 40t50 15q46 0 72 -29t26 -78q0 -46 -24 -90t-71 -76.5t-112 -43.5v61z" glyph-name="uni0218" unicode="Ș"/><glyph d="M102.5 469.5q49.5 38.5 138.5 38.5q79 0 144 -27v-72q-25 15 -64.5 24t-77.5 9q-53 0 -84.5 -20.5t-31.5 -61.5q0 -35 19.5 -50.5t75.5 -24.5l70 -11q69 -11 102 -42t33 -82q0 -77 -51 -117.5t-145 -40.5q-50 0 -92.5 10.5t-64.5 21.5v72q24 -14 65.5 -26t89.5 -12 q59 0 91.5 21t32.5 65q0 21 -6.5 33t-27 21t-62.5 16l-70 11q-69 11 -101.5 44t-32.5 91q0 71 49.5 109.5zM127 -296q69 12 109 55t40 94q0 25 -5 38h-2q-8 -38 -48 -38q-25 0 -39.5 13.5t-14.5 38.5t19 40t50 15q46 0 72 -29t26 -78q0 -46 -24 -90t-71 -76.5t-112 -43.5v61 z" glyph-name="uni0219" unicode="ș"/><glyph d="M452 594h-175v-594h-74v594h-175v66h424v-66zM127 -296q69 12 109 55t40 94q0 25 -5 38h-2q-8 -38 -48 -38q-25 0 -39.5 13.5t-14.5 38.5t19 40t50 15q46 0 72 -29t26 -78q0 -46 -24 -90t-71 -76.5t-112 -43.5v61z" glyph-name="uni021A" unicode="Ț"/><glyph d="M217 434v-207q0 -67 13 -104t38 -51t65 -14q39 0 89 14v-63q-12 -5 -40.5 -11t-48.5 -6q-63 0 -104.5 21t-63.5 72.5t-22 141.5v207h-111v66h111v132h74v-132h217v-66h-217zM170 -296q69 12 109 55t40 94q0 25 -5 38h-2q-8 -38 -48 -38q-25 0 -39.5 13.5t-14.5 38.5 t19 40t50 15q46 0 72 -29t26 -78q0 -46 -24 -90t-71 -76.5t-112 -43.5v61z" glyph-name="uni021B" unicode="ț"/><glyph d="M444 308q-50 -41 -131 -109v-255q0 -78 -36 -120t-100 -42q-67 0 -104 41.5t-37 111.5q0 71 40 127q15 20 47.5 54t77.5 73q15 14 38 33v212h-112v66h186v-214q24 20 104 86q7 7 14 12.5t13 10.5v-87zM239 136l-11 -10q-39 -36 -60.5 -58t-34.5 -42q-12 -20 -17.5 -40 t-5.5 -47q0 -91 67 -91q33 0 47.5 26.5t14.5 68.5v193z" glyph-name="uni0237" unicode="ȷ"/><glyph d="M-253 750l90 -170h-59l-120 170h89z" glyph-name="gravecomb" horiz-adv-x="0" unicode="̀"/><glyph d="M-258 580h-59l90 170h89z" glyph-name="acutecomb" horiz-adv-x="0" unicode="́"/><glyph d="M-400 643l160 100l160 -100v-66l-160 100l-160 -100v66z" glyph-name="uni0302" horiz-adv-x="0" unicode="̂"/><glyph d="M-222 595q-20 15 -31 45l-22 57q-8 21 -13.5 28t-17.5 7q-22 0 -31.5 -35.5t-9.5 -122.5h-52q0 117 22.5 163.5t70.5 46.5q54 0 77 -60l22 -58q7 -20 13 -27t19 -7q22 0 32 34.5t10 113.5h52q0 -110 -23 -155t-71 -45q-27 0 -47 15z" glyph-name="tildecomb" horiz-adv-x="0" unicode="̃"/><glyph d="M-88 676v-44h-304v44h304z" glyph-name="uni0304" horiz-adv-x="0" unicode="̄"/><glyph d="M-144.5 633.5q-38.5 -42.5 -95.5 -42.5t-95.5 42t-38.5 117h56q0 -54 21.5 -79.5t56.5 -25.5t56.5 25.5t21.5 79.5h56q0 -74 -38.5 -116.5z" glyph-name="uni0306" horiz-adv-x="0" unicode="̆"/><glyph d="M-289.5 629.5q-18.5 13.5 -18.5 39.5t18 40t50 14t50 -14t18 -40t-18.5 -39.5t-49.5 -13.5t-49.5 13.5z" glyph-name="uni0307" horiz-adv-x="0" unicode="̇"/><glyph d="M-177.5 629.5q-18.5 13.5 -18.5 39.5t18 40t50 14t50 -14t18 -40t-18.5 -39.5t-49.5 -13.5t-49.5 13.5zM-401.5 629.5q-18.5 13.5 -18.5 39.5t18 40t50 14t50 -14t18 -40t-18.5 -39.5t-49.5 -13.5t-49.5 13.5z" glyph-name="uni0308" horiz-adv-x="0" unicode="̈"/><glyph d="M-311 597.5q-33 17.5 -53.5 51t-20.5 78.5q0 44 20.5 77t53.5 50.5t71 17.5t71 -17.5t53.5 -50.5t20.5 -77t-20 -77.5t-53.5 -51.5t-71.5 -18t-71 17.5zM-173.5 653.5q28.5 25.5 28.5 73.5q0 47 -28.5 72t-66.5 25t-66.5 -25t-28.5 -72q0 -48 28.5 -73.5t66.5 -25.5 t66.5 25.5z" glyph-name="uni030A" horiz-adv-x="0" unicode="̊"/><glyph d="M-352 580h-55l90 170h85zM-173 580h-55l90 170h85z" glyph-name="uni030B" horiz-adv-x="0" unicode="̋"/><glyph d="M-112 750l-90 -170h-76l-90 170h70l58 -126l58 126h70z" glyph-name="uni030C" horiz-adv-x="0" unicode="̌"/><glyph d="M-127 835q-69 -12 -109 -55t-40 -94q0 -25 5 -38h2q8 38 48 38q25 0 39.5 -13.5t14.5 -38.5t-19 -40t-50 -15q-46 0 -72 29t-26 78q0 46 24 90t71 76.5t112 43.5v-61z" glyph-name="uni0312" horiz-adv-x="0" unicode="̒"/><glyph d="M-353 -296q69 12 109 55t40 94q0 25 -5 38h-2q-8 -38 -48 -38q-25 0 -39.5 13.5t-14.5 38.5t19 40t50 15q46 0 72 -29t26 -78q0 -46 -24 -90t-71 -76.5t-112 -43.5v61z" glyph-name="uni0326" horiz-adv-x="0" unicode="̦"/><glyph d="M-330 -177q47 -15 93 -15q34 0 58 11.5t24 38.5q0 22 -15.5 32.5t-51.5 10.5q-34 0 -62 -7l30 106h49l-15 -55q16 4 32 4q43 0 67 -23t24 -64q0 -54 -41 -81.5t-99 -27.5q-51 0 -93 15v55z" glyph-name="uni0327" horiz-adv-x="0" unicode="̧"/><glyph d="M-236 -217q-48 0 -76 23t-28 63q0 67 72 131l23 20l53 -2l-19 -18q-33 -31 -51 -63.5t-18 -61.5q0 -43 53 -43q16 0 39 5v-48q-22 -6 -48 -6z" glyph-name="uni0328" horiz-adv-x="0" unicode="̨"/><glyph d="M-103 272v-44h-274v44h274z" glyph-name="uni0335" horiz-adv-x="0" unicode="̵"/><glyph d="M-13 272v-44h-454v44h454z" glyph-name="uni0336" horiz-adv-x="0" unicode="̶"/><glyph d="M-108 335l18 -40l-284 -131l-18 41z" glyph-name="uni0337" horiz-adv-x="0" unicode="̷"/><glyph d="M-57 660l37 -24l-403 -636l-37 24z" glyph-name="uni0338" horiz-adv-x="0" unicode="̸"/><glyph d="M78 660l39 -378l6 -205h6l84 333h54l84 -333h6l6 205l39 378h73l-66 -660h-98l-69 269h-4l-69 -269h-98l-66 660h73zM209 910l90 -170h-59l-120 170h89z" glyph-name="Wgrave" unicode="Ẁ"/><glyph d="M76 500l46 -291l7 -135h6l71 314h68l70 -314h6l8 135l46 291h72l-77 -500h-95l-63 281h-2l-63 -281h-95l-77 500h72zM209 750l90 -170h-59l-120 170h89z" glyph-name="wgrave" unicode="ẁ"/><glyph d="M78 660l39 -378l6 -205h6l84 333h54l84 -333h6l6 205l39 378h73l-66 -660h-98l-69 269h-4l-69 -269h-98l-66 660h73zM240 740h-59l90 170h89z" glyph-name="Wacute" unicode="Ẃ"/><glyph d="M76 500l46 -291l7 -135h6l71 314h68l70 -314h6l8 135l46 291h72l-77 -500h-95l-63 281h-2l-63 -281h-95l-77 500h72zM240 580h-59l90 170h89z" glyph-name="wacute" unicode="ẃ"/><glyph d="M78 660l39 -378l6 -205h6l84 333h54l84 -333h6l6 205l39 378h73l-66 -660h-98l-69 269h-4l-69 -269h-98l-66 660h73zM302.5 789.5q-18.5 13.5 -18.5 39.5t18 40t50 14t50 -14t18 -40t-18.5 -39.5t-49.5 -13.5t-49.5 13.5zM78.5 789.5q-18.5 13.5 -18.5 39.5t18 40t50 14 t50 -14t18 -40t-18.5 -39.5t-49.5 -13.5t-49.5 13.5z" glyph-name="Wdieresis" unicode="Ẅ"/><glyph d="M76 500l46 -291l7 -135h6l71 314h68l70 -314h6l8 135l46 291h72l-77 -500h-95l-63 281h-2l-63 -281h-95l-77 500h72zM302.5 629.5q-18.5 13.5 -18.5 39.5t18 40t50 14t50 -14t18 -40t-18.5 -39.5t-49.5 -13.5t-49.5 13.5zM78.5 629.5q-18.5 13.5 -18.5 39.5t18 40t50 14 t50 -14t18 -40t-18.5 -39.5t-49.5 -13.5t-49.5 13.5z" glyph-name="wdieresis" unicode="ẅ"/><glyph d="M404.5 330q38.5 -47 38.5 -134q0 -97 -47.5 -150.5t-126.5 -53.5q-29 0 -64 8v67q32 -9 60 -9q53 0 80 32t27 106q0 63 -26.5 92.5t-80.5 29.5q-22 0 -47 -7v47l133 234q-48 10 -78 10q-55 0 -86 -17t-44 -54t-13 -101v-430h-74v430q0 119 49 178.5t166 59.5q39 0 78 -9 t65 -20v-67l-111 -193v-2q63 0 101.5 -47z" glyph-name="uni1E9E" unicode="ẞ"/><glyph d="M462 660l-185 -420v-240h-74v240l-185 420h83l135 -328h8l135 328h83zM209 910l90 -170h-59l-120 170h89z" glyph-name="Ygrave" unicode="Ỳ"/><glyph d="M459 500l-137 -494q-26 -94 -48.5 -141.5t-49.5 -65t-70 -17.5q-26 0 -43 2.5t-36 8.5l-1 67q36 -12 69 -12q26 0 42.5 13.5t30 45t30.5 93.5h-43l-115 438h-67v62h125l112 -426h8l118 426h75zM209 750l90 -170h-59l-120 170h89z" glyph-name="ygrave" unicode="ỳ"/><glyph d="M404 324v-48h-328v48h328z" glyph-name="endash" unicode="–"/><glyph d="M480 324v-48h-480v48h480z" glyph-name="emdash" unicode="—"/><glyph d="M353 607q-69 -12 -109 -55t-40 -94q0 -25 5 -38h2q8 38 48 38q25 0 39.5 -13.5t14.5 -38.5t-19 -40t-50 -15q-46 0 -72 29t-26 78q0 46 24 90t71 76.5t112 43.5v-61z" glyph-name="quoteleft" unicode="‘"/><glyph d="M127 412q69 12 109 55t40 94q0 25 -5 38h-2q-8 -38 -48 -38q-25 0 -39.5 13.5t-14.5 38.5t19 40t50 15q46 0 72 -29t26 -78q0 -46 -24 -90t-71 -76.5t-112 -43.5v61z" glyph-name="quoteright" unicode="’"/><glyph d="M127 -157q69 12 109 55t40 94q0 25 -5 38h-2q-8 -38 -48 -38q-25 0 -39.5 13.5t-14.5 38.5t19 40t50 15q46 0 72 -29t26 -78q0 -46 -24 -90t-71 -76.5t-112 -43.5v61z" glyph-name="quotesinglbase" unicode="‚"/><glyph d="M235 605q-69 -12 -109 -55t-40 -94q0 -25 5 -38h2q8 38 48 38q25 0 39.5 -13.5t14.5 -38.5t-19 -40t-50 -15q-46 0 -72 29t-26 78q0 46 24 90t71 76.5t112 43.5v-61zM462 605q-69 -12 -109 -55t-40 -94q0 -25 5 -38h2q8 38 48 38q25 0 39.5 -13.5t14.5 -38.5t-19 -40 t-50 -15q-46 0 -72 29t-26 78q0 46 24 90t71 76.5t112 43.5v-61z" glyph-name="quotedblleft" unicode="“"/><glyph d="M18 412q69 12 109 55t40 94q0 25 -5 38h-2q-8 -38 -48 -38q-25 0 -39.5 13.5t-14.5 38.5t19 40t50 15q46 0 72 -29t26 -78q0 -46 -24 -90t-71 -76.5t-112 -43.5v61zM245 411q69 12 109 55t40 94q0 25 -5 38h-2q-8 -38 -48 -38q-25 0 -39.5 13.5t-14.5 38.5t19 40t50 15 q46 0 72 -29t26 -78q0 -46 -24 -90t-71 -76.5t-112 -43.5v61z" glyph-name="quotedblright" unicode="”"/><glyph d="M18 -157q69 12 109 55t40 94q0 25 -5 38h-2q-8 -38 -48 -38q-25 0 -39.5 13.5t-14.5 38.5t19 40t50 15q46 0 72 -29t26 -78q0 -46 -24 -90t-71 -76.5t-112 -43.5v61zM245 -157q69 12 109 55t40 94q0 25 -5 38h-2q-8 -38 -48 -38q-25 0 -39.5 13.5t-14.5 38.5t19 40t50 15 q46 0 72 -29t26 -78q0 -46 -24 -90t-71 -76.5t-112 -43.5v61z" glyph-name="quotedblbase" unicode="„"/><glyph d="M425 386h-161v-416h-48v416h-161v48h161v226h48v-226h161v-48z" glyph-name="dagger" unicode="†"/><glyph d="M264 432v-234h161v-48h-161v-180h-48v180h-161v48h161v234h-161v48h161v180h48v-180h161v-48h-161z" glyph-name="daggerdbl" unicode="‡"/><glyph d="M200 265q-15 14 -15 35t15 35t40 14t40 -14t15 -35t-15 -35t-40 -14t-40 14z" glyph-name="bullet" unicode="•"/><glyph d="M32.5 5.5q-18.5 13.5 -18.5 39.5t18 40t50 14t50 -14t18 -40t-18.5 -39.5t-49.5 -13.5t-49.5 13.5zM190.5 5.5q-18.5 13.5 -18.5 39.5t18 40t50 14t50 -14t18 -40t-18.5 -39.5t-49.5 -13.5t-49.5 13.5zM348.5 5.5q-18.5 13.5 -18.5 39.5t18 40t50 14t50 -14t18 -40 t-18.5 -39.5t-49.5 -13.5t-49.5 13.5z" glyph-name="ellipsis" unicode="…"/><glyph d="M57.5 399q-26.5 41 -26.5 114t26.5 114t77.5 41t77.5 -41.5t26.5 -113.5t-26.5 -113.5t-77.5 -41.5t-77.5 41zM382 660h50l-362 -660h-50zM175 432.5q12 26.5 12 80.5t-12 80.5t-40 26.5t-40 -26t-12 -81q0 -54 12 -80.5t40 -26.5t40 26.5zM329 246.5q-19 30.5 -19 86.5 q0 55 19 85.5t56 30.5t56 -30t19 -86q0 -57 -19 -87t-56 -30t-56 30.5zM414 333q0 72 -29 72q-13 0 -21 -15t-8 -57q0 -43 8 -58t21 -15q29 0 29 73zM209 22.5q-19 30.5 -19 86.5q0 55 19 85.5t56 30.5t56 -30t19 -86q0 -57 -19 -87t-56 -30t-56 30.5zM294 109q0 72 -29 72 q-13 0 -21 -15t-8 -57q0 -43 8 -58t21 -15q29 0 29 73z" glyph-name="perthousand" unicode="‰"/><glyph d="M282 504h58l-142 -204l142 -204h-58l-142 204z" glyph-name="guilsinglleft" unicode="‹"/><glyph d="M198 96h-58l142 204l-142 204h58l142 -204z" glyph-name="guilsinglright" unicode="›"/><glyph d="M53 -24l-41 24l415 683l41 -24z" glyph-name="fraction" unicode="⁄"/><glyph d="M217.5 100.5q34.5 -42.5 98.5 -42.5q66 0 113 34v-68q-16 -12 -51.5 -22t-73.5 -10q-177 0 -204 246h-79l19 44h56q-1 16 -1 49t1 48h-75l19 44h59q13 129 66 187t146 58q42 0 74 -10t50 -22l-14 -68q-19 13 -48.5 23.5t-61.5 10.5q-65 0 -97.5 -40t-41.5 -139h220 l-9 -44h-213q-1 -15 -1 -48q0 -34 1 -49h193l-9 -44h-181q10 -95 44.5 -137.5z" glyph-name="Euro" unicode="€"/><glyph d="M204 612h-65v-270h-52v270h-65v48h182v-48zM445 660v-318h-52l7 260h-3l-40 -192h-42l-39 192h-3l7 -260h-52v318h72l34 -173h4l35 173h72z" glyph-name="trademark" unicode="™"/><glyph d="M474 278h-384l152 -152h-62l-174 174l174 174h62l-152 -152h384v-44z" glyph-name="arrowleft" unicode="←"/><glyph d="M414 298l-152 152v-384h-44v384l-152 -152v62l174 174l174 -174v-62z" glyph-name="arrowup" unicode="↑"/><glyph d="M474 300l-174 -174h-62l152 152h-384v44h384l-152 152h62z" glyph-name="arrowright" unicode="→"/><glyph d="M414 302v-62l-174 -174l-174 174v62l152 -152v384h44v-384z" glyph-name="arrowdown" unicode="↓"/><glyph d="M470 300l-101 -204h-49l90 182h-340l89 -182h-49l-100 204l100 204h49l-89 -182h340l-90 182h49z" glyph-name="arrowboth" unicode="↔"/><glyph d="M262 470v-340l182 90v-49l-204 -101l-204 101v49l182 -90v340l-182 -89v49l204 100l204 -100v-49z" glyph-name="arrowupdn" unicode="↕"/><glyph d="M389 119l-271 271v-215l-44 44v246h246l44 -44h-214l271 -271z" glyph-name="uni2196" unicode="↖"/><glyph d="M405 466v-246l-44 -44v214l-271 -271l-31 32l271 271h-215l44 44h246z" glyph-name="uni2197" unicode="↗"/><glyph d="M406 381v-246h-246l-44 44h214l-271 271l32 31l271 -271v215z" glyph-name="uni2198" unicode="↘"/><glyph d="M150 178h215l-44 -44h-246v246l44 44v-214l271 271l31 -32z" glyph-name="uni2199" unicode="↙"/><glyph d="M360 639.5q67 -120.5 67 -319.5q0 -169 -50 -248.5t-137 -79.5q-55 0 -97.5 31t-66 89t-23.5 138q0 79 22.5 137.5t63 89.5t92.5 31q41 0 71.5 -21.5t40.5 -69.5l4 1q-15 146 -64.5 211t-133.5 65q-39 0 -68 -7v65q30 8 68 8q144 0 211 -120.5zM324.5 115.5 q28.5 57.5 28.5 164.5v21q-9 73 -37 107t-76 34q-113 0 -113 -192t113 -192q56 0 84.5 57.5z" glyph-name="partialdiff" unicode="∂"/><glyph d="M368 451q41 -61 41 -151q0 -63 -21.5 -113.5t-60 -80t-87.5 -29.5q-62 0 -105 43l-66 -93l-30 20l72 102q-41 62 -41 151q0 63 21 114t60 80t89 29q59 0 104 -43l65 93l30 -20zM139 189l179 255q-32 35 -78 35q-58 0 -92 -51.5t-34 -127.5q0 -64 25 -111zM340 412 l-180 -255q33 -36 80 -36q56 0 90.5 51.5t34.5 127.5q0 64 -25 112z" glyph-name="emptyset" unicode="∅"/><glyph d="M438 594h-63v-654h-74v654h-122v-654h-74v654h-63v66h396v-66z" glyph-name="product" unicode="∏"/><glyph d="M50 -9l195 309l-195 308v52h381v-66h-294l186 -294l-185 -294h293v-66h-381v51z" glyph-name="summation" unicode="∑"/><glyph d="M425 324v-48h-370v48h370z" glyph-name="minus" unicode="−"/><glyph d="M466 752h-76l-121 -840h-69l-104 389h-82v44h117l97 -365h7l117 816h114v-44z" glyph-name="radical" unicode="√"/><glyph d="M420 485.5q23 -58.5 23 -185.5t-23 -185.5t-69 -58.5q-27 0 -44 15t-31 48t-33 98l-3 10l-3 -10q-19 -63 -33 -96.5t-31.5 -49t-43.5 -15.5q-47 0 -69.5 59t-22.5 185t22.5 185t69.5 59q29 0 47 -17t30.5 -48.5t30.5 -94.5l3 -10l3 10q25 86 47.5 123t60.5 37 q46 0 69 -58.5zM219 300l-12 40q-27 94 -42.5 127t-33.5 33q-23 0 -36.5 -44.5t-13.5 -155.5t13.5 -155.5t36.5 -44.5q18 0 34 35.5t42 124.5zM386 144.5q13 44.5 13 155.5q0 112 -13 156t-37 44q-20 0 -32 -25.5t-32 -93.5l-12 -41l-12 -40l12 -40q25 -86 41 -123t35 -37 q24 0 37 44.5z" glyph-name="infinity" unicode="∞"/><glyph d="M21 -115q27 -8 50 -8q90 0 106 120l79 627q12 96 50.5 139.5t96.5 43.5q26 0 56 -8v-44q-27 8 -50 8q-91 0 -106 -120l-79 -627q-12 -97 -51.5 -140t-95.5 -43q-26 0 -56 8v44z" glyph-name="integral" unicode="∫"/><glyph d="M160 464q21 0 40 -11t47 -32q25 -19 40.5 -28t32.5 -9q28 0 52.5 18t52.5 56v-61q-22 -27 -49 -44t-56 -17q-22 0 -41 11t-47 32q-23 18 -39.5 27.5t-32.5 9.5q-29 0 -53 -18t-52 -56v61q50 61 105 61zM160 264q21 0 40 -11t47 -32q25 -19 40.5 -28t32.5 -9q28 0 52.5 18 t52.5 56v-61q-22 -27 -49 -44t-56 -17q-22 0 -41 11t-47 32q-23 18 -39.5 27.5t-32.5 9.5q-29 0 -53 -18t-52 -56v61q50 61 105 61z" glyph-name="approxequal" unicode="≈"/><glyph d="M283 376l-44 -152h184v-48h-198l-45 -155h-41l45 155h-131v48h145l44 152h-189v48h203l45 155h41l-45 -155h126v-48h-140z" glyph-name="notequal" unicode="≠"/><glyph d="M408 190l-336 192v36l336 192v-54l-271 -155v-2l271 -155v-54zM408 66h-336v48h336v-48z" glyph-name="lessequal" unicode="≤"/><glyph d="M343 399v2l-271 155v54l336 -192v-36l-336 -192v54zM408 114v-48h-336v48h336z" glyph-name="greaterequal" unicode="≥"/><glyph d="M220 660h39l162 -360l-162 -360h-39l-162 360zM239 11h1l128 289l-128 289h-1l-128 -289z" glyph-name="lozenge" unicode="◊"/><glyph d="M42 320h71v-80q0 -95 30.5 -137.5t89.5 -42.5q60 0 88.5 48.5t28.5 171.5v380h74v-380q0 -111 -22.5 -174t-64 -88.5t-104.5 -25.5q-95 0 -144.5 56.5t-49.5 191.5q0 32 3 80zM400 740h-59l90 170h89z" glyph-name="uni00A40301"/><glyph d="M444 308q-50 -41 -131 -109v-255q0 -78 -36 -120t-100 -42q-67 0 -104 41.5t-37 111.5q0 71 40 127q15 20 47.5 54t77.5 73q15 14 38 33v212h-112v66h186v-214q24 20 104 86q7 7 14 12.5t13 10.5v-87zM239 136l-11 -10q-39 -36 -60.5 -58t-34.5 -42q-12 -20 -17.5 -40 t-5.5 -47q0 -91 67 -91q33 0 47.5 26.5t14.5 68.5v193zM255 580h-59l90 170h89z" glyph-name="uni006A0301"/><glyph d="M404.5 330q38.5 -47 38.5 -134q0 -97 -47.5 -150.5t-126.5 -53.5q-29 0 -64 8v67q32 -9 60 -9q53 0 80 32t27 106q0 63 -26.5 92.5t-80.5 29.5q-22 0 -47 -7v47l133 234q-48 10 -78 10q-55 0 -86 -17t-44 -54t-13 -101v-430h-74v430q0 119 49 178.5t166 59.5q39 0 78 -9 t65 -20v-67l-111 -193v-2q63 0 101.5 -47z" glyph-name="germandbls.calt"/></font>
</defs>
</svg>
