<?xml version="1.0" standalone="no"?>
<!DOCTYPE svg PUBLIC "-//W3C//DTD SVG 1.1//EN" "http://www.w3.org/Graphics/SVG/1.1/DTD/svg11.dtd" >
<svg xmlns="http://www.w3.org/2000/svg" xmlns:xlink="http://www.w3.org/1999/xlink" version="1.1">
<metadata>
Created by FontForge 20201107 at Thu Mar 27 09:21:53 2025
 By www-data
Copyright (c) 2018 by Nikola &#38; Zoran Kostic. All rights reserved.
</metadata>
<defs>
<font id="Monotalic-NarrowMedium" horiz-adv-x="480" >
  <font-face 
    font-family="Monotalic Narrow Medium"
    font-weight="500"
    font-stretch="condensed"
    units-per-em="1000"
    panose-1="0 0 6 6 0 0 0 0 0 0"
    ascent="800"
    descent="-200"
    x-height="500"
    cap-height="660"
    bbox="-480 -395 582 1032"
    underline-thickness="50"
    underline-position="-100"
    unicode-range="U+0020-25CA"
  />
<missing-glyph horiz-adv-x="500" 
d="M410 -210h-317v1000h317v-1000zM168 723v-33h65v-37h-66v-33h166v33h-66v37h66v33h-165zM167 594v-104h166v34h-66v70h-100zM233 524h-33v36h33v-36zM167 463v-33h66v-37h-66v-33h100v70h66v33h-166zM300 403v-66h-133v-34h166v100h-33zM233 281v-56h34v23h33v-47h-100
v80h-33v-113h166v113h-100zM167 108v-113h166v113h-166zM300 28h-100v47h100v-47zM167 -28v-33h70l-70 -47v-33h166v33h-102l70 47h32v33h-166z" />
    <glyph glyph-name=".notdef" horiz-adv-x="500" 
d="M410 -210h-317v1000h317v-1000zM168 723v-33h65v-37h-66v-33h166v33h-66v37h66v33h-165zM167 594v-104h166v34h-66v70h-100zM233 524h-33v36h33v-36zM167 463v-33h66v-37h-66v-33h100v70h66v33h-166zM300 403v-66h-133v-34h166v100h-33zM233 281v-56h34v23h33v-47h-100
v80h-33v-113h166v113h-100zM167 108v-113h166v113h-166zM300 28h-100v47h100v-47zM167 -28v-33h70l-70 -47v-33h166v33h-102l70 47h32v33h-166z" />
    <glyph glyph-name=".null" horiz-adv-x="0" 
 />
    <glyph glyph-name="nonmarkingreturn" horiz-adv-x="333" 
 />
    <glyph glyph-name="space" unicode=" " 
 />
    <glyph glyph-name="space" unicode="&#xa0;" 
 />
    <glyph glyph-name="exclam" unicode="!" 
d="M158 660h164l-51 -416h-62zM173.5 10.5q-24.5 18.5 -24.5 54.5q0 35 24 53.5t67 18.5t67 -18.5t24 -53.5q0 -36 -24.5 -54.5t-66.5 -18.5t-66.5 18.5z" />
    <glyph glyph-name="quotedbl" unicode="&#x22;" 
d="M64 523q-13 98 -13 106q0 39 73 39t73 -39q0 -8 -13 -106q-19 -135 -26 -205h-68q-7 70 -26 205zM296 523q-13 98 -13 106q0 39 73 39t73 -39q0 -8 -13 -106q-19 -135 -26 -205h-68q-7 70 -26 205z" />
    <glyph glyph-name="numbersign" unicode="#" 
d="M378 416l-18 -172h90v-84h-100l-17 -160h-84l17 160h-90l-17 -160h-84l17 160h-62v84h72l18 172h-90v84h100l17 160h84l-17 -160h90l17 160h84l-17 -160h62v-84h-72zM294 416h-90l-18 -172h90z" />
    <glyph glyph-name="dollar" unicode="$" 
d="M400 55q-45 -52 -133 -61v-144h-56v142q-51 3 -93.5 14t-60.5 22v112q21 -14 64 -27.5t90 -16.5v191l-43 17q-70 27 -101.5 67.5t-31.5 99.5q0 85 44.5 135t131.5 60v134h56v-132q43 -1 83 -10t58 -19v-108q-23 11 -61.5 21t-79.5 12v-180l42 -17q67 -26 101.5 -66
t34.5 -116q0 -78 -45 -130zM164.5 437.5q13.5 -17.5 46.5 -31.5v153q-60 -14 -60 -74q0 -30 13.5 -47.5zM329 185q0 29 -14 47.5t-48 32.5v-165q62 15 62 85z" />
    <glyph glyph-name="percent" unicode="%" 
d="M42.5 400.5q-35.5 42.5 -35.5 112.5t35.5 112.5t89.5 42.5t89.5 -43t35.5 -112t-35.5 -112t-89.5 -43t-89.5 42.5zM80 0h-80l400 660h80zM163 513q0 71 -31 71t-31 -71t31 -71t31 71zM259.5 35q-35.5 43 -35.5 112q0 71 34.5 113t90.5 42q54 0 89.5 -43t35.5 -112
t-35.5 -112t-89.5 -43t-89.5 43zM380 147q0 71 -31 71q-17 0 -24 -16t-7 -55q0 -71 31 -71t31 71z" />
    <glyph glyph-name="ampersand" unicode="&#x26;" 
d="M416 294v-153q0 -45 30 -45q8 0 20 3v-99q-19 -8 -53 -8q-50 0 -77 29q-44 -29 -106 -29q-69 0 -117 27.5t-71.5 72.5t-23.5 97q0 68 25.5 113t83.5 67v3q-33 8 -53.5 37t-20.5 77t21 89.5t64 67t107 25.5q31 0 59 -6t44 -13v-106q-16 8 -39.5 14.5t-47.5 6.5
q-46 0 -69 -25t-23 -68q0 -37 21 -60t65 -23l215 -1v-93h-54zM300 141v153h-65q-55 0 -78 -27.5t-23 -71.5q0 -39 26 -69t80 -30q34 0 61 16q-1 9 -1 29z" />
    <glyph glyph-name="quotesingle" unicode="'" 
d="M180 523q-13 98 -13 106q0 39 73 39t73 -39q0 -8 -13 -106q-19 -135 -26 -205h-68q-7 70 -26 205z" />
    <glyph glyph-name="parenleft" unicode="(" 
d="M189.5 546q40.5 138 131.5 254h101q-102 -117 -145.5 -254t-43.5 -276q0 -136 43.5 -274t145.5 -256h-101q-91 116 -131.5 254t-40.5 276t40.5 276z" />
    <glyph glyph-name="parenright" unicode=")" 
d="M319.5 -6q-40.5 -138 -131.5 -254h-101q102 118 145.5 256t43.5 274q0 139 -43.5 276t-145.5 254h101q91 -116 131.5 -254t40.5 -276t-40.5 -276z" />
    <glyph glyph-name="asterisk" unicode="*" 
d="M310 399l84 -175l-75 -39l-78 157l-78 -157l-75 39l84 175l-137 50l29 78l134 -48v181h85v-182l135 49l29 -78z" />
    <glyph glyph-name="plus" unicode="+" 
d="M425 258h-143v-222h-84v222h-143v84h143v222h84v-222h143v-84z" />
    <glyph glyph-name="comma" unicode="," 
d="M116 -134q154 28 154 149q0 19 -4 30h-3q-4 -26 -18.5 -39.5t-37.5 -13.5q-31 0 -50 16.5t-19 50.5q0 37 26 57.5t69 20.5q57 0 88 -38.5t31 -95.5q0 -89 -63.5 -148t-172.5 -73v84z" />
    <glyph glyph-name="hyphen" unicode="-" 
d="M369 342v-84h-258v84h258z" />
    <glyph glyph-name="hyphen" unicode="&#xad;" 
d="M369 342v-84h-258v84h258z" />
    <glyph glyph-name="period" unicode="." 
d="M173.5 10.5q-24.5 18.5 -24.5 54.5q0 35 24 53.5t67 18.5t67 -18.5t24 -53.5q0 -36 -24.5 -54.5t-66.5 -18.5t-66.5 18.5z" />
    <glyph glyph-name="slash" unicode="/" 
d="M152 -260h-87l263 1060h87z" />
    <glyph glyph-name="zero" unicode="0" 
d="M406 586.5q56 -81.5 56 -256.5t-56 -256.5t-166 -81.5t-166 81.5t-56 256.5t56 256.5t166 81.5t166 -81.5zM160.5 510.5q-26.5 -53.5 -26.5 -180.5q0 -55 4 -90l179 276q-25 48 -77 48q-53 0 -79.5 -53.5zM319.5 150q26.5 54 26.5 180q0 59 -6 102l-181 -280
q25 -56 81 -56q53 0 79.5 54z" />
    <glyph glyph-name="one" unicode="1" 
d="M429 104v-104h-378v104h155v409l-128 -105v117l164 135h80v-556h107z" />
    <glyph glyph-name="two" unicode="2" 
d="M445 104v-104h-410v104q124 116 183 182.5t77 106.5t18 84q0 39 -23 63t-66 24q-46 0 -84.5 -14t-88.5 -43v114q90 47 177 47q99 0 150 -54.5t51 -136.5q0 -55 -15 -101.5t-59.5 -104.5t-130.5 -139q-13 -12 -39 -26v-2h260z" />
    <glyph glyph-name="three" unicode="3" 
d="M302 378q74 0 115.5 -45t41.5 -116q0 -105 -62 -165t-170 -60q-56 0 -105.5 15t-85.5 35v113q42 -27 91 -44t97 -17q58 0 89 29t31 87q0 48 -31 73.5t-88 25.5q-25 0 -51 -4t-41 -10v75l196 188h-291v102h405v-119l-171 -163v-2q20 2 30 2z" />
    <glyph glyph-name="four" unicode="4" 
d="M464 152h-71v-152h-116v152h-259v104l199 404h176v-404h71v-104zM277 256v315l-156 -315h156z" />
    <glyph glyph-name="five" unicode="5" 
d="M405 353q54 -54 54 -139q0 -62 -26.5 -112.5t-79.5 -80t-131 -29.5q-56 0 -106.5 16.5t-83.5 39.5v115q39 -30 90 -48.5t99 -18.5q63 0 93 32t30 84q0 47 -28 75t-80 28q-42 0 -81.5 -14t-65.5 -35l-53 55l26 339h373v-104h-274l-13 -168q52 19 101 19q102 0 156 -54z
" />
    <glyph glyph-name="six" unicode="6" 
d="M414 348.5q48 -54.5 48 -133.5q0 -105 -56.5 -164t-151.5 -59q-113 0 -174.5 86t-61.5 263q0 147 62.5 237t197.5 90q82 0 146 -31v-111q-42 21 -73.5 29.5t-67.5 8.5q-149 0 -149 -218q0 -32 1 -46h4q5 50 40 76.5t91 26.5q96 0 144 -54.5zM323 126q23 30 23 83
q0 45 -23 72.5t-76 27.5q-39 0 -65 -25t-37 -70q12 -62 39 -90t70 -28q46 0 69 30z" />
    <glyph glyph-name="seven" unicode="7" 
d="M452 660v-104l-255 -556h-136l270 556h-315v104h436z" />
    <glyph glyph-name="eight" unicode="8" 
d="M438 284.5q24 -37.5 24 -101.5q0 -86 -57 -138.5t-165 -52.5t-165 52.5t-57 138.5q0 61 28.5 100.5t77.5 45.5v8q-44 26 -64.5 62.5t-20.5 94.5q0 48 22.5 87.5t68 63t110.5 23.5t110.5 -23.5t68 -64t22.5 -89.5q0 -54 -22 -84.5t-71 -43.5v-9h-1q67 -32 91 -69.5z
M178 542.5q-23 -21.5 -23 -52.5q0 -26 17 -48.5t37 -30.5l53 -21q63 37 63 97q0 34 -22.5 55.5t-62.5 21.5q-39 0 -62 -21.5zM320 121.5q26 25.5 26 63.5q0 32 -15 50.5t-57 35.5l-74 30q-37 -15 -51.5 -42t-14.5 -70q0 -39 26 -66t80 -27t80 25.5z" />
    <glyph glyph-name="nine" unicode="9" 
d="M402 589.5q60 -78.5 60 -240.5q0 -180 -67 -268.5t-205 -88.5q-68 0 -140 26v108q82 -30 140 -30q80 0 118 58.5t38 189.5v10h-5q-2 -48 -33.5 -77.5t-86.5 -29.5q-98 0 -150.5 56t-52.5 143q0 101 54.5 161.5t160.5 60.5q109 0 169 -78.5zM338 453q-12 59 -38 85t-67 26
q-51 0 -75 -30t-24 -83q0 -55 25 -82.5t69 -27.5q88 0 110 112z" />
    <glyph glyph-name="colon" unicode=":" 
d="M173.5 351.5q-24.5 18.5 -24.5 54.5q0 35 24 53.5t67 18.5t67 -18.5t24 -53.5q0 -36 -24.5 -54.5t-66.5 -18.5t-66.5 18.5zM173.5 10.5q-24.5 18.5 -24.5 54.5q0 35 24 53.5t67 18.5t67 -18.5t24 -53.5q0 -36 -24.5 -54.5t-66.5 -18.5t-66.5 18.5z" />
    <glyph glyph-name="semicolon" unicode=";" 
d="M116 -134q154 28 154 149q0 19 -4 30h-3q-4 -26 -18.5 -39.5t-37.5 -13.5q-31 0 -50 16.5t-19 50.5q0 37 26 57.5t69 20.5q57 0 88 -38.5t31 -95.5q0 -89 -63.5 -148t-172.5 -73v84zM173.5 351.5q-24.5 18.5 -24.5 54.5q0 35 24 53.5t67 18.5t67 -18.5t24 -53.5
q0 -36 -24.5 -54.5t-66.5 -18.5t-66.5 18.5z" />
    <glyph glyph-name="less" unicode="&#x3c;" 
d="M408 -8l-336 279v58l336 279v-107l-241 -200v-2l241 -200v-107z" />
    <glyph glyph-name="equal" unicode="=" 
d="M425 442v-84h-370v84h370zM425 242v-84h-370v84h370z" />
    <glyph glyph-name="greater" unicode="&#x3e;" 
d="M313 299v2l-241 200v107l336 -279v-58l-336 -279v107z" />
    <glyph glyph-name="question" unicode="?" 
d="M88 649q27 8 62.5 13.5t70.5 5.5q95 0 148.5 -52t53.5 -136q0 -82 -34 -125.5t-101 -43.5q-27 0 -60 5v-72h-94v141h74q53 0 77 18.5t24 72.5q0 45 -21.5 71.5t-66.5 26.5q-34 0 -71 -6.5t-62 -15.5v97zM115.5 10.5q-24.5 18.5 -24.5 54.5q0 35 24 53.5t67 18.5t67 -18.5
t24 -53.5q0 -36 -24.5 -54.5t-66.5 -18.5t-66.5 18.5z" />
    <glyph glyph-name="at" unicode="@" 
d="M372 386v19q0 58 -25 88.5t-81 30.5q-72 0 -119.5 -50t-47.5 -201q0 -275 197 -275q38 0 79 8.5t69 21.5v-78q-58 -28 -148 -28q-130 0 -201.5 91t-71.5 260q0 180 69 253.5t174 73.5q89 0 140.5 -53.5t51.5 -158.5v-82q0 -98 -39 -143t-106 -45q-73 0 -109 42.5
t-36 107.5q0 60 32.5 98t94.5 38q26 0 42.5 -4.5t33.5 -13.5h1zM372 338h-58q-31 0 -45.5 -17.5t-14.5 -52.5q0 -31 13 -52.5t46 -21.5q28 0 43.5 21t15.5 75v48z" />
    <glyph glyph-name="A" unicode="A" 
d="M327 156h-174l-31 -156h-120l132 660h212l132 -660h-120zM309 250l-58 294h-22l-58 -294h138z" />
    <glyph glyph-name="B" unicode="B" 
d="M455 202q0 -107 -53.5 -154.5t-155.5 -47.5h-211v660h209q94 0 142 -48.5t48 -127.5q0 -96 -70 -136q91 -35 91 -146zM151 556v-174h83q84 0 84 91q0 49 -20.5 66t-53.5 17h-93zM298 111.5q20 7.5 30.5 29.5t10.5 65q0 54 -28.5 73t-76.5 19h-83v-194h93q34 0 54 7.5z
" />
    <glyph glyph-name="B" unicode="&#xe000;" 
d="M455 202q0 -107 -53.5 -154.5t-155.5 -47.5h-211v660h209q94 0 142 -48.5t48 -127.5q0 -96 -70 -136q91 -35 91 -146zM151 556v-174h83q84 0 84 91q0 49 -20.5 66t-53.5 17h-93zM298 111.5q20 7.5 30.5 29.5t10.5 65q0 54 -28.5 73t-76.5 19h-83v-194h93q34 0 54 7.5z
" />
    <glyph glyph-name="C" unicode="C" 
d="M91 582.5q71 85.5 203 85.5q86 0 140 -33v-119q-29 23 -67 35.5t-73 12.5q-76 0 -117 -58t-41 -176q0 -234 160 -234q41 0 83 14.5t66 33.5v-115q-17 -13 -59.5 -25t-91.5 -12q-141 0 -207.5 88t-66.5 250q0 167 71 252.5z" />
    <glyph glyph-name="D" unicode="D" 
d="M35 660h197q116 0 173 -80.5t57 -247.5q0 -178 -55.5 -255t-167.5 -77h-204v660zM237 104q57 0 83 53t26 175q0 112 -28 168t-88 56h-79v-452h86z" />
    <glyph glyph-name="E" unicode="E" 
d="M455 104v-104h-410v660h396v-104h-280v-169h266v-94h-266v-189h294z" />
    <glyph glyph-name="E" unicode="&#xe001;" 
d="M455 104v-104h-410v660h396v-104h-280v-169h266v-94h-266v-189h294z" />
    <glyph glyph-name="F" unicode="F" 
d="M161 556v-198h259v-94h-259v-264h-116v660h410v-104h-294z" />
    <glyph glyph-name="G" unicode="G" 
d="M445 351v-313q-24 -19 -67 -32.5t-103 -13.5q-132 0 -194.5 90.5t-62.5 247.5q0 165 67 251.5t200 86.5q49 0 87.5 -10.5t60.5 -24.5v-115q-30 21 -69 33.5t-79 12.5q-79 0 -115 -56.5t-36 -177.5q0 -117 35 -175.5t118 -58.5q24 0 50 8v153h-97v94h205z" />
    <glyph glyph-name="H" unicode="H" 
d="M445 660v-660h-116v298h-178v-298h-116v660h116v-258h178v258h116z" />
    <glyph glyph-name="I" unicode="I" 
d="M298 556v-452h98v-104h-312v104h98v452h-98v104h312v-104h-98z" />
    <glyph glyph-name="J" unicode="J" 
d="M22 320h112v-80q0 -77 24.5 -110.5t74.5 -33.5t73 40t23 144v380h116v-380q0 -110 -25.5 -173.5t-72 -89t-114.5 -25.5q-103 0 -159 57t-56 191q0 40 4 80z" />
    <glyph glyph-name="K" unicode="K" 
d="M181 278h-30v-278h-116v660h116v-278h29l154 278h129l-182 -323l199 -337h-136z" />
    <glyph glyph-name="L" unicode="L" 
d="M455 114v-114h-390v660h116v-546h274z" />
    <glyph glyph-name="M" unicode="M" 
d="M35 660h128l73 -263h8l73 263h128v-660h-110v213l20 271l-7 1l-76 -265h-64l-76 265l-7 -1l20 -271v-213h-110v660z" />
    <glyph glyph-name="N" unicode="N" 
d="M445 660v-660h-116l-189 471l11 -471h-116v660h129l175 -438l-10 438h116z" />
    <glyph glyph-name="O" unicode="O" 
d="M74 73.5q-56 81.5 -56 256.5t56 256.5t166 81.5t166 -81.5t56 -256.5t-56 -256.5t-166 -81.5t-166 81.5zM346 330q0 234 -106 234q-52 0 -79 -56.5t-27 -177.5t27 -177.5t79 -56.5q106 0 106 234z" />
    <glyph glyph-name="P" unicode="P" 
d="M411.5 602.5q50.5 -57.5 50.5 -179.5q0 -108 -49.5 -167.5t-147.5 -59.5h-104v-196h-116v660h201q115 0 165.5 -57.5zM325 325.5q21 35.5 21 93.5q0 79 -24 108t-78 29h-83v-266h103q40 0 61 35.5z" />
    <glyph glyph-name="Q" unicode="Q" 
d="M386 48l66 -148h-121l-42 96q-20 -4 -49 -4q-110 0 -166 81.5t-56 256.5t56 256.5t166 81.5t166 -81.5t56 -256.5q0 -201 -76 -282zM161 152.5q27 -56.5 79 -56.5q106 0 106 234t-106 234q-52 0 -79 -56.5t-27 -177.5t27 -177.5z" />
    <glyph glyph-name="R" unicode="R" 
d="M244 248h-93v-248h-116v660h202q105 0 156.5 -49t51.5 -157q0 -135 -82 -181l110 -273h-129zM151 334h77q101 0 101 110q0 62 -23 87t-83 25h-72v-222z" />
    <glyph glyph-name="S" unicode="S" 
d="M90 616.5q55 51.5 162 51.5q47 0 91.5 -9t64.5 -20v-108q-26 12 -68 22.5t-86 10.5q-103 0 -103 -79q0 -32 16.5 -50.5t57.5 -34.5l84 -33q67 -26 101.5 -66t34.5 -116q0 -86 -55 -139.5t-160 -53.5q-56 0 -104 12t-69 24v112q24 -15 71.5 -29.5t99.5 -14.5q101 0 101 89
q0 31 -16 50t-55 34l-90 35q-70 27 -101.5 67.5t-31.5 99.5q0 94 55 145.5z" />
    <glyph glyph-name="S" unicode="&#xe002;" 
d="M90 616.5q55 51.5 162 51.5q47 0 91.5 -9t64.5 -20v-108q-26 12 -68 22.5t-86 10.5q-103 0 -103 -79q0 -32 16.5 -50.5t57.5 -34.5l84 -33q67 -26 101.5 -66t34.5 -116q0 -86 -55 -139.5t-160 -53.5q-56 0 -104 12t-69 24v112q24 -15 71.5 -29.5t99.5 -14.5q101 0 101 89
q0 31 -16 50t-55 34l-90 35q-70 27 -101.5 67.5t-31.5 99.5q0 94 55 145.5z" />
    <glyph glyph-name="T" unicode="T" 
d="M470 556h-172v-556h-116v556h-172v104h460v-104z" />
    <glyph glyph-name="U" unicode="U" 
d="M35 660h116v-409q0 -61 9.5 -94t28.5 -46t51 -13t51 13t28.5 46t9.5 94v409h116v-403q0 -143 -54.5 -204t-150.5 -61t-150.5 61t-54.5 204v403z" />
    <glyph glyph-name="V" unicode="V" 
d="M480 660l-135 -660h-210l-135 660h118l111 -544h22l111 544h118z" />
    <glyph glyph-name="W" unicode="W" 
d="M113 660l22 -367l-5 -139h13l65 256h64l65 -256h13l-5 139l22 367h113l-50 -660h-131l-56 218h-6l-56 -218h-131l-50 660h113z" />
    <glyph glyph-name="X" unicode="X" 
d="M350 0l-118 232l-107 -232h-125l173 347l-160 313h130l105 -206l97 206h122l-161 -319l174 -341h-130z" />
    <glyph glyph-name="Y" unicode="Y" 
d="M480 660l-182 -428v-232h-116v232l-182 428h125l112 -288h6l112 288h125z" />
    <glyph glyph-name="Z" unicode="Z" 
d="M45 81l252 475h-245v104h384v-82l-252 -474h252v-104h-391v81z" />
    <glyph glyph-name="bracketleft" unicode="[" 
d="M197 756v-972h197v-84h-291v1140h291v-84h-197z" />
    <glyph glyph-name="backslash" unicode="\" 
d="M152 800l263 -1060h-87l-263 1060h87z" />
    <glyph glyph-name="bracketright" unicode="]" 
d="M377 -300h-291v84h197v972h-197v84h291v-1140z" />
    <glyph glyph-name="asciicircum" unicode="^" 
d="M241 550h-2l-107 -250h-90l158 360h80l158 -360h-90z" />
    <glyph glyph-name="underscore" unicode="_" 
d="M460 -84v-84h-440v84h440z" />
    <glyph glyph-name="a" unicode="a" 
d="M464 99v-99q-18 -8 -55 -8q-91 0 -105 99h-3q-7 -49 -35.5 -74t-86.5 -25q-68 0 -107.5 42.5t-39.5 115.5q0 76 45.5 116t118.5 40q37 0 59 -5.5t44 -14.5h2v17q0 54 -25.5 77.5t-90.5 23.5q-41 0 -78 -8t-59 -17l-1 105q22 9 61 16.5t79 7.5q122 0 176 -51t54 -154v-154
q0 -30 6 -41.5t20 -11.5q9 0 21 3zM301 159v61h-89q-30 0 -47 -16t-17 -44t15.5 -46t46.5 -18q65 0 91 63z" />
    <glyph glyph-name="b" unicode="b" 
d="M404.5 440.5q43.5 -67.5 43.5 -184.5q0 -83 -23.5 -142.5t-63 -90.5t-86.5 -31q-93 0 -106 96h-4l-16 -88h-89v750h116v-220l-6 -111h5q7 45 34.5 67t69.5 22q82 0 125.5 -67.5zM310.5 136.5q21.5 40.5 21.5 118.5q0 72 -21.5 110.5t-60.5 38.5q-51 0 -74 -54v-200
q24 -54 75 -54q38 0 59.5 40.5z" />
    <glyph glyph-name="b" unicode="&#xe003;" 
d="M404.5 440.5q43.5 -67.5 43.5 -184.5q0 -83 -23.5 -142.5t-63 -90.5t-86.5 -31q-93 0 -106 96h-4l-16 -88h-89v750h116v-220l-6 -111h5q7 45 34.5 67t69.5 22q82 0 125.5 -67.5zM310.5 136.5q21.5 40.5 21.5 118.5q0 72 -21.5 110.5t-60.5 38.5q-51 0 -74 -54v-200
q24 -54 75 -54q38 0 59.5 40.5z" />
    <glyph glyph-name="c" unicode="c" 
d="M107 441q65 67 176 67q85 0 140 -35v-117q-63 48 -138 48q-127 0 -127 -154q0 -77 36.5 -115.5t93.5 -38.5q50 0 90 16.5t66 39.5v-115q-19 -15 -60.5 -30t-99.5 -15q-120 0 -181 71.5t-61 186.5q0 124 65 191z" />
    <glyph glyph-name="d" unicode="d" 
d="M461.5 97.5q5.5 1.5 8.5 1.5v-99q-18 -8 -50 -8q-48 0 -75 22t-36 67h-3q-5 -44 -29 -66.5t-62 -22.5q-55 0 -96.5 31.5t-64 89t-22.5 134.5q0 80 24.5 139t66 90.5t91.5 31.5q78 0 92 -85h7l-9 107v220h116v-601q0 -29 6.5 -41t24.5 -12q5 0 10.5 1.5zM304 144v222
q-12 20 -29.5 29t-37.5 9q-42 0 -65.5 -40.5t-23.5 -115.5q0 -152 92 -152q38 0 64 48z" />
    <glyph glyph-name="e" unicode="e" 
d="M448 205h-298q8 -57 37 -83t87 -26q86 0 150 25v-103q-65 -26 -152 -26q-125 0 -182.5 66.5t-57.5 191.5q0 128 59.5 193t158.5 65q94 0 146 -59t52 -182v-62zM336 291q0 63 -22 88t-64 25q-43 0 -68.5 -24.5t-31.5 -88.5h186z" />
    <glyph glyph-name="f" unicode="f" 
d="M456 396h-219q97 -62 140.5 -162.5t43.5 -210.5q0 -107 -42 -164t-122 -57q-50 0 -82.5 25.5t-50 89.5t-17.5 177q0 141 10 278q-44 17 -97 24v104h107q14 147 36 292q60 -6 84 -28t24 -58q0 -30 -10 -76t-33 -128v-2h228v-104zM224 301q-1 -80 -1 -207q0 -80 3.5 -120
t11.5 -54t22 -14q22 0 37.5 25.5t15.5 91.5q0 181 -89 278z" />
    <glyph glyph-name="g" unicode="g" 
d="M420 500v-501q0 -112 -56 -164.5t-152 -52.5q-30 0 -65.5 6.5t-63.5 18.5l-1 109q67 -30 121 -30q51 0 76 26t25 87v1l12 85h-6q-19 -93 -92 -93q-90 0 -138 68.5t-48 186.5q0 80 24.5 139t66 90.5t91.5 31.5q45 0 71 -24.5t29 -64.5h5l23 81h78zM304 128v231
q-12 24 -27.5 34.5t-36.5 10.5q-44 0 -68 -40t-24 -116q0 -152 97 -152q36 0 59 32z" />
    <glyph glyph-name="h" unicode="h" 
d="M470 99v-99q-18 -8 -54 -8q-65 0 -88.5 34t-23.5 98v203q0 40 -13.5 58.5t-46.5 18.5q-24 0 -40 -8.5t-28 -30.5v-365h-116v750h116v-230l-6 -111h3q8 52 30 75.5t78 23.5q74 0 106.5 -46t32.5 -124v-189q0 -26 5.5 -39.5t24.5 -13.5q11 0 20 3z" />
    <glyph glyph-name="i" unicode="i" 
d="M166.5 605q-24.5 19 -24.5 54t24 54t67 19t67 -19t24 -54t-24.5 -54t-66.5 -19t-66.5 19zM467 103v-100q-7 -4 -25.5 -7.5t-37.5 -3.5q-150 0 -203 143q-25 -62 -69 -135h-122q77 116 113.5 195t51.5 153v152h116v-178q0 -121 31 -173.5t91 -52.5q33 0 54 7z" />
    <glyph glyph-name="j" unicode="j" 
d="M199.5 605q-24.5 19 -24.5 54t24 54t67 19t67 -19t24 -54t-24.5 -54t-66.5 -19t-66.5 19zM458 294q-46 -39 -115 -98v-210q0 -106 -41.5 -155t-116.5 -49t-118 45.5t-43 113.5q0 37 10.5 69t29.5 56q31 40 125 122l38 33v175h-133v104h249v-182q24 20 45.5 38.5
t40.5 34.5l29 25v-122zM218.5 -91q8.5 23 8.5 76v111q-51 -48 -66 -71q-12 -19 -16.5 -37t-4.5 -39q0 -30 11.5 -46.5t33.5 -16.5q25 0 33.5 23z" />
    <glyph glyph-name="k" unicode="k" 
d="M189 200h-13v-200h-116v750h116v-446h12l127 196h135l-162 -245l192 -255h-147z" />
    <glyph glyph-name="l" unicode="l" 
d="M466 99v-101q-20 -6 -53 -6q-60 0 -112.5 25t-93.5 72q-17 -29 -57 -89h-132q66 92 127 186q-65 135 -65 336q0 132 39.5 185t113.5 53q75 0 113 -50t38 -155q0 -62 -9 -112.5t-34 -110.5t-73 -143q60 -93 155 -93q27 0 43 3zM218 310q37 72 47.5 121.5t10.5 117.5
q0 62 -11 84.5t-32 22.5t-30 -30t-9 -104q0 -122 24 -212z" />
    <glyph glyph-name="m" unicode="m" 
d="M446 472.5q20 -35.5 20 -110.5v-362h-108v355q0 29 -6.5 42t-24.5 13q-21 0 -34 -20q1 -9 1 -28v-362h-108v355q0 29 -6.5 42t-24.5 13q-20 0 -33 -20v-390h-108v500h68l30 -68h4q7 43 31 59.5t56 16.5q36 0 56.5 -18t28.5 -58h3q14 76 84 76q51 0 71 -35.5z" />
    <glyph glyph-name="n" unicode="n" 
d="M470 99v-99q-18 -8 -54 -8q-65 0 -88.5 34t-23.5 98v203q0 40 -13.5 58.5t-46.5 18.5q-49 0 -68 -42v-362h-116v500h68l39 -82h5q8 90 109 90q74 0 106.5 -46t32.5 -124v-189q0 -26 5.5 -39.5t24.5 -13.5q11 0 20 3z" />
    <glyph glyph-name="o" unicode="o" 
d="M87 62.5q-55 70.5 -55 187.5t55 187.5t153 70.5t153 -71t55 -187t-55 -187t-153 -71t-153 70.5zM309.5 138q22.5 42 22.5 112t-22.5 112t-69.5 42t-69.5 -42t-22.5 -112t22.5 -112t69.5 -42t69.5 42z" />
    <glyph glyph-name="p" unicode="p" 
d="M403 440q45 -68 45 -184q0 -125 -48 -194.5t-130 -69.5q-41 0 -68.5 23.5t-39.5 69.5h-5l19 -118v-177h-116v710h68l36 -81h5q5 41 34 65t77 24q78 0 123 -68zM310.5 136.5q21.5 40.5 21.5 118.5q0 72 -22.5 110.5t-63.5 38.5q-46 0 -70 -45v-200q24 -63 76 -63
q37 0 58.5 40.5z" />
    <glyph glyph-name="q" unicode="q" 
d="M420 500v-710h-116v181l11 114h-6q-6 -51 -30.5 -72t-63.5 -21q-88 0 -135.5 68.5t-47.5 186.5q0 80 24.5 139t65.5 90.5t90 31.5q46 0 70.5 -25t25.5 -64h4l22 81h86zM304 133v221q-18 50 -64 50q-44 0 -68 -40t-24 -116q0 -75 23 -113.5t69 -38.5q43 0 64 37z" />
    <glyph glyph-name="r" unicode="r" 
d="M472 102v-104q-14 -6 -41 -6q-46 0 -84.5 22t-62 67.5t-23.5 112.5q0 101 56 197v5h-132q-11 -180 -41 -396h-134q28 121 47 235t24 195q-20 13 -31.5 35t-11.5 49q0 37 26.5 64.5t76.5 27.5q29 0 51 -6q0 -32 -2 -100h243v-104q-21 -22 -38.5 -67.5t-17.5 -95.5
q0 -68 20.5 -100.5t55.5 -32.5q11 0 19 2z" />
    <glyph glyph-name="s" unicode="s" 
d="M88 465q56 43 153 43q58 0 100.5 -9t64.5 -20v-104q-63 29 -163 29q-44 0 -69.5 -13.5t-25.5 -40.5q0 -19 16 -30t58 -18l66 -10q86 -13 123 -47t37 -95q0 -77 -56.5 -117.5t-160.5 -40.5q-64 0 -110.5 11.5t-67.5 24.5v104q24 -13 69 -24.5t107 -11.5q103 0 103 54
q0 22 -18 31.5t-57 15.5l-61 9q-83 12 -123.5 43t-40.5 101q0 72 56 115z" />
    <glyph glyph-name="s" unicode="&#xe004;" 
d="M88 465q56 43 153 43q58 0 100.5 -9t64.5 -20v-104q-63 29 -163 29q-44 0 -69.5 -13.5t-25.5 -40.5q0 -19 16 -30t58 -18l66 -10q86 -13 123 -47t37 -95q0 -77 -56.5 -117.5t-160.5 -40.5q-64 0 -110.5 11.5t-67.5 24.5v104q24 -13 69 -24.5t107 -11.5q103 0 103 54
q0 22 -18 31.5t-57 15.5l-61 9q-83 12 -123.5 43t-40.5 101q0 72 56 115z" />
    <glyph glyph-name="t" unicode="t" 
d="M238 396v-159q0 -56 11 -86t35 -42.5t66 -12.5q21 0 48.5 4.5t44.5 9.5v-101q-12 -5 -42.5 -11t-50.5 -6q-84 0 -133.5 22.5t-72 75.5t-22.5 147v159h-111v104h111v132h116v-132h217v-104h-217z" />
    <glyph glyph-name="u" unicode="u" 
d="M470 99v-99q-18 -8 -53 -8q-86 0 -107 87h-3q-5 -42 -31.5 -64.5t-69.5 -22.5q-69 0 -107 50.5t-38 146.5v207h-49v104h165v-283q0 -64 12 -92.5t49 -28.5q47 0 66 57v347h116v-351q0 -29 6.5 -41t24.5 -12q7 0 19 3z" />
    <glyph glyph-name="v" unicode="v" 
d="M470 500l-120 -500h-192l-87 396h-61v104h157l84 -386h7l92 386h120z" />
    <glyph glyph-name="w" unicode="w" 
d="M115 500l20 -270l-2 -124h6l60 282h82l60 -282h6l-2 124l20 270h115l-60 -500h-133l-46 234h-2l-46 -234h-133l-60 500h115z" />
    <glyph glyph-name="w" unicode="&#xe005;" 
d="M115 500l20 -270l-2 -124h6l60 282h82l60 -282h6l-2 124l20 270h115l-60 -500h-133l-46 234h-2l-46 -234h-133l-60 500h115z" />
    <glyph glyph-name="x" unicode="x" 
d="M341 0l-106 162l-99 -162h-136l170 261l-157 239h139l95 -145l87 145h133l-155 -244l168 -256h-139z" />
    <glyph glyph-name="y" unicode="y" 
d="M480 500l-119 -480q-20 -80 -41.5 -129t-62.5 -79t-110 -30q-20 0 -47 4.5t-46 10.5l-1 105q44 -16 80 -16q31 0 49.5 10t31.5 34t25 70h-78l-85 396h-66v104h164l83 -402h6l97 402h120z" />
    <glyph glyph-name="y" unicode="&#xe006;" 
d="M480 500l-119 -480q-20 -80 -41.5 -129t-62.5 -79t-110 -30q-20 0 -47 4.5t-46 10.5l-1 105q44 -16 80 -16q31 0 49.5 10t31.5 34t25 70h-78l-85 396h-66v104h164l83 -402h6l97 402h120z" />
    <glyph glyph-name="z" unicode="z" 
d="M29 94l264 302h-257v104h409v-94l-264 -302h271v-104h-423v94z" />
    <glyph glyph-name="braceleft" unicode="{" 
d="M267 680.5q-16 -16.5 -16 -44.5q0 -17 7 -35t21 -48q18 -37 27 -63.5t9 -55.5q0 -50 -32 -93t-104 -70v-2q72 -27 104 -70t32 -93q0 -29 -9 -55.5t-27 -63.5q-14 -30 -21 -48t-7 -35q0 -30 16.5 -45.5t56.5 -21.5l103 -15v-80l-114 18q-72 11 -108 46t-36 89q0 29 9 56
t26 63q15 33 22 53.5t7 41.5q0 30 -17 57.5t-50 45t-80 17.5h-44v82h44q47 0 80 17.5t50 45t17 57.5q0 21 -7 41.5t-22 53.5q-17 36 -26 63t-9 56q0 54 36 89t108 46l114 18v-80l-103 -15q-41 -6 -57 -22.5z" />
    <glyph glyph-name="bar" unicode="|" 
d="M282 780v-930h-84v930h84z" />
    <glyph glyph-name="braceright" unicode="}" 
d="M438 311v-82h-44q-47 0 -80 -17.5t-50 -45t-17 -57.5q0 -21 7 -41.5t22 -53.5q17 -36 26 -63t9 -56q0 -54 -36 -89t-108 -46l-114 -18v80l103 15q40 6 56.5 21.5t16.5 45.5q0 17 -7 35t-21 48q-18 37 -27 63.5t-9 55.5q0 50 32 93t104 70v2q-72 27 -104 70t-32 93
q0 29 9 55.5t27 63.5q14 30 21 48t7 35q0 28 -16 44.5t-57 22.5l-103 15v80l114 -18q72 -11 108 -46t36 -89q0 -29 -9 -56t-26 -63q-15 -33 -22 -53.5t-7 -41.5q0 -30 17 -57.5t50 -45t80 -17.5h44z" />
    <glyph glyph-name="asciitilde" unicode="~" 
d="M274.5 212q-23.5 14 -47.5 40l-27 30q-4 5 -13 15.5t-17.5 15.5t-19.5 5q-16 0 -23 -25t-7 -91h-84q0 200 117 200q29 0 49.5 -12.5t48.5 -42.5l28 -30q6 -7 14.5 -17t16 -14t19.5 -4q17 0 24 26t7 90h84q0 -200 -117 -200q-29 0 -52.5 14z" />
    <glyph glyph-name="exclamdown" unicode="&#xa1;" 
d="M306.5 456.5q24.5 -18.5 24.5 -54.5q0 -35 -24 -53.5t-67 -18.5t-67 18.5t-24 53.5q0 36 24.5 54.5t66.5 18.5t66.5 -18.5zM322 -193h-164l51 416h62z" />
    <glyph glyph-name="cent" unicode="&#xa2;" 
d="M442 97q-16 -13 -48 -26t-77 -18v-123h-56v123q-108 7 -163.5 77.5t-55.5 179.5q0 117 59 183.5t160 73.5v133h56v-133q32 -3 56 -9.5t40.5 -13t21.5 -8.5v-117q-70 36 -118 43v-304q39 4 71 19t54 35v-115zM186.5 205q28.5 -38 74.5 -46v303q-103 -14 -103 -152
q0 -67 28.5 -105z" />
    <glyph glyph-name="sterling" unicode="&#xa3;" 
d="M459 104v-104h-438v104h25q50 0 84 29.5t34 87.5q0 22 -16 56h-127v66h87q-22 37 -35 72t-13 76q0 46 22.5 86.5t70 65.5t119.5 25q50 0 91 -12t64 -26v-109q-23 15 -67.5 29t-84.5 14q-52 0 -75.5 -20.5t-23.5 -52.5q0 -28 12 -55t35 -66q6 -9 16 -27h150v-66h-119
q10 -30 10 -58q0 -33 -16 -64t-41 -47v-4h236z" />
    <glyph glyph-name="currency" unicode="&#xa4;" 
d="M384 174l66 -104l-70 -48l-53 84q-39 -27 -87 -27t-86 27l-54 -84l-70 48l66 104q-26 55 -26 126q0 74 27 126l-67 103l71 48l53 -83q38 27 86 27t86 -26l54 83l70 -49l-67 -102q27 -54 27 -127q0 -71 -26 -126zM300.5 199.5q23.5 34.5 23.5 100.5t-23.5 100.5
t-60.5 34.5q-36 0 -60 -34t-24 -101t24 -101t60 -34q37 0 60.5 34.5z" />
    <glyph glyph-name="yen" unicode="&#xa5;" 
d="M352 360h107v-66h-135l-26 -62v-24h161v-66h-161v-142h-116v142h-161v66h161v24l-26 62h-135v66h107l-128 300h125l112 -288h6l112 288h125z" />
    <glyph glyph-name="brokenbar" unicode="&#xa6;" 
d="M198 780h84v-390h-84v390zM198 240h84v-390h-84v390z" />
    <glyph glyph-name="section" unicode="&#xa7;" 
d="M434 20q0 -84 -54.5 -129t-162.5 -45q-45 0 -88 7.5t-62 14.5v108q25 -11 71 -18.5t80 -7.5q51 0 75.5 14.5t24.5 47.5q0 19 -16.5 31t-48.5 12h-63q-83 0 -120.5 38.5t-37.5 96.5q0 76 70 101v3q-27 18 -41.5 48.5t-14.5 70.5q0 77 54 117.5t160 40.5q33 0 74.5 -6.5
t57.5 -14.5v-104q-55 21 -128 21q-52 0 -77 -13.5t-25 -44.5q0 -21 16.5 -34t48.5 -13h63q83 0 120.5 -31.5t37.5 -93.5q0 -88 -63 -109v-3q49 -31 49 -105zM252 149q80 0 80 63q0 56 -63 56h-65q-34 0 -45 -18t-11 -45t14 -41.5t49 -14.5h41z" />
    <glyph glyph-name="copyright" unicode="&#xa9;" 
d="M115 33.5q-54 39.5 -83.5 109.5t-29.5 157t29.5 156.5t83.5 109t125 39.5q70 0 124 -40t83.5 -109.5t29.5 -155.5q0 -87 -29.5 -157t-83 -109.5t-124.5 -39.5t-125 39.5zM325.5 96.5q36.5 30.5 56 83.5t19.5 120q0 66 -19.5 119t-56 83.5t-85.5 30.5q-75 0 -118.5 -65.5
t-43.5 -167.5q0 -67 19.5 -120t56 -83.5t86.5 -30.5q49 0 85.5 30.5zM171.5 413.5q31.5 38.5 85.5 38.5q24 0 42.5 -7.5t27.5 -15.5v-76q-31 23 -60 23q-19 0 -30 -16.5t-11 -59.5q0 -42 10.5 -59.5t32.5 -17.5q14 0 32 7.5t31 17.5v-75q-9 -9 -30.5 -17.5t-42.5 -8.5
q-60 0 -89.5 41t-29.5 112q0 75 31.5 113.5z" />
    <glyph glyph-name="guillemotleft" unicode="&#xab;" 
d="M151 504h105l-143 -204l143 -204h-105l-143 204zM369 504h105l-143 -204l143 -204h-105l-143 204z" />
    <glyph glyph-name="logicalnot" unicode="&#xac;" 
d="M425 342v-306h-84v222h-286v84h370z" />
    <glyph glyph-name="registered" unicode="&#xae;" 
d="M364 565q54 -40 83.5 -109.5t29.5 -155.5q0 -87 -29.5 -157t-83 -109.5t-124.5 -39.5t-125 39.5t-83.5 109.5t-29.5 157t29.5 156.5t83.5 109t125 39.5q70 0 124 -40zM325.5 96.5q36.5 30.5 56 83.5t19.5 120q0 66 -19.5 119t-56 83.5t-85.5 30.5q-75 0 -118.5 -65.5
t-43.5 -167.5q0 -67 19.5 -120t56 -83.5t86.5 -30.5q49 0 85.5 30.5zM348 155h-82l-40 97v-97h-76v289h96q44 0 70 -24.5t26 -70.5q0 -56 -40 -79zM226 378v-63h13q14 0 20.5 6.5t6.5 25.5q0 15 -7 23t-20 8h-13z" />
    <glyph glyph-name="degree" unicode="&#xb0;" 
d="M153 302q-41 24 -65.5 68.5t-24.5 103.5q0 58 25 102.5t65.5 68t86.5 23.5t86.5 -23.5t65 -68t24.5 -102.5q0 -59 -24.5 -103.5t-65 -68.5t-86.5 -24t-87 24zM296.5 396q24.5 27 24.5 78q0 50 -24.5 76.5t-56.5 26.5t-57 -26.5t-25 -76.5q0 -51 25 -78t57 -27t56.5 27z
" />
    <glyph glyph-name="plusminus" unicode="&#xb1;" 
d="M425 422v-84h-143v-142h-84v142h-143v84h143v142h84v-142h143zM55 132h370v-84h-370v84z" />
    <glyph glyph-name="paragraph" unicode="&#xb6;" 
d="M473 576h-64v-636h-84v636h-56v-636h-84v364q-79 1 -119.5 50t-40.5 126q0 76 42.5 127.5t117.5 52.5h288v-84z" />
    <glyph glyph-name="periodcentered" unicode="&#xb7;" 
d="M173.5 252.5q-24.5 18.5 -24.5 54.5q0 35 24 53.5t67 18.5t67 -18.5t24 -53.5q0 -36 -24.5 -54.5t-66.5 -18.5t-66.5 18.5z" />
    <glyph glyph-name="guillemotright" unicode="&#xbb;" 
d="M113 96h-105l143 204l-143 204h105l143 -204zM331 96h-105l143 204l-143 204h105l143 -204z" />
    <glyph glyph-name="questiondown" unicode="&#xbf;" 
d="M395.5 456.5q24.5 -18.5 24.5 -54.5q0 -35 -24 -53.5t-67 -18.5t-67 18.5t-24 53.5q0 36 24.5 54.5t66.5 18.5t66.5 -18.5zM423 -182q-27 -8 -62.5 -13.5t-70.5 -5.5q-95 0 -148.5 52t-53.5 136q0 82 34 125.5t101 43.5q27 0 60 -5v72h94v-141h-74q-53 0 -77 -18.5
t-24 -72.5q0 -45 21.5 -71.5t66.5 -26.5q34 0 71 6.5t62 15.5v-97z" />
    <glyph glyph-name="Agrave" unicode="&#xc0;" 
d="M327 156h-174l-31 -156h-120l132 660h212l132 -660h-120zM309 250l-58 294h-22l-58 -294h138zM230 910l90 -174h-101l-120 174h131z" />
    <glyph glyph-name="Aacute" unicode="&#xc1;" 
d="M327 156h-174l-31 -156h-120l132 660h212l132 -660h-120zM309 250l-58 294h-22l-58 -294h138zM261 736h-101l90 174h131z" />
    <glyph glyph-name="Acircumflex" unicode="&#xc2;" 
d="M327 156h-174l-31 -156h-120l132 660h212l132 -660h-120zM309 250l-58 294h-22l-58 -294h138zM80 824l160 100l160 -100v-108l-160 100l-160 -100v108z" />
    <glyph glyph-name="Atilde" unicode="&#xc3;" 
d="M327 156h-174l-31 -156h-120l132 660h212l132 -660h-120zM309 250l-58 294h-22l-58 -294h138zM260.5 754.5q-22.5 14.5 -40.5 42.5l-13 20q-16 24 -23.5 33.5t-13.5 9.5q-21 0 -21 -126h-84q0 117 27.5 163.5t79.5 46.5q25 0 45.5 -13.5t40.5 -43.5l14 -21
q16 -23 23.5 -32.5t13.5 -9.5q22 0 22 116h84q0 -110 -28 -155t-80 -45q-24 0 -46.5 14.5z" />
    <glyph glyph-name="Adieresis" unicode="&#xc4;" 
d="M327 156h-174l-31 -156h-120l132 660h212l132 -660h-120zM309 250l-58 294h-22l-58 -294h138zM292.5 771.5q-24.5 18.5 -24.5 54.5q0 35 24 53.5t67 18.5t67 -18.5t24 -53.5q0 -36 -24.5 -54.5t-66.5 -18.5t-66.5 18.5zM54.5 771.5q-24.5 18.5 -24.5 54.5q0 35 24 53.5
t67 18.5t67 -18.5t24 -53.5q0 -36 -24.5 -54.5t-66.5 -18.5t-66.5 18.5z" />
    <glyph glyph-name="Aring" unicode="&#xc5;" 
d="M327 156h-174l-31 -156h-120l126 628q-33 41 -33 96q0 44 20.5 77t53.5 50.5t71 17.5t71 -17.5t53.5 -50.5t20.5 -77q0 -55 -33 -96l126 -628h-120zM197.5 771q-18.5 -16 -18.5 -47q0 -28 14.5 -44.5t35.5 -19.5h23q21 3 35 19.5t14 44.5q0 31 -18 47t-43 16
q-24 0 -42.5 -16zM309 250l-58 294h-22l-58 -294h138z" />
    <glyph glyph-name="AE" unicode="&#xc6;" 
d="M468 104v-104h-256v161h-78l-24 -161h-110l106 660h348v-104h-126v-169h112v-94h-112v-189h140zM212 255v301h-18l-45 -301h63z" />
    <glyph glyph-name="Ccedilla" unicode="&#xc7;" 
d="M386 4q-42 -12 -91 -12l-12 -39q15 4 34 4q42 0 65 -24.5t23 -61.5q0 -58 -47 -88t-110 -30q-62 0 -114 15v76q57 -15 114 -15q63 0 63 32q0 28 -58 28q-38 0 -71 -7l30 118h5q-101 23 -149 107.5t-48 222.5q0 167 71 252.5t203 85.5q86 0 140 -33v-119q-29 23 -67 35.5
t-73 12.5q-76 0 -117 -58t-41 -176q0 -234 160 -234q41 0 83 14.5t66 33.5v-115q-17 -13 -59 -25z" />
    <glyph glyph-name="Egrave" unicode="&#xc8;" 
d="M455 104v-104h-410v660h396v-104h-280v-169h266v-94h-266v-189h294zM230 910l90 -174h-101l-120 174h131z" />
    <glyph glyph-name="Eacute" unicode="&#xc9;" 
d="M455 104v-104h-410v660h396v-104h-280v-169h266v-94h-266v-189h294zM261 736h-101l90 174h131z" />
    <glyph glyph-name="Ecircumflex" unicode="&#xca;" 
d="M455 104v-104h-410v660h396v-104h-280v-169h266v-94h-266v-189h294zM80 824l160 100l160 -100v-108l-160 100l-160 -100v108z" />
    <glyph glyph-name="Edieresis" unicode="&#xcb;" 
d="M455 104v-104h-410v660h396v-104h-280v-169h266v-94h-266v-189h294zM292.5 771.5q-24.5 18.5 -24.5 54.5q0 35 24 53.5t67 18.5t67 -18.5t24 -53.5q0 -36 -24.5 -54.5t-66.5 -18.5t-66.5 18.5zM54.5 771.5q-24.5 18.5 -24.5 54.5q0 35 24 53.5t67 18.5t67 -18.5t24 -53.5
q0 -36 -24.5 -54.5t-66.5 -18.5t-66.5 18.5z" />
    <glyph glyph-name="Igrave" unicode="&#xcc;" 
d="M298 556v-452h98v-104h-312v104h98v452h-98v104h312v-104h-98zM230 910l90 -174h-101l-120 174h131z" />
    <glyph glyph-name="Iacute" unicode="&#xcd;" 
d="M298 556v-452h98v-104h-312v104h98v452h-98v104h312v-104h-98zM261 736h-101l90 174h131z" />
    <glyph glyph-name="Icircumflex" unicode="&#xce;" 
d="M298 556v-452h98v-104h-312v104h98v452h-98v104h312v-104h-98zM80 824l160 100l160 -100v-108l-160 100l-160 -100v108z" />
    <glyph glyph-name="Idieresis" unicode="&#xcf;" 
d="M298 556v-452h98v-104h-312v104h98v452h-98v104h312v-104h-98zM292.5 771.5q-24.5 18.5 -24.5 54.5q0 35 24 53.5t67 18.5t67 -18.5t24 -53.5q0 -36 -24.5 -54.5t-66.5 -18.5t-66.5 18.5zM54.5 771.5q-24.5 18.5 -24.5 54.5q0 35 24 53.5t67 18.5t67 -18.5t24 -53.5
q0 -36 -24.5 -54.5t-66.5 -18.5t-66.5 18.5z" />
    <glyph glyph-name="Eth" unicode="&#xd0;" 
d="M405 579.5q57 -80.5 57 -247.5q0 -178 -55.5 -255t-167.5 -77h-204v297h-35v66h35v297h197q116 0 173 -80.5zM320 157q26 53 26 175q0 112 -28 168t-88 56h-79v-193h101v-66h-101v-193h86q57 0 83 53z" />
    <glyph glyph-name="Ntilde" unicode="&#xd1;" 
d="M445 660v-660h-116l-189 471l11 -471h-116v660h129l175 -438l-10 438h116zM260.5 754.5q-22.5 14.5 -40.5 42.5l-13 20q-16 24 -23.5 33.5t-13.5 9.5q-21 0 -21 -126h-84q0 117 27.5 163.5t79.5 46.5q25 0 45.5 -13.5t40.5 -43.5l14 -21q16 -23 23.5 -32.5t13.5 -9.5
q22 0 22 116h84q0 -110 -28 -155t-80 -45q-24 0 -46.5 14.5z" />
    <glyph glyph-name="Ograve" unicode="&#xd2;" 
d="M74 73.5q-56 81.5 -56 256.5t56 256.5t166 81.5t166 -81.5t56 -256.5t-56 -256.5t-166 -81.5t-166 81.5zM346 330q0 234 -106 234q-52 0 -79 -56.5t-27 -177.5t27 -177.5t79 -56.5q106 0 106 234zM230 910l90 -174h-101l-120 174h131z" />
    <glyph glyph-name="Oacute" unicode="&#xd3;" 
d="M74 73.5q-56 81.5 -56 256.5t56 256.5t166 81.5t166 -81.5t56 -256.5t-56 -256.5t-166 -81.5t-166 81.5zM346 330q0 234 -106 234q-52 0 -79 -56.5t-27 -177.5t27 -177.5t79 -56.5q106 0 106 234zM261 736h-101l90 174h131z" />
    <glyph glyph-name="Ocircumflex" unicode="&#xd4;" 
d="M74 73.5q-56 81.5 -56 256.5t56 256.5t166 81.5t166 -81.5t56 -256.5t-56 -256.5t-166 -81.5t-166 81.5zM346 330q0 234 -106 234q-52 0 -79 -56.5t-27 -177.5t27 -177.5t79 -56.5q106 0 106 234zM80 824l160 100l160 -100v-108l-160 100l-160 -100v108z" />
    <glyph glyph-name="Otilde" unicode="&#xd5;" 
d="M74 73.5q-56 81.5 -56 256.5t56 256.5t166 81.5t166 -81.5t56 -256.5t-56 -256.5t-166 -81.5t-166 81.5zM346 330q0 234 -106 234q-52 0 -79 -56.5t-27 -177.5t27 -177.5t79 -56.5q106 0 106 234zM260.5 754.5q-22.5 14.5 -40.5 42.5l-13 20q-16 24 -23.5 33.5t-13.5 9.5
q-21 0 -21 -126h-84q0 117 27.5 163.5t79.5 46.5q25 0 45.5 -13.5t40.5 -43.5l14 -21q16 -23 23.5 -32.5t13.5 -9.5q22 0 22 116h84q0 -110 -28 -155t-80 -45q-24 0 -46.5 14.5z" />
    <glyph glyph-name="Odieresis" unicode="&#xd6;" 
d="M74 73.5q-56 81.5 -56 256.5t56 256.5t166 81.5t166 -81.5t56 -256.5t-56 -256.5t-166 -81.5t-166 81.5zM346 330q0 234 -106 234q-52 0 -79 -56.5t-27 -177.5t27 -177.5t79 -56.5q106 0 106 234zM292.5 771.5q-24.5 18.5 -24.5 54.5q0 35 24 53.5t67 18.5t67 -18.5
t24 -53.5q0 -36 -24.5 -54.5t-66.5 -18.5t-66.5 18.5zM54.5 771.5q-24.5 18.5 -24.5 54.5q0 35 24 53.5t67 18.5t67 -18.5t24 -53.5q0 -36 -24.5 -54.5t-66.5 -18.5t-66.5 18.5z" />
    <glyph glyph-name="multiply" unicode="&#xd7;" 
d="M291 300l116 -166l-67 -51l-101 144l-100 -144l-67 50l116 167l-116 166l67 51l101 -144l100 144l67 -50z" />
    <glyph glyph-name="Oslash" unicode="&#xd8;" 
d="M425 551q37 -82 37 -221q0 -175 -56 -256.5t-166 -81.5q-87 0 -139 49l-31 -50l-55 37l44 70q-41 82 -41 232q0 175 56 256.5t166 81.5q92 0 145 -56l25 39l55 -37zM141 226l178 281q-26 57 -79 57q-52 0 -79 -56.5t-27 -177.5q0 -63 7 -104zM341 419l-175 -277
q27 -46 74 -46q106 0 106 234q0 46 -5 89z" />
    <glyph glyph-name="Ugrave" unicode="&#xd9;" 
d="M35 660h116v-409q0 -61 9.5 -94t28.5 -46t51 -13t51 13t28.5 46t9.5 94v409h116v-403q0 -143 -54.5 -204t-150.5 -61t-150.5 61t-54.5 204v403zM230 910l90 -174h-101l-120 174h131z" />
    <glyph glyph-name="Uacute" unicode="&#xda;" 
d="M35 660h116v-409q0 -61 9.5 -94t28.5 -46t51 -13t51 13t28.5 46t9.5 94v409h116v-403q0 -143 -54.5 -204t-150.5 -61t-150.5 61t-54.5 204v403zM261 736h-101l90 174h131z" />
    <glyph glyph-name="Ucircumflex" unicode="&#xdb;" 
d="M35 660h116v-409q0 -61 9.5 -94t28.5 -46t51 -13t51 13t28.5 46t9.5 94v409h116v-403q0 -143 -54.5 -204t-150.5 -61t-150.5 61t-54.5 204v403zM80 824l160 100l160 -100v-108l-160 100l-160 -100v108z" />
    <glyph glyph-name="Udieresis" unicode="&#xdc;" 
d="M35 660h116v-409q0 -61 9.5 -94t28.5 -46t51 -13t51 13t28.5 46t9.5 94v409h116v-403q0 -143 -54.5 -204t-150.5 -61t-150.5 61t-54.5 204v403zM292.5 771.5q-24.5 18.5 -24.5 54.5q0 35 24 53.5t67 18.5t67 -18.5t24 -53.5q0 -36 -24.5 -54.5t-66.5 -18.5t-66.5 18.5z
M54.5 771.5q-24.5 18.5 -24.5 54.5q0 35 24 53.5t67 18.5t67 -18.5t24 -53.5q0 -36 -24.5 -54.5t-66.5 -18.5t-66.5 18.5z" />
    <glyph glyph-name="Yacute" unicode="&#xdd;" 
d="M480 660l-182 -428v-232h-116v232l-182 428h125l112 -288h6l112 288h125zM261 736h-101l90 174h131z" />
    <glyph glyph-name="Thorn" unicode="&#xde;" 
d="M411.5 512.5q50.5 -57.5 50.5 -179.5q0 -108 -49.5 -167.5t-147.5 -59.5h-104v-106h-116v660h116v-90h85q115 0 165.5 -57.5zM325 235.5q21 35.5 21 93.5q0 79 -24 108t-78 29h-83v-266h103q40 0 61 35.5z" />
    <glyph glyph-name="germandbls" unicode="&#xdf;" 
d="M448 190q0 -99 -46 -148.5t-122 -49.5q-36 0 -72 8v104q29 -8 56 -8q35 0 51.5 21.5t16.5 72.5q0 55 -22.5 78t-69.5 23h-22v87q47 8 70 52.5t23 110.5q0 115 -71 115q-38 0 -51 -36t-13 -124v-706h-116v710q0 98 20 155t59 81t99 24q95 0 142 -58t47 -161
q0 -62 -22 -109.5t-69 -74.5q112 -29 112 -167z" />
    <glyph glyph-name="agrave" unicode="&#xe0;" 
d="M464 99v-99q-18 -8 -55 -8q-91 0 -105 99h-3q-7 -49 -35.5 -74t-86.5 -25q-68 0 -107.5 42.5t-39.5 115.5q0 76 45.5 116t118.5 40q37 0 59 -5.5t44 -14.5h2v17q0 54 -25.5 77.5t-90.5 23.5q-41 0 -78 -8t-59 -17l-1 105q22 9 61 16.5t79 7.5q122 0 176 -51t54 -154v-154
q0 -30 6 -41.5t20 -11.5q9 0 21 3zM301 159v61h-89q-30 0 -47 -16t-17 -44t15.5 -46t46.5 -18q65 0 91 63zM230 750l90 -174h-101l-120 174h131z" />
    <glyph glyph-name="aacute" unicode="&#xe1;" 
d="M464 99v-99q-18 -8 -55 -8q-91 0 -105 99h-3q-7 -49 -35.5 -74t-86.5 -25q-68 0 -107.5 42.5t-39.5 115.5q0 76 45.5 116t118.5 40q37 0 59 -5.5t44 -14.5h2v17q0 54 -25.5 77.5t-90.5 23.5q-41 0 -78 -8t-59 -17l-1 105q22 9 61 16.5t79 7.5q122 0 176 -51t54 -154v-154
q0 -30 6 -41.5t20 -11.5q9 0 21 3zM301 159v61h-89q-30 0 -47 -16t-17 -44t15.5 -46t46.5 -18q65 0 91 63zM261 576h-101l90 174h131z" />
    <glyph glyph-name="acircumflex" unicode="&#xe2;" 
d="M464 99v-99q-18 -8 -55 -8q-91 0 -105 99h-3q-7 -49 -35.5 -74t-86.5 -25q-68 0 -107.5 42.5t-39.5 115.5q0 76 45.5 116t118.5 40q37 0 59 -5.5t44 -14.5h2v17q0 54 -25.5 77.5t-90.5 23.5q-41 0 -78 -8t-59 -17l-1 105q22 9 61 16.5t79 7.5q122 0 176 -51t54 -154v-154
q0 -30 6 -41.5t20 -11.5q9 0 21 3zM301 159v61h-89q-30 0 -47 -16t-17 -44t15.5 -46t46.5 -18q65 0 91 63zM80 664l160 100l160 -100v-108l-160 100l-160 -100v108z" />
    <glyph glyph-name="atilde" unicode="&#xe3;" 
d="M464 99v-99q-18 -8 -55 -8q-91 0 -105 99h-3q-7 -49 -35.5 -74t-86.5 -25q-68 0 -107.5 42.5t-39.5 115.5q0 76 45.5 116t118.5 40q37 0 59 -5.5t44 -14.5h2v17q0 54 -25.5 77.5t-90.5 23.5q-41 0 -78 -8t-59 -17l-1 105q22 9 61 16.5t79 7.5q122 0 176 -51t54 -154v-154
q0 -30 6 -41.5t20 -11.5q9 0 21 3zM301 159v61h-89q-30 0 -47 -16t-17 -44t15.5 -46t46.5 -18q65 0 91 63zM260.5 594.5q-22.5 14.5 -40.5 42.5l-13 20q-16 24 -23.5 33.5t-13.5 9.5q-21 0 -21 -126h-84q0 117 27.5 163.5t79.5 46.5q25 0 45.5 -13.5t40.5 -43.5l14 -21
q16 -23 23.5 -32.5t13.5 -9.5q22 0 22 116h84q0 -110 -28 -155t-80 -45q-24 0 -46.5 14.5z" />
    <glyph glyph-name="adieresis" unicode="&#xe4;" 
d="M464 99v-99q-18 -8 -55 -8q-91 0 -105 99h-3q-7 -49 -35.5 -74t-86.5 -25q-68 0 -107.5 42.5t-39.5 115.5q0 76 45.5 116t118.5 40q37 0 59 -5.5t44 -14.5h2v17q0 54 -25.5 77.5t-90.5 23.5q-41 0 -78 -8t-59 -17l-1 105q22 9 61 16.5t79 7.5q122 0 176 -51t54 -154v-154
q0 -30 6 -41.5t20 -11.5q9 0 21 3zM301 159v61h-89q-30 0 -47 -16t-17 -44t15.5 -46t46.5 -18q65 0 91 63zM292.5 611.5q-24.5 18.5 -24.5 54.5q0 35 24 53.5t67 18.5t67 -18.5t24 -53.5q0 -36 -24.5 -54.5t-66.5 -18.5t-66.5 18.5zM54.5 611.5q-24.5 18.5 -24.5 54.5
q0 35 24 53.5t67 18.5t67 -18.5t24 -53.5q0 -36 -24.5 -54.5t-66.5 -18.5t-66.5 18.5z" />
    <glyph glyph-name="aring" unicode="&#xe5;" 
d="M464 99v-99q-18 -8 -55 -8q-91 0 -105 99h-3q-7 -49 -35.5 -74t-86.5 -25q-68 0 -107.5 42.5t-39.5 115.5q0 76 45.5 116t118.5 40q37 0 59 -5.5t44 -14.5h2v17q0 54 -25.5 77.5t-90.5 23.5q-41 0 -78 -8t-59 -17l-1 105q22 9 61 16.5t79 7.5q122 0 176 -51t54 -154v-154
q0 -30 6 -41.5t20 -11.5q9 0 21 3zM301 159v61h-89q-30 0 -47 -16t-17 -44t15.5 -46t46.5 -18q65 0 91 63zM169 597.5q-33 17.5 -53.5 51t-20.5 78.5q0 44 20.5 77t53.5 50.5t71 17.5t71 -17.5t53.5 -50.5t20.5 -77t-20 -77.5t-53.5 -51.5t-71.5 -18t-71 17.5zM283 678.5
q18 16.5 18 48.5q0 31 -18 47t-43 16q-24 0 -42.5 -16t-18.5 -47q0 -32 18.5 -48.5t42.5 -16.5q25 0 43 16.5z" />
    <glyph glyph-name="ae" unicode="&#xe6;" 
d="M456 206h-164q5 -67 25 -91t60 -24q15 0 34.5 4.5t30.5 9.5v-99q-35 -14 -71 -14q-47 0 -78.5 16t-50.5 52h-2q-11 -68 -87 -68q-58 0 -93.5 44t-35.5 121q0 69 32.5 109t83.5 40q29 0 47 -9h2v36q0 38 -15.5 57t-50.5 19q-19 0 -43 -5.5t-40 -14.5l-1 99q45 20 100 20
q76 0 108 -52q31 52 92 52t89 -52.5t28 -168.5v-81zM364 290q0 68 -7 93.5t-24 25.5q-20 0 -30 -25t-11 -94h72zM189 113v109h-17q-23 0 -34.5 -13.5t-11.5 -52.5q0 -35 9 -50t28 -15t26 22z" />
    <glyph glyph-name="ccedilla" unicode="&#xe7;" 
d="M389.5 9q-37.5 -14 -89.5 -17l-13 -39q15 4 34 4q42 0 65 -24.5t23 -61.5q0 -58 -47 -88t-110 -30q-62 0 -114 15v76q57 -15 114 -15q63 0 63 32q0 28 -58 28q-38 0 -71 -7l30 117q-87 20 -130.5 87t-43.5 164q0 124 65 191t176 67q85 0 140 -35v-117q-63 48 -138 48
q-127 0 -127 -154q0 -77 36.5 -115.5t93.5 -38.5q50 0 90 16.5t66 39.5v-115q-17 -14 -54.5 -28z" />
    <glyph glyph-name="egrave" unicode="&#xe8;" 
d="M448 205h-298q8 -57 37 -83t87 -26q86 0 150 25v-103q-65 -26 -152 -26q-125 0 -182.5 66.5t-57.5 191.5q0 128 59.5 193t158.5 65q94 0 146 -59t52 -182v-62zM336 291q0 63 -22 88t-64 25q-43 0 -68.5 -24.5t-31.5 -88.5h186zM230 750l90 -174h-101l-120 174h131z" />
    <glyph glyph-name="eacute" unicode="&#xe9;" 
d="M448 205h-298q8 -57 37 -83t87 -26q86 0 150 25v-103q-65 -26 -152 -26q-125 0 -182.5 66.5t-57.5 191.5q0 128 59.5 193t158.5 65q94 0 146 -59t52 -182v-62zM336 291q0 63 -22 88t-64 25q-43 0 -68.5 -24.5t-31.5 -88.5h186zM261 576h-101l90 174h131z" />
    <glyph glyph-name="ecircumflex" unicode="&#xea;" 
d="M448 205h-298q8 -57 37 -83t87 -26q86 0 150 25v-103q-65 -26 -152 -26q-125 0 -182.5 66.5t-57.5 191.5q0 128 59.5 193t158.5 65q94 0 146 -59t52 -182v-62zM336 291q0 63 -22 88t-64 25q-43 0 -68.5 -24.5t-31.5 -88.5h186zM80 664l160 100l160 -100v-108l-160 100
l-160 -100v108z" />
    <glyph glyph-name="edieresis" unicode="&#xeb;" 
d="M448 205h-298q8 -57 37 -83t87 -26q86 0 150 25v-103q-65 -26 -152 -26q-125 0 -182.5 66.5t-57.5 191.5q0 128 59.5 193t158.5 65q94 0 146 -59t52 -182v-62zM336 291q0 63 -22 88t-64 25q-43 0 -68.5 -24.5t-31.5 -88.5h186zM292.5 611.5q-24.5 18.5 -24.5 54.5
q0 35 24 53.5t67 18.5t67 -18.5t24 -53.5q0 -36 -24.5 -54.5t-66.5 -18.5t-66.5 18.5zM54.5 611.5q-24.5 18.5 -24.5 54.5q0 35 24 53.5t67 18.5t67 -18.5t24 -53.5q0 -36 -24.5 -54.5t-66.5 -18.5t-66.5 18.5z" />
    <glyph glyph-name="igrave" unicode="&#xec;" 
d="M467 103v-100q-7 -4 -25.5 -7.5t-37.5 -3.5q-151 0 -203 143q-25 -59 -69 -135h-122q79 121 116 201t49 156v143h116v-178q0 -121 31 -173.5t91 -52.5q33 0 54 7zM223 750l90 -174h-101l-120 174h131z" />
    <glyph glyph-name="iacute" unicode="&#xed;" 
d="M467 103v-100q-7 -4 -25.5 -7.5t-37.5 -3.5q-151 0 -203 143q-25 -59 -69 -135h-122q79 121 116 201t49 156v143h116v-178q0 -121 31 -173.5t91 -52.5q33 0 54 7zM254 576h-101l90 174h131z" />
    <glyph glyph-name="icircumflex" unicode="&#xee;" 
d="M467 103v-100q-7 -4 -25.5 -7.5t-37.5 -3.5q-151 0 -203 143q-25 -59 -69 -135h-122q79 121 116 201t49 156v143h116v-178q0 -121 31 -173.5t91 -52.5q33 0 54 7zM73 664l160 100l160 -100v-108l-160 100l-160 -100v108z" />
    <glyph glyph-name="idieresis" unicode="&#xef;" 
d="M467 103v-100q-7 -4 -25.5 -7.5t-37.5 -3.5q-151 0 -203 143q-25 -59 -69 -135h-122q79 121 116 201t49 156v143h116v-178q0 -121 31 -173.5t91 -52.5q33 0 54 7zM285.5 611.5q-24.5 18.5 -24.5 54.5q0 35 24 53.5t67 18.5t67 -18.5t24 -53.5q0 -36 -24.5 -54.5
t-66.5 -18.5t-66.5 18.5zM47.5 611.5q-24.5 18.5 -24.5 54.5q0 35 24 53.5t67 18.5t67 -18.5t24 -53.5q0 -36 -24.5 -54.5t-66.5 -18.5t-66.5 18.5z" />
    <glyph glyph-name="eth" unicode="&#xf0;" 
d="M448 290q0 -97 -27 -164t-74 -100.5t-107 -33.5q-62 0 -109 31t-73 89t-26 138q0 78 25.5 136.5t68 90t90.5 31.5q39 0 59.5 -17.5t38.5 -68.5l6 2q-22 109 -88 187l-150 -73l-25 50l134 65q-47 45 -129 97h160q34 -22 65 -50l113 55l25 -50l-98 -47q121 -142 121 -368z
M308 146.5q24 50.5 24 133.5v21q-19 56 -38 79.5t-54 23.5q-48 0 -70 -39.5t-22 -114.5t22 -114.5t70 -39.5q44 0 68 50.5z" />
    <glyph glyph-name="ntilde" unicode="&#xf1;" 
d="M470 99v-99q-18 -8 -54 -8q-65 0 -88.5 34t-23.5 98v203q0 40 -13.5 58.5t-46.5 18.5q-49 0 -68 -42v-362h-116v500h68l39 -82h5q8 90 109 90q74 0 106.5 -46t32.5 -124v-189q0 -26 5.5 -39.5t24.5 -13.5q11 0 20 3zM260.5 594.5q-22.5 14.5 -40.5 42.5l-13 20
q-16 24 -23.5 33.5t-13.5 9.5q-21 0 -21 -126h-84q0 117 27.5 163.5t79.5 46.5q25 0 45.5 -13.5t40.5 -43.5l14 -21q16 -23 23.5 -32.5t13.5 -9.5q22 0 22 116h84q0 -110 -28 -155t-80 -45q-24 0 -46.5 14.5z" />
    <glyph glyph-name="ograve" unicode="&#xf2;" 
d="M87 62.5q-55 70.5 -55 187.5t55 187.5t153 70.5t153 -71t55 -187t-55 -187t-153 -71t-153 70.5zM309.5 138q22.5 42 22.5 112t-22.5 112t-69.5 42t-69.5 -42t-22.5 -112t22.5 -112t69.5 -42t69.5 42zM230 750l90 -174h-101l-120 174h131z" />
    <glyph glyph-name="oacute" unicode="&#xf3;" 
d="M87 62.5q-55 70.5 -55 187.5t55 187.5t153 70.5t153 -71t55 -187t-55 -187t-153 -71t-153 70.5zM309.5 138q22.5 42 22.5 112t-22.5 112t-69.5 42t-69.5 -42t-22.5 -112t22.5 -112t69.5 -42t69.5 42zM261 576h-101l90 174h131z" />
    <glyph glyph-name="ocircumflex" unicode="&#xf4;" 
d="M87 62.5q-55 70.5 -55 187.5t55 187.5t153 70.5t153 -71t55 -187t-55 -187t-153 -71t-153 70.5zM309.5 138q22.5 42 22.5 112t-22.5 112t-69.5 42t-69.5 -42t-22.5 -112t22.5 -112t69.5 -42t69.5 42zM80 664l160 100l160 -100v-108l-160 100l-160 -100v108z" />
    <glyph glyph-name="otilde" unicode="&#xf5;" 
d="M87 62.5q-55 70.5 -55 187.5t55 187.5t153 70.5t153 -71t55 -187t-55 -187t-153 -71t-153 70.5zM309.5 138q22.5 42 22.5 112t-22.5 112t-69.5 42t-69.5 -42t-22.5 -112t22.5 -112t69.5 -42t69.5 42zM260.5 594.5q-22.5 14.5 -40.5 42.5l-13 20q-16 24 -23.5 33.5
t-13.5 9.5q-21 0 -21 -126h-84q0 117 27.5 163.5t79.5 46.5q25 0 45.5 -13.5t40.5 -43.5l14 -21q16 -23 23.5 -32.5t13.5 -9.5q22 0 22 116h84q0 -110 -28 -155t-80 -45q-24 0 -46.5 14.5z" />
    <glyph glyph-name="odieresis" unicode="&#xf6;" 
d="M87 62.5q-55 70.5 -55 187.5t55 187.5t153 70.5t153 -71t55 -187t-55 -187t-153 -71t-153 70.5zM309.5 138q22.5 42 22.5 112t-22.5 112t-69.5 42t-69.5 -42t-22.5 -112t22.5 -112t69.5 -42t69.5 42zM292.5 611.5q-24.5 18.5 -24.5 54.5q0 35 24 53.5t67 18.5t67 -18.5
t24 -53.5q0 -36 -24.5 -54.5t-66.5 -18.5t-66.5 18.5zM54.5 611.5q-24.5 18.5 -24.5 54.5q0 35 24 53.5t67 18.5t67 -18.5t24 -53.5q0 -36 -24.5 -54.5t-66.5 -18.5t-66.5 18.5z" />
    <glyph glyph-name="divide" unicode="&#xf7;" 
d="M173.5 440.5q-24.5 18.5 -24.5 54.5q0 35 24 53.5t67 18.5t67 -18.5t24 -53.5q0 -36 -24.5 -54.5t-66.5 -18.5t-66.5 18.5zM425 342v-84h-370v84h370zM173.5 64.5q-24.5 18.5 -24.5 54.5q0 35 24 53.5t67 18.5t67 -18.5t24 -53.5q0 -36 -24.5 -54.5t-66.5 -18.5
t-66.5 18.5z" />
    <glyph glyph-name="oslash" unicode="&#xf8;" 
d="M434.5 352.5q13.5 -46.5 13.5 -102.5q0 -116 -55 -187t-153 -71q-61 0 -107 29l-25 -40l-55 37l31 48q-52 70 -52 184q0 117 55 187.5t153 70.5q61 0 107 -29l25 39l55 -37l-31 -48q25 -34 38.5 -80.5zM155 178l134 209q-20 17 -49 17q-47 0 -69.5 -42t-22.5 -112
q0 -41 7 -72zM309.5 138q22.5 42 22.5 112q0 42 -7 71l-133 -209q21 -16 48 -16q47 0 69.5 42z" />
    <glyph glyph-name="ugrave" unicode="&#xf9;" 
d="M470 99v-99q-18 -8 -53 -8q-86 0 -107 87h-3q-5 -42 -31.5 -64.5t-69.5 -22.5q-69 0 -107 50.5t-38 146.5v207h-49v104h165v-283q0 -64 12 -92.5t49 -28.5q47 0 66 57v347h116v-351q0 -29 6.5 -41t24.5 -12q7 0 19 3zM230 750l90 -174h-101l-120 174h131z" />
    <glyph glyph-name="uacute" unicode="&#xfa;" 
d="M470 99v-99q-18 -8 -53 -8q-86 0 -107 87h-3q-5 -42 -31.5 -64.5t-69.5 -22.5q-69 0 -107 50.5t-38 146.5v207h-49v104h165v-283q0 -64 12 -92.5t49 -28.5q47 0 66 57v347h116v-351q0 -29 6.5 -41t24.5 -12q7 0 19 3zM261 576h-101l90 174h131z" />
    <glyph glyph-name="ucircumflex" unicode="&#xfb;" 
d="M470 99v-99q-18 -8 -53 -8q-86 0 -107 87h-3q-5 -42 -31.5 -64.5t-69.5 -22.5q-69 0 -107 50.5t-38 146.5v207h-49v104h165v-283q0 -64 12 -92.5t49 -28.5q47 0 66 57v347h116v-351q0 -29 6.5 -41t24.5 -12q7 0 19 3zM80 664l160 100l160 -100v-108l-160 100l-160 -100
v108z" />
    <glyph glyph-name="udieresis" unicode="&#xfc;" 
d="M470 99v-99q-18 -8 -53 -8q-86 0 -107 87h-3q-5 -42 -31.5 -64.5t-69.5 -22.5q-69 0 -107 50.5t-38 146.5v207h-49v104h165v-283q0 -64 12 -92.5t49 -28.5q47 0 66 57v347h116v-351q0 -29 6.5 -41t24.5 -12q7 0 19 3zM292.5 611.5q-24.5 18.5 -24.5 54.5q0 35 24 53.5
t67 18.5t67 -18.5t24 -53.5q0 -36 -24.5 -54.5t-66.5 -18.5t-66.5 18.5zM54.5 611.5q-24.5 18.5 -24.5 54.5q0 35 24 53.5t67 18.5t67 -18.5t24 -53.5q0 -36 -24.5 -54.5t-66.5 -18.5t-66.5 18.5z" />
    <glyph glyph-name="yacute" unicode="&#xfd;" 
d="M480 500l-119 -480q-20 -80 -41.5 -129t-62.5 -79t-110 -30q-20 0 -47 4.5t-46 10.5l-1 105q44 -16 80 -16q31 0 49.5 10t31.5 34t25 70h-78l-85 396h-66v104h164l83 -402h6l97 402h120zM261 576h-101l90 174h131z" />
    <glyph glyph-name="thorn" unicode="&#xfe;" 
d="M364 477q40 -31 62 -88t22 -133q0 -125 -49 -194.5t-131 -69.5q-40 0 -68.5 20t-47.5 81h-5l29 -130v-173h-116v960h116v-220l-12 -111h5q5 41 31 65t72 24q52 0 92 -31zM310.5 136.5q21.5 40.5 21.5 118.5q0 73 -22.5 111t-64.5 38q-44 0 -69 -44v-192q15 -41 33 -56.5
t42 -15.5q38 0 59.5 40.5z" />
    <glyph glyph-name="ydieresis" unicode="&#xff;" 
d="M480 500l-119 -480q-20 -80 -41.5 -129t-62.5 -79t-110 -30q-20 0 -47 4.5t-46 10.5l-1 105q44 -16 80 -16q31 0 49.5 10t31.5 34t25 70h-78l-85 396h-66v104h164l83 -402h6l97 402h120zM292.5 611.5q-24.5 18.5 -24.5 54.5q0 35 24 53.5t67 18.5t67 -18.5t24 -53.5
q0 -36 -24.5 -54.5t-66.5 -18.5t-66.5 18.5zM54.5 611.5q-24.5 18.5 -24.5 54.5q0 35 24 53.5t67 18.5t67 -18.5t24 -53.5q0 -36 -24.5 -54.5t-66.5 -18.5t-66.5 18.5z" />
    <glyph glyph-name="Amacron" unicode="&#x100;" 
d="M327 156h-174l-31 -156h-120l132 660h212l132 -660h-120zM309 250l-58 294h-22l-58 -294h138zM413 856v-84h-346v84h346z" />
    <glyph glyph-name="amacron" unicode="&#x101;" 
d="M464 99v-99q-18 -8 -55 -8q-91 0 -105 99h-3q-7 -49 -35.5 -74t-86.5 -25q-68 0 -107.5 42.5t-39.5 115.5q0 76 45.5 116t118.5 40q37 0 59 -5.5t44 -14.5h2v17q0 54 -25.5 77.5t-90.5 23.5q-41 0 -78 -8t-59 -17l-1 105q22 9 61 16.5t79 7.5q122 0 176 -51t54 -154v-154
q0 -30 6 -41.5t20 -11.5q9 0 21 3zM301 159v61h-89q-30 0 -47 -16t-17 -44t15.5 -46t46.5 -18q65 0 91 63zM413 696v-84h-346v84h346z" />
    <glyph glyph-name="Abreve" unicode="&#x102;" 
d="M327 156h-174l-31 -156h-120l132 660h212l132 -660h-120zM309 250l-58 294h-22l-58 -294h138zM372.5 813.5q-20.5 -40.5 -55.5 -61t-77 -20.5q-66 0 -109.5 47t-43.5 131h94q0 -44 16.5 -64t42.5 -20t42.5 20t16.5 64h94q0 -56 -20.5 -96.5z" />
    <glyph glyph-name="abreve" unicode="&#x103;" 
d="M464 99v-99q-18 -8 -55 -8q-91 0 -105 99h-3q-7 -49 -35.5 -74t-86.5 -25q-68 0 -107.5 42.5t-39.5 115.5q0 76 45.5 116t118.5 40q37 0 59 -5.5t44 -14.5h2v17q0 54 -25.5 77.5t-90.5 23.5q-41 0 -78 -8t-59 -17l-1 105q22 9 61 16.5t79 7.5q122 0 176 -51t54 -154v-154
q0 -30 6 -41.5t20 -11.5q9 0 21 3zM301 159v61h-89q-30 0 -47 -16t-17 -44t15.5 -46t46.5 -18q65 0 91 63zM372.5 653.5q-20.5 -40.5 -55.5 -61t-77 -20.5q-66 0 -109.5 47t-43.5 131h94q0 -44 16.5 -64t42.5 -20t42.5 20t16.5 64h94q0 -56 -20.5 -96.5z" />
    <glyph glyph-name="Aogonek" unicode="&#x104;" 
d="M431 -133q23 0 45 5v-82q-26 -7 -65 -7q-57 0 -91 24.5t-34 64.5q0 67 72 128l-31 156h-174l-31 -156h-120l132 660h212l132 -660h-21q-69 -63 -69 -105q0 -28 43 -28zM309 250l-58 294h-22l-58 -294h138z" />
    <glyph glyph-name="aogonek" unicode="&#x105;" 
d="M464 99v-99q-16 -5 -26 -6q-62 -60 -62 -99q0 -28 43 -28q23 0 45 5v-82q-26 -7 -65 -7q-57 0 -91 24.5t-34 64.5q0 67 72 128l6 5q-40 23 -48 86h-3q-7 -49 -35.5 -74t-86.5 -25q-68 0 -107.5 42.5t-39.5 115.5q0 76 45.5 116t118.5 40q37 0 59 -5.5t44 -14.5h2v17
q0 54 -25.5 77.5t-90.5 23.5q-41 0 -78 -8t-59 -17l-1 105q22 9 61 16.5t79 7.5q122 0 176 -51t54 -154v-154q0 -30 6 -41.5t20 -11.5q9 0 21 3zM301 159v61h-89q-30 0 -47 -16t-17 -44t15.5 -46t46.5 -18q65 0 91 63z" />
    <glyph glyph-name="Cacute" unicode="&#x106;" 
d="M91 582.5q71 85.5 203 85.5q86 0 140 -33v-119q-29 23 -67 35.5t-73 12.5q-76 0 -117 -58t-41 -176q0 -234 160 -234q41 0 83 14.5t66 33.5v-115q-17 -13 -59.5 -25t-91.5 -12q-141 0 -207.5 88t-66.5 250q0 167 71 252.5zM281 736h-101l90 174h131z" />
    <glyph glyph-name="cacute" unicode="&#x107;" 
d="M107 441q65 67 176 67q85 0 140 -35v-117q-63 48 -138 48q-127 0 -127 -154q0 -77 36.5 -115.5t93.5 -38.5q50 0 90 16.5t66 39.5v-115q-19 -15 -60.5 -30t-99.5 -15q-120 0 -181 71.5t-61 186.5q0 124 65 191zM285 576h-101l90 174h131z" />
    <glyph glyph-name="Cdotaccent" unicode="&#x10a;" 
d="M91 582.5q71 85.5 203 85.5q86 0 140 -33v-119q-29 23 -67 35.5t-73 12.5q-76 0 -117 -58t-41 -176q0 -234 160 -234q41 0 83 14.5t66 33.5v-115q-17 -13 -59.5 -25t-91.5 -12q-141 0 -207.5 88t-66.5 250q0 167 71 252.5zM193.5 771.5q-24.5 18.5 -24.5 54.5
q0 35 24 53.5t67 18.5t67 -18.5t24 -53.5q0 -36 -24.5 -54.5t-66.5 -18.5t-66.5 18.5z" />
    <glyph glyph-name="cdotaccent" unicode="&#x10b;" 
d="M107 441q65 67 176 67q85 0 140 -35v-117q-63 48 -138 48q-127 0 -127 -154q0 -77 36.5 -115.5t93.5 -38.5q50 0 90 16.5t66 39.5v-115q-19 -15 -60.5 -30t-99.5 -15q-120 0 -181 71.5t-61 186.5q0 124 65 191zM197.5 611.5q-24.5 18.5 -24.5 54.5q0 35 24 53.5t67 18.5
t67 -18.5t24 -53.5q0 -36 -24.5 -54.5t-66.5 -18.5t-66.5 18.5z" />
    <glyph glyph-name="Ccaron" unicode="&#x10c;" 
d="M91 582.5q71 85.5 203 85.5q86 0 140 -33v-119q-29 23 -67 35.5t-73 12.5q-76 0 -117 -58t-41 -176q0 -234 160 -234q41 0 83 14.5t66 33.5v-115q-17 -13 -59.5 -25t-91.5 -12q-141 0 -207.5 88t-66.5 250q0 167 71 252.5zM413 910l-90 -174h-126l-90 174h106l47 -105
l47 105h106z" />
    <glyph glyph-name="ccaron" unicode="&#x10d;" 
d="M107 441q65 67 176 67q85 0 140 -35v-117q-63 48 -138 48q-127 0 -127 -154q0 -77 36.5 -115.5t93.5 -38.5q50 0 90 16.5t66 39.5v-115q-19 -15 -60.5 -30t-99.5 -15q-120 0 -181 71.5t-61 186.5q0 124 65 191zM417 750l-90 -174h-126l-90 174h106l47 -105l47 105h106z
" />
    <glyph glyph-name="Dcaron" unicode="&#x10e;" 
d="M35 660h197q116 0 173 -80.5t57 -247.5q0 -178 -55.5 -255t-167.5 -77h-204v660zM237 104q57 0 83 53t26 175q0 112 -28 168t-88 56h-79v-452h86zM367 910l-90 -174h-126l-90 174h106l47 -105l47 105h106z" />
    <glyph glyph-name="dcaron" unicode="&#x10f;" 
d="M566.5 854q15.5 -34 15.5 -92q0 -88 -34 -148.5t-92 -80.5v87q32 15 46 50.5t14 95.5v16h-3q-2 -20 -8.5 -29.5t-19.5 -9.5q-19 0 -29.5 17t-10.5 50q0 36 18 57t47 21q41 0 56.5 -34zM426.5 108q6.5 -12 24.5 -12q5 0 10.5 1.5t8.5 1.5v-99q-18 -8 -50 -8q-48 0 -75 22
t-36 67h-3q-5 -44 -29 -66.5t-62 -22.5q-55 0 -96.5 31.5t-64 89t-22.5 134.5q0 80 24.5 139t66 90.5t91.5 31.5q78 0 92 -85h7l-9 107v220h116v-601q0 -29 6.5 -41zM304 144v222q-12 20 -29.5 29t-37.5 9q-42 0 -65.5 -40.5t-23.5 -115.5q0 -152 92 -152q38 0 64 48z" />
    <glyph glyph-name="Dcroat" unicode="&#x110;" 
d="M405 579.5q57 -80.5 57 -247.5q0 -178 -55.5 -255t-167.5 -77h-204v297h-35v66h35v297h197q116 0 173 -80.5zM320 157q26 53 26 175q0 112 -28 168t-88 56h-79v-193h101v-66h-101v-193h86q57 0 83 53z" />
    <glyph glyph-name="dcroat" unicode="&#x111;" 
d="M420 571v-422q0 -29 6.5 -41t24.5 -12q5 0 10.5 1.5t8.5 1.5v-99q-18 -8 -50 -8q-48 0 -75 22t-36 67h-3q-5 -44 -29 -66.5t-62 -22.5q-55 0 -96.5 31.5t-64 89t-22.5 134.5q0 80 24.5 139t66 90.5t91.5 31.5q78 0 92 -85h7l-9 107v41h-148v66h148v113h116v-113h52v-66
h-52zM304 144v222q-12 20 -29.5 29t-37.5 9q-42 0 -65.5 -40.5t-23.5 -115.5q0 -152 92 -152q38 0 64 48z" />
    <glyph glyph-name="Emacron" unicode="&#x112;" 
d="M455 104v-104h-410v660h396v-104h-280v-169h266v-94h-266v-189h294zM413 856v-84h-346v84h346z" />
    <glyph glyph-name="emacron" unicode="&#x113;" 
d="M448 205h-298q8 -57 37 -83t87 -26q86 0 150 25v-103q-65 -26 -152 -26q-125 0 -182.5 66.5t-57.5 191.5q0 128 59.5 193t158.5 65q94 0 146 -59t52 -182v-62zM336 291q0 63 -22 88t-64 25q-43 0 -68.5 -24.5t-31.5 -88.5h186zM413 696v-84h-346v84h346z" />
    <glyph glyph-name="Edotaccent" unicode="&#x116;" 
d="M455 104v-104h-410v660h396v-104h-280v-169h266v-94h-266v-189h294zM173.5 771.5q-24.5 18.5 -24.5 54.5q0 35 24 53.5t67 18.5t67 -18.5t24 -53.5q0 -36 -24.5 -54.5t-66.5 -18.5t-66.5 18.5z" />
    <glyph glyph-name="edotaccent" unicode="&#x117;" 
d="M448 205h-298q8 -57 37 -83t87 -26q86 0 150 25v-103q-65 -26 -152 -26q-125 0 -182.5 66.5t-57.5 191.5q0 128 59.5 193t158.5 65q94 0 146 -59t52 -182v-62zM336 291q0 63 -22 88t-64 25q-43 0 -68.5 -24.5t-31.5 -88.5h186zM173.5 611.5q-24.5 18.5 -24.5 54.5
q0 35 24 53.5t67 18.5t67 -18.5t24 -53.5q0 -36 -24.5 -54.5t-66.5 -18.5t-66.5 18.5z" />
    <glyph glyph-name="Eogonek" unicode="&#x118;" 
d="M455 104v-104h-19q-69 -63 -69 -105q0 -28 43 -28q23 0 45 5v-82q-26 -7 -65 -7q-57 0 -91 24.5t-34 64.5q0 67 72 128h-292v660h396v-104h-280v-169h266v-94h-266v-189h294z" />
    <glyph glyph-name="eogonek" unicode="&#x119;" 
d="M448 205h-298q8 -57 37 -83t87 -26q86 0 150 25v-103l-19 -18q-69 -63 -69 -105q0 -28 43 -28q23 0 45 5v-82q-26 -7 -65 -7q-57 0 -91 24.5t-34 64.5q0 62 64 121q-9 -1 -26 -1q-125 0 -182.5 66.5t-57.5 191.5q0 128 59.5 193t158.5 65q94 0 146 -59t52 -182v-62z
M336 291q0 63 -22 88t-64 25q-43 0 -68.5 -24.5t-31.5 -88.5h186z" />
    <glyph glyph-name="Ecaron" unicode="&#x11a;" 
d="M455 104v-104h-410v660h396v-104h-280v-169h266v-94h-266v-189h294zM393 910l-90 -174h-126l-90 174h106l47 -105l47 105h106z" />
    <glyph glyph-name="ecaron" unicode="&#x11b;" 
d="M448 205h-298q8 -57 37 -83t87 -26q86 0 150 25v-103q-65 -26 -152 -26q-125 0 -182.5 66.5t-57.5 191.5q0 128 59.5 193t158.5 65q94 0 146 -59t52 -182v-62zM336 291q0 63 -22 88t-64 25q-43 0 -68.5 -24.5t-31.5 -88.5h186zM393 750l-90 -174h-126l-90 174h106
l47 -105l47 105h106z" />
    <glyph glyph-name="Gbreve" unicode="&#x11e;" 
d="M445 351v-313q-24 -19 -67 -32.5t-103 -13.5q-132 0 -194.5 90.5t-62.5 247.5q0 165 67 251.5t200 86.5q49 0 87.5 -10.5t60.5 -24.5v-115q-30 21 -69 33.5t-79 12.5q-79 0 -115 -56.5t-36 -177.5q0 -117 35 -175.5t118 -58.5q24 0 50 8v153h-97v94h205zM384.5 813.5
q-20.5 -40.5 -55.5 -61t-77 -20.5q-66 0 -109.5 47t-43.5 131h94q0 -44 16.5 -64t42.5 -20t42.5 20t16.5 64h94q0 -56 -20.5 -96.5z" />
    <glyph glyph-name="gbreve" unicode="&#x11f;" 
d="M420 500v-501q0 -112 -56 -164.5t-152 -52.5q-30 0 -65.5 6.5t-63.5 18.5l-1 109q67 -30 121 -30q51 0 76 26t25 87v1l12 85h-6q-19 -93 -92 -93q-90 0 -138 68.5t-48 186.5q0 80 24.5 139t66 90.5t91.5 31.5q45 0 71 -24.5t29 -64.5h5l23 81h78zM304 128v231
q-12 24 -27.5 34.5t-36.5 10.5q-44 0 -68 -40t-24 -116q0 -152 97 -152q36 0 59 32zM372.5 653.5q-20.5 -40.5 -55.5 -61t-77 -20.5q-66 0 -109.5 47t-43.5 131h94q0 -44 16.5 -64t42.5 -20t42.5 20t16.5 64h94q0 -56 -20.5 -96.5z" />
    <glyph glyph-name="Gdotaccent" unicode="&#x120;" 
d="M445 351v-313q-24 -19 -67 -32.5t-103 -13.5q-132 0 -194.5 90.5t-62.5 247.5q0 165 67 251.5t200 86.5q49 0 87.5 -10.5t60.5 -24.5v-115q-30 21 -69 33.5t-79 12.5q-79 0 -115 -56.5t-36 -177.5q0 -117 35 -175.5t118 -58.5q24 0 50 8v153h-97v94h205zM185.5 771.5
q-24.5 18.5 -24.5 54.5q0 35 24 53.5t67 18.5t67 -18.5t24 -53.5q0 -36 -24.5 -54.5t-66.5 -18.5t-66.5 18.5z" />
    <glyph glyph-name="gdotaccent" unicode="&#x121;" 
d="M420 500v-501q0 -112 -56 -164.5t-152 -52.5q-30 0 -65.5 6.5t-63.5 18.5l-1 109q67 -30 121 -30q51 0 76 26t25 87v1l12 85h-6q-19 -93 -92 -93q-90 0 -138 68.5t-48 186.5q0 80 24.5 139t66 90.5t91.5 31.5q45 0 71 -24.5t29 -64.5h5l23 81h78zM304 128v231
q-12 24 -27.5 34.5t-36.5 10.5q-44 0 -68 -40t-24 -116q0 -152 97 -152q36 0 59 32zM173.5 611.5q-24.5 18.5 -24.5 54.5q0 35 24 53.5t67 18.5t67 -18.5t24 -53.5q0 -36 -24.5 -54.5t-66.5 -18.5t-66.5 18.5z" />
    <glyph glyph-name="uni0122" unicode="&#x122;" 
d="M445 351v-313q-24 -19 -67 -32.5t-103 -13.5q-132 0 -194.5 90.5t-62.5 247.5q0 165 67 251.5t200 86.5q49 0 87.5 -10.5t60.5 -24.5v-115q-30 21 -69 33.5t-79 12.5q-79 0 -115 -56.5t-36 -177.5q0 -117 35 -175.5t118 -58.5q24 0 50 8v153h-97v94h205zM128 -311
q154 28 154 149q0 19 -4 30h-3q-4 -26 -18.5 -39.5t-37.5 -13.5q-31 0 -50 16.5t-19 50.5q0 37 26 57.5t69 20.5q57 0 88 -38.5t31 -95.5q0 -89 -63.5 -148t-172.5 -73v84z" />
    <glyph glyph-name="uni0123" unicode="&#x123;" 
d="M420 500v-501q0 -112 -56 -164.5t-152 -52.5q-30 0 -65.5 6.5t-63.5 18.5l-1 109q67 -30 121 -30q51 0 76 26t25 87v1l12 85h-6q-19 -93 -92 -93q-90 0 -138 68.5t-48 186.5q0 80 24.5 139t66 90.5t91.5 31.5q45 0 71 -24.5t29 -64.5h5l23 81h78zM304 128v231
q-12 24 -27.5 34.5t-36.5 10.5q-44 0 -68 -40t-24 -116q0 -152 97 -152q36 0 59 32zM355 849q-154 -28 -154 -149q0 -19 4 -30h3q4 26 18.5 39.5t37.5 13.5q31 0 50 -16.5t19 -50.5q0 -37 -26 -57.5t-69 -20.5q-57 0 -88 38.5t-31 95.5q0 89 63.5 148t172.5 73v-84z" />
    <glyph glyph-name="Hbar" unicode="&#x126;" 
d="M480 494h-35v-494h-116v298h-178v-298h-116v494h-35v66h35v100h116v-100h178v100h116v-100h35v-66zM329 494h-178v-92h178v92z" />
    <glyph glyph-name="hbar" unicode="&#x127;" 
d="M470 99v-99q-18 -8 -54 -8q-65 0 -88.5 34t-23.5 98v203q0 40 -13.5 58.5t-46.5 18.5q-24 0 -40 -8.5t-28 -30.5v-365h-116v571h-52v66h52v113h116v-113h148v-66h-148v-51l-6 -111h3q8 52 30 75.5t78 23.5q74 0 106.5 -46t32.5 -124v-189q0 -26 5.5 -39.5t24.5 -13.5
q11 0 20 3z" />
    <glyph glyph-name="Imacron" unicode="&#x12a;" 
d="M298 556v-452h98v-104h-312v104h98v452h-98v104h312v-104h-98zM413 856v-84h-346v84h346z" />
    <glyph glyph-name="imacron" unicode="&#x12b;" 
d="M467 103v-100q-7 -4 -25.5 -7.5t-37.5 -3.5q-151 0 -203 143q-25 -59 -69 -135h-122q79 121 116 201t49 156v143h116v-178q0 -121 31 -173.5t91 -52.5q33 0 54 7zM406 696v-84h-346v84h346z" />
    <glyph glyph-name="Iogonek" unicode="&#x12e;" 
d="M298 556v-452h98v-104h-97q-69 -63 -69 -105q0 -28 43 -28q23 0 45 5v-82q-26 -7 -65 -7q-57 0 -91 24.5t-34 64.5q0 67 72 128h-116v104h98v452h-98v104h312v-104h-98z" />
    <glyph glyph-name="iogonek" unicode="&#x12f;" 
d="M166.5 605q-24.5 19 -24.5 54t24 54t67 19t67 -19t24 -54t-24.5 -54t-66.5 -19t-66.5 19zM467 103v-100q-9 -4 -23 -7q-65 -60 -65 -101q0 -28 43 -28q23 0 45 5v-82q-26 -7 -65 -7q-57 0 -91 24.5t-34 64.5q0 65 70 126q-104 23 -146 137q-25 -62 -69 -135h-122
q77 116 113.5 195t51.5 153v152h116v-178q0 -121 31 -173.5t91 -52.5q33 0 54 7z" />
    <glyph glyph-name="Idotaccent" unicode="&#x130;" 
d="M298 556v-452h98v-104h-312v104h98v452h-98v104h312v-104h-98zM173.5 771.5q-24.5 18.5 -24.5 54.5q0 35 24 53.5t67 18.5t67 -18.5t24 -53.5q0 -36 -24.5 -54.5t-66.5 -18.5t-66.5 18.5z" />
    <glyph glyph-name="dotlessi" unicode="&#x131;" 
d="M467 103v-100q-7 -4 -25.5 -7.5t-37.5 -3.5q-151 0 -203 143q-25 -59 -69 -135h-122q79 121 116 201t49 156v143h116v-178q0 -121 31 -173.5t91 -52.5q33 0 54 7z" />
    <glyph glyph-name="uni0136" unicode="&#x136;" 
d="M181 278h-30v-278h-116v660h116v-278h29l154 278h129l-182 -323l199 -337h-136zM116 -311q154 28 154 149q0 19 -4 30h-3q-4 -26 -18.5 -39.5t-37.5 -13.5q-31 0 -50 16.5t-19 50.5q0 37 26 57.5t69 20.5q57 0 88 -38.5t31 -95.5q0 -89 -63.5 -148t-172.5 -73v84z" />
    <glyph glyph-name="uni0137" unicode="&#x137;" 
d="M189 200h-13v-200h-116v750h116v-446h12l127 196h135l-162 -245l192 -255h-147zM116 -311q154 28 154 149q0 19 -4 30h-3q-4 -26 -18.5 -39.5t-37.5 -13.5q-31 0 -50 16.5t-19 50.5q0 37 26 57.5t69 20.5q57 0 88 -38.5t31 -95.5q0 -89 -63.5 -148t-172.5 -73v84z" />
    <glyph glyph-name="Lacute" unicode="&#x139;" 
d="M455 114v-114h-390v660h116v-546h274zM162 736h-101l90 174h131z" />
    <glyph glyph-name="lacute" unicode="&#x13a;" 
d="M466 99v-101q-20 -6 -53 -6q-60 0 -112.5 25t-93.5 72q-17 -29 -57 -89h-132q66 92 127 186q-65 135 -65 336q0 132 39.5 185t113.5 53q75 0 113 -50t38 -155q0 -62 -9 -112.5t-34 -110.5t-73 -143q60 -93 155 -93q27 0 43 3zM218 310q37 72 47.5 121.5t10.5 117.5
q0 62 -11 84.5t-32 22.5t-30 -30t-9 -104q0 -122 24 -212zM254 836h-101l90 174h131z" />
    <glyph glyph-name="uni013B" unicode="&#x13b;" 
d="M455 114v-114h-390v660h116v-546h274zM116 -311q154 28 154 149q0 19 -4 30h-3q-4 -26 -18.5 -39.5t-37.5 -13.5q-31 0 -50 16.5t-19 50.5q0 37 26 57.5t69 20.5q57 0 88 -38.5t31 -95.5q0 -89 -63.5 -148t-172.5 -73v84z" />
    <glyph glyph-name="uni013C" unicode="&#x13c;" 
d="M466 99v-101q-20 -6 -53 -6q-60 0 -112.5 25t-93.5 72q-17 -29 -57 -89h-132q66 92 127 186q-65 135 -65 336q0 132 39.5 185t113.5 53q75 0 113 -50t38 -155q0 -62 -9 -112.5t-34 -110.5t-73 -143q60 -93 155 -93q27 0 43 3zM218 310q37 72 47.5 121.5t10.5 117.5
q0 62 -11 84.5t-32 22.5t-30 -30t-9 -104q0 -122 24 -212zM116 -311q154 28 154 149q0 19 -4 30h-3q-4 -26 -18.5 -39.5t-37.5 -13.5q-31 0 -50 16.5t-19 50.5q0 37 26 57.5t69 20.5q57 0 88 -38.5t31 -95.5q0 -89 -63.5 -148t-172.5 -73v84z" />
    <glyph glyph-name="Lcaron" unicode="&#x13d;" 
d="M455 114v-114h-390v660h116v-546h274zM294 910l-90 -174h-126l-90 174h106l47 -105l47 105h106z" />
    <glyph glyph-name="lcaron" unicode="&#x13e;" 
d="M466 99v-101q-20 -6 -53 -6q-60 0 -112.5 25t-93.5 72q-17 -29 -57 -89h-132q66 92 127 186q-65 135 -65 336q0 132 39.5 185t113.5 53q75 0 113 -50t38 -155q0 -62 -9 -112.5t-34 -110.5t-73 -143q60 -93 155 -93q27 0 43 3zM218 310q37 72 47.5 121.5t10.5 117.5
q0 62 -11 84.5t-32 22.5t-30 -30t-9 -104q0 -122 24 -212zM386 1010l-90 -174h-126l-90 174h106l47 -105l47 105h106z" />
    <glyph glyph-name="Lslash" unicode="&#x141;" 
d="M455 114v-114h-390v254l-40 -18l-26 58l66 30v336h116v-282l102 47l26 -58l-128 -59v-194h274z" />
    <glyph glyph-name="lslash" unicode="&#x142;" 
d="M466 99v-101q-20 -6 -53 -6q-60 0 -112.5 25t-93.5 72q-17 -29 -57 -89h-132q64 89 102 148l-81 -11l-8 68l99 14q-50 128 -50 303q0 132 39.5 185t113.5 53q75 0 113 -50t38 -155q0 -83 -17.5 -150t-68.5 -163l102 14l8 -68l-127 -18q57 -74 142 -74q27 0 43 3zM203 626
q-9 -30 -9 -104q0 -122 24 -212q37 72 47.5 121.5t10.5 117.5q0 62 -11 84.5t-32 22.5t-30 -30z" />
    <glyph glyph-name="Nacute" unicode="&#x143;" 
d="M445 660v-660h-116l-189 471l11 -471h-116v660h129l175 -438l-10 438h116zM261 736h-101l90 174h131z" />
    <glyph glyph-name="nacute" unicode="&#x144;" 
d="M470 99v-99q-18 -8 -54 -8q-65 0 -88.5 34t-23.5 98v203q0 40 -13.5 58.5t-46.5 18.5q-49 0 -68 -42v-362h-116v500h68l39 -82h5q8 90 109 90q74 0 106.5 -46t32.5 -124v-189q0 -26 5.5 -39.5t24.5 -13.5q11 0 20 3zM261 576h-101l90 174h131z" />
    <glyph glyph-name="uni0145" unicode="&#x145;" 
d="M445 660v-660h-116l-189 471l11 -471h-116v660h129l175 -438l-10 438h116zM116 -311q154 28 154 149q0 19 -4 30h-3q-4 -26 -18.5 -39.5t-37.5 -13.5q-31 0 -50 16.5t-19 50.5q0 37 26 57.5t69 20.5q57 0 88 -38.5t31 -95.5q0 -89 -63.5 -148t-172.5 -73v84z" />
    <glyph glyph-name="uni0146" unicode="&#x146;" 
d="M470 99v-99q-18 -8 -54 -8q-65 0 -88.5 34t-23.5 98v203q0 40 -13.5 58.5t-46.5 18.5q-49 0 -68 -42v-362h-116v500h68l39 -82h5q8 90 109 90q74 0 106.5 -46t32.5 -124v-189q0 -26 5.5 -39.5t24.5 -13.5q11 0 20 3zM116 -311q154 28 154 149q0 19 -4 30h-3
q-4 -26 -18.5 -39.5t-37.5 -13.5q-31 0 -50 16.5t-19 50.5q0 37 26 57.5t69 20.5q57 0 88 -38.5t31 -95.5q0 -89 -63.5 -148t-172.5 -73v84z" />
    <glyph glyph-name="Ncaron" unicode="&#x147;" 
d="M445 660v-660h-116l-189 471l11 -471h-116v660h129l175 -438l-10 438h116zM393 910l-90 -174h-126l-90 174h106l47 -105l47 105h106z" />
    <glyph glyph-name="ncaron" unicode="&#x148;" 
d="M470 99v-99q-18 -8 -54 -8q-65 0 -88.5 34t-23.5 98v203q0 40 -13.5 58.5t-46.5 18.5q-49 0 -68 -42v-362h-116v500h68l39 -82h5q8 90 109 90q74 0 106.5 -46t32.5 -124v-189q0 -26 5.5 -39.5t24.5 -13.5q11 0 20 3zM393 750l-90 -174h-126l-90 174h106l47 -105l47 105
h106z" />
    <glyph glyph-name="Eng" unicode="&#x14a;" 
d="M445 660v-710q0 -82 -39 -125t-104 -43q-22 0 -42 3t-29 7v101q21 -7 45 -7q27 0 40 16t13 55v43l-189 471l11 -471h-116v660h129l175 -438l-10 438h116z" />
    <glyph glyph-name="eng" unicode="&#x14b;" 
d="M387.5 462q32.5 -46 32.5 -124v-388q0 -82 -39 -125t-104 -43q-22 0 -42 3t-29 7v101q21 -7 45 -7q27 0 40 16t13 55v370q0 40 -13.5 58.5t-46.5 18.5q-49 0 -68 -42v-362h-116v500h68l39 -82h5q8 90 109 90q74 0 106.5 -46z" />
    <glyph glyph-name="Omacron" unicode="&#x14c;" 
d="M74 73.5q-56 81.5 -56 256.5t56 256.5t166 81.5t166 -81.5t56 -256.5t-56 -256.5t-166 -81.5t-166 81.5zM346 330q0 234 -106 234q-52 0 -79 -56.5t-27 -177.5t27 -177.5t79 -56.5q106 0 106 234zM413 856v-84h-346v84h346z" />
    <glyph glyph-name="omacron" unicode="&#x14d;" 
d="M87 62.5q-55 70.5 -55 187.5t55 187.5t153 70.5t153 -71t55 -187t-55 -187t-153 -71t-153 70.5zM309.5 138q22.5 42 22.5 112t-22.5 112t-69.5 42t-69.5 -42t-22.5 -112t22.5 -112t69.5 -42t69.5 42zM413 696v-84h-346v84h346z" />
    <glyph glyph-name="Ohungarumlaut" unicode="&#x150;" 
d="M74 73.5q-56 81.5 -56 256.5t56 256.5t166 81.5t166 -81.5t56 -256.5t-56 -256.5t-166 -81.5t-166 81.5zM346 330q0 234 -106 234q-52 0 -79 -56.5t-27 -177.5t27 -177.5t79 -56.5q106 0 106 234zM156 736h-92l90 174h122zM356 736h-92l90 174h122z" />
    <glyph glyph-name="ohungarumlaut" unicode="&#x151;" 
d="M87 62.5q-55 70.5 -55 187.5t55 187.5t153 70.5t153 -71t55 -187t-55 -187t-153 -71t-153 70.5zM309.5 138q22.5 42 22.5 112t-22.5 112t-69.5 42t-69.5 -42t-22.5 -112t22.5 -112t69.5 -42t69.5 42zM156 576h-92l90 174h122zM356 576h-92l90 174h122z" />
    <glyph glyph-name="OE" unicode="&#x152;" 
d="M468 104v-104h-228q-106 0 -160 79.5t-54 250.5t54 250.5t160 79.5h214v-104h-98v-169h88v-94h-88v-189h112zM240 556q-49 0 -73.5 -54.5t-24.5 -171.5t24.5 -171.5t73.5 -54.5v452z" />
    <glyph glyph-name="oe" unicode="&#x153;" 
d="M456 206h-159q5 -66 25 -90t55 -24q12 0 31.5 4t33.5 10v-100q-14 -6 -34 -10t-37 -4q-42 0 -71.5 12.5t-47.5 39.5q-14 -26 -35 -39t-52 -13q-73 0 -107 64t-34 194t34 194t107 64q57 0 84 -46q30 46 84 46q65 0 94 -52t29 -169v-81zM189 126q5 34 5 124t-5 124t-24 34
q-17 0 -25.5 -17t-11 -49t-2.5 -92t2.5 -92t11 -49t25.5 -17q19 0 24 34zM364 290q0 68 -7 93t-24 25q-18 0 -26.5 -25t-10.5 -93h68z" />
    <glyph glyph-name="Racute" unicode="&#x154;" 
d="M244 248h-93v-248h-116v660h202q105 0 156.5 -49t51.5 -157q0 -135 -82 -181l110 -273h-129zM151 334h77q101 0 101 110q0 62 -23 87t-83 25h-72v-222zM233 736h-101l90 174h131z" />
    <glyph glyph-name="racute" unicode="&#x155;" 
d="M472 102v-104q-14 -6 -41 -6q-46 0 -84.5 22t-62 67.5t-23.5 112.5q0 101 56 197v5h-132q-11 -180 -41 -396h-134q28 121 47 235t24 195q-20 13 -31.5 35t-11.5 49q0 37 26.5 64.5t76.5 27.5q29 0 51 -6q0 -32 -2 -100h243v-104q-21 -22 -38.5 -67.5t-17.5 -95.5
q0 -68 20.5 -100.5t55.5 -32.5q11 0 19 2zM329 576h-101l90 174h131z" />
    <glyph glyph-name="uni0156" unicode="&#x156;" 
d="M244 248h-93v-248h-116v660h202q105 0 156.5 -49t51.5 -157q0 -135 -82 -181l110 -273h-129zM151 334h77q101 0 101 110q0 62 -23 87t-83 25h-72v-222zM116 -311q154 28 154 149q0 19 -4 30h-3q-4 -26 -18.5 -39.5t-37.5 -13.5q-31 0 -50 16.5t-19 50.5q0 37 26 57.5
t69 20.5q57 0 88 -38.5t31 -95.5q0 -89 -63.5 -148t-172.5 -73v84z" />
    <glyph glyph-name="uni0157" unicode="&#x157;" 
d="M472 102v-104q-14 -6 -41 -6q-46 0 -84.5 22t-62 67.5t-23.5 112.5q0 101 56 197v5h-132q-11 -180 -41 -396h-134q28 121 47 235t24 195q-20 13 -31.5 35t-11.5 49q0 37 26.5 64.5t76.5 27.5q29 0 51 -6q0 -32 -2 -100h243v-104q-21 -22 -38.5 -67.5t-17.5 -95.5
q0 -68 20.5 -100.5t55.5 -32.5q11 0 19 2zM116 -311q154 28 154 149q0 19 -4 30h-3q-4 -26 -18.5 -39.5t-37.5 -13.5q-31 0 -50 16.5t-19 50.5q0 37 26 57.5t69 20.5q57 0 88 -38.5t31 -95.5q0 -89 -63.5 -148t-172.5 -73v84z" />
    <glyph glyph-name="Rcaron" unicode="&#x158;" 
d="M244 248h-93v-248h-116v660h202q105 0 156.5 -49t51.5 -157q0 -135 -82 -181l110 -273h-129zM151 334h77q101 0 101 110q0 62 -23 87t-83 25h-72v-222zM365 910l-90 -174h-126l-90 174h106l47 -105l47 105h106z" />
    <glyph glyph-name="rcaron" unicode="&#x159;" 
d="M472 102v-104q-14 -6 -41 -6q-46 0 -84.5 22t-62 67.5t-23.5 112.5q0 101 56 197v5h-132q-11 -180 -41 -396h-134q28 121 47 235t24 195q-20 13 -31.5 35t-11.5 49q0 37 26.5 64.5t76.5 27.5q29 0 51 -6q0 -32 -2 -100h243v-104q-21 -22 -38.5 -67.5t-17.5 -95.5
q0 -68 20.5 -100.5t55.5 -32.5q11 0 19 2zM461 750l-90 -174h-126l-90 174h106l47 -105l47 105h106z" />
    <glyph glyph-name="Sacute" unicode="&#x15a;" 
d="M90 616.5q55 51.5 162 51.5q47 0 91.5 -9t64.5 -20v-108q-26 12 -68 22.5t-86 10.5q-103 0 -103 -79q0 -32 16.5 -50.5t57.5 -34.5l84 -33q67 -26 101.5 -66t34.5 -116q0 -86 -55 -139.5t-160 -53.5q-56 0 -104 12t-69 24v112q24 -15 71.5 -29.5t99.5 -14.5q101 0 101 89
q0 31 -16 50t-55 34l-90 35q-70 27 -101.5 67.5t-31.5 99.5q0 94 55 145.5zM261 736h-101l90 174h131z" />
    <glyph glyph-name="sacute" unicode="&#x15b;" 
d="M88 465q56 43 153 43q58 0 100.5 -9t64.5 -20v-104q-63 29 -163 29q-44 0 -69.5 -13.5t-25.5 -40.5q0 -19 16 -30t58 -18l66 -10q86 -13 123 -47t37 -95q0 -77 -56.5 -117.5t-160.5 -40.5q-64 0 -110.5 11.5t-67.5 24.5v104q24 -13 69 -24.5t107 -11.5q103 0 103 54
q0 22 -18 31.5t-57 15.5l-61 9q-83 12 -123.5 43t-40.5 101q0 72 56 115zM261 576h-101l90 174h131z" />
    <glyph glyph-name="Scedilla" unicode="&#x15e;" 
d="M402.5 58q-42.5 -51 -126.5 -63l-13 -42q15 4 34 4q42 0 65 -24.5t23 -61.5q0 -58 -47 -88t-110 -30q-62 0 -114 15v76q57 -15 114 -15q63 0 63 32q0 28 -58 28q-38 0 -71 -7l28 112q-43 3 -79 13.5t-54 20.5v112q24 -15 71.5 -29.5t99.5 -14.5q101 0 101 89q0 31 -16 50
t-55 34l-90 35q-70 27 -101.5 67.5t-31.5 99.5q0 94 55 145.5t162 51.5q47 0 91.5 -9t64.5 -20v-108q-26 12 -68 22.5t-86 10.5q-103 0 -103 -79q0 -32 16.5 -50.5t57.5 -34.5l84 -33q67 -26 101.5 -66t34.5 -116t-42.5 -127z" />
    <glyph glyph-name="scedilla" unicode="&#x15f;" 
d="M403.5 42q-44.5 -40 -127.5 -48l-13 -41q15 4 34 4q42 0 65 -24.5t23 -61.5q0 -58 -47 -88t-110 -30q-62 0 -114 15v76q57 -15 114 -15q63 0 63 32q0 28 -58 28q-38 0 -71 -7l28 111q-49 4 -84.5 14.5t-52.5 20.5v104q24 -13 69 -24.5t107 -11.5q103 0 103 54
q0 22 -18 31.5t-57 15.5l-61 9q-83 12 -123.5 43t-40.5 101q0 72 56 115t153 43q58 0 100.5 -9t64.5 -20v-104q-63 29 -163 29q-44 0 -69.5 -13.5t-25.5 -40.5q0 -19 16 -30t58 -18l66 -10q86 -13 123 -47t37 -95q0 -68 -44.5 -108z" />
    <glyph glyph-name="Scaron" unicode="&#x160;" 
d="M90 616.5q55 51.5 162 51.5q47 0 91.5 -9t64.5 -20v-108q-26 12 -68 22.5t-86 10.5q-103 0 -103 -79q0 -32 16.5 -50.5t57.5 -34.5l84 -33q67 -26 101.5 -66t34.5 -116q0 -86 -55 -139.5t-160 -53.5q-56 0 -104 12t-69 24v112q24 -15 71.5 -29.5t99.5 -14.5q101 0 101 89
q0 31 -16 50t-55 34l-90 35q-70 27 -101.5 67.5t-31.5 99.5q0 94 55 145.5zM393 910l-90 -174h-126l-90 174h106l47 -105l47 105h106z" />
    <glyph glyph-name="scaron" unicode="&#x161;" 
d="M88 465q56 43 153 43q58 0 100.5 -9t64.5 -20v-104q-63 29 -163 29q-44 0 -69.5 -13.5t-25.5 -40.5q0 -19 16 -30t58 -18l66 -10q86 -13 123 -47t37 -95q0 -77 -56.5 -117.5t-160.5 -40.5q-64 0 -110.5 11.5t-67.5 24.5v104q24 -13 69 -24.5t107 -11.5q103 0 103 54
q0 22 -18 31.5t-57 15.5l-61 9q-83 12 -123.5 43t-40.5 101q0 72 56 115zM393 750l-90 -174h-126l-90 174h106l47 -105l47 105h106z" />
    <glyph glyph-name="Tcaron" unicode="&#x164;" 
d="M470 556h-172v-556h-116v556h-172v104h460v-104zM393 910l-90 -174h-126l-90 174h106l47 -105l47 105h106z" />
    <glyph glyph-name="tcaron" unicode="&#x165;" 
d="M238 396v-159q0 -56 11 -86t35 -42.5t66 -12.5q21 0 48.5 4.5t44.5 9.5v-101q-12 -5 -42.5 -11t-50.5 -6q-84 0 -133.5 22.5t-72 75.5t-22.5 147v159h-111v104h111v132h116v-132h217v-104h-217zM268 607q154 28 154 149q0 19 -4 30h-3q-4 -26 -18.5 -39.5t-37.5 -13.5
q-31 0 -50 16.5t-19 50.5q0 37 26 57.5t69 20.5q57 0 88 -38.5t31 -95.5q0 -89 -63.5 -148t-172.5 -73v84z" />
    <glyph glyph-name="Tbar" unicode="&#x166;" 
d="M298 556v-193h100v-66h-100v-297h-116v297h-100v66h100v193h-172v104h460v-104h-172z" />
    <glyph glyph-name="tbar" unicode="&#x167;" 
d="M238 396v-89h140v-66h-140v-4q0 -56 11 -86t35 -42.5t66 -12.5q21 0 48.5 4.5t44.5 9.5v-101q-12 -5 -42.5 -11t-50.5 -6q-84 0 -133.5 22.5t-72 75.5t-22.5 147v4h-60v66h60v89h-111v104h111v132h116v-132h217v-104h-217z" />
    <glyph glyph-name="Umacron" unicode="&#x16a;" 
d="M35 660h116v-409q0 -61 9.5 -94t28.5 -46t51 -13t51 13t28.5 46t9.5 94v409h116v-403q0 -143 -54.5 -204t-150.5 -61t-150.5 61t-54.5 204v403zM413 856v-84h-346v84h346z" />
    <glyph glyph-name="umacron" unicode="&#x16b;" 
d="M470 99v-99q-18 -8 -53 -8q-86 0 -107 87h-3q-5 -42 -31.5 -64.5t-69.5 -22.5q-69 0 -107 50.5t-38 146.5v207h-49v104h165v-283q0 -64 12 -92.5t49 -28.5q47 0 66 57v347h116v-351q0 -29 6.5 -41t24.5 -12q7 0 19 3zM413 696v-84h-346v84h346z" />
    <glyph glyph-name="Ubreve" unicode="&#x16c;" 
d="M35 660h116v-409q0 -61 9.5 -94t28.5 -46t51 -13t51 13t28.5 46t9.5 94v409h116v-403q0 -143 -54.5 -204t-150.5 -61t-150.5 61t-54.5 204v403zM372.5 813.5q-20.5 -40.5 -55.5 -61t-77 -20.5q-66 0 -109.5 47t-43.5 131h94q0 -44 16.5 -64t42.5 -20t42.5 20t16.5 64h94
q0 -56 -20.5 -96.5z" />
    <glyph glyph-name="ubreve" unicode="&#x16d;" 
d="M470 99v-99q-18 -8 -53 -8q-86 0 -107 87h-3q-5 -42 -31.5 -64.5t-69.5 -22.5q-69 0 -107 50.5t-38 146.5v207h-49v104h165v-283q0 -64 12 -92.5t49 -28.5q47 0 66 57v347h116v-351q0 -29 6.5 -41t24.5 -12q7 0 19 3zM372.5 653.5q-20.5 -40.5 -55.5 -61t-77 -20.5
q-66 0 -109.5 47t-43.5 131h94q0 -44 16.5 -64t42.5 -20t42.5 20t16.5 64h94q0 -56 -20.5 -96.5z" />
    <glyph glyph-name="Uring" unicode="&#x16e;" 
d="M35 660h116v-409q0 -61 9.5 -94t28.5 -46t51 -13t51 13t28.5 46t9.5 94v409h116v-403q0 -143 -54.5 -204t-150.5 -61t-150.5 61t-54.5 204v403zM169 757.5q-33 17.5 -53.5 51t-20.5 78.5q0 44 20.5 77t53.5 50.5t71 17.5t71 -17.5t53.5 -50.5t20.5 -77t-20 -77.5
t-53.5 -51.5t-71.5 -18t-71 17.5zM283 838.5q18 16.5 18 48.5q0 31 -18 47t-43 16q-24 0 -42.5 -16t-18.5 -47q0 -32 18.5 -48.5t42.5 -16.5q25 0 43 16.5z" />
    <glyph glyph-name="uring" unicode="&#x16f;" 
d="M470 99v-99q-18 -8 -53 -8q-86 0 -107 87h-3q-5 -42 -31.5 -64.5t-69.5 -22.5q-69 0 -107 50.5t-38 146.5v207h-49v104h165v-283q0 -64 12 -92.5t49 -28.5q47 0 66 57v347h116v-351q0 -29 6.5 -41t24.5 -12q7 0 19 3zM169 597.5q-33 17.5 -53.5 51t-20.5 78.5
q0 44 20.5 77t53.5 50.5t71 17.5t71 -17.5t53.5 -50.5t20.5 -77t-20 -77.5t-53.5 -51.5t-71.5 -18t-71 17.5zM283 678.5q18 16.5 18 48.5q0 31 -18 47t-43 16q-24 0 -42.5 -16t-18.5 -47q0 -32 18.5 -48.5t42.5 -16.5q25 0 43 16.5z" />
    <glyph glyph-name="Uhungarumlaut" unicode="&#x170;" 
d="M35 660h116v-409q0 -61 9.5 -94t28.5 -46t51 -13t51 13t28.5 46t9.5 94v409h116v-403q0 -143 -54.5 -204t-150.5 -61t-150.5 61t-54.5 204v403zM156 736h-92l90 174h122zM356 736h-92l90 174h122z" />
    <glyph glyph-name="uhungarumlaut" unicode="&#x171;" 
d="M470 99v-99q-18 -8 -53 -8q-86 0 -107 87h-3q-5 -42 -31.5 -64.5t-69.5 -22.5q-69 0 -107 50.5t-38 146.5v207h-49v104h165v-283q0 -64 12 -92.5t49 -28.5q47 0 66 57v347h116v-351q0 -29 6.5 -41t24.5 -12q7 0 19 3zM156 576h-92l90 174h122zM356 576h-92l90 174h122z
" />
    <glyph glyph-name="Uogonek" unicode="&#x172;" 
d="M445 660v-403q0 -193 -106 -245l-13 -12q-69 -63 -69 -105q0 -28 43 -28q23 0 45 5v-82q-26 -7 -65 -7q-57 0 -91 24.5t-34 64.5q0 63 64 121q-87 6 -135.5 67.5t-48.5 196.5v403h116v-409q0 -61 9.5 -94t28.5 -46t51 -13t51 13t28.5 46t9.5 94v409h116z" />
    <glyph glyph-name="uogonek" unicode="&#x173;" 
d="M470 99v-99q-12 -5 -26 -6q-62 -60 -62 -99q0 -28 43 -28q23 0 45 5v-82q-26 -7 -65 -7q-57 0 -91 24.5t-34 64.5q0 67 72 128l7 6q-36 21 -49 73h-3q-5 -42 -31.5 -64.5t-69.5 -22.5q-69 0 -107 50.5t-38 146.5v207h-49v104h165v-283q0 -64 12 -92.5t49 -28.5
q47 0 66 57v347h116v-351q0 -29 6.5 -41t24.5 -12q7 0 19 3z" />
    <glyph glyph-name="Wcircumflex" unicode="&#x174;" 
d="M113 660l22 -367l-5 -139h13l65 256h64l65 -256h13l-5 139l22 367h113l-50 -660h-131l-56 218h-6l-56 -218h-131l-50 660h113zM80 824l160 100l160 -100v-108l-160 100l-160 -100v108z" />
    <glyph glyph-name="wcircumflex" unicode="&#x175;" 
d="M115 500l20 -270l-2 -124h6l60 282h82l60 -282h6l-2 124l20 270h115l-60 -500h-133l-46 234h-2l-46 -234h-133l-60 500h115zM80 664l160 100l160 -100v-108l-160 100l-160 -100v108z" />
    <glyph glyph-name="Ycircumflex" unicode="&#x176;" 
d="M480 660l-182 -428v-232h-116v232l-182 428h125l112 -288h6l112 288h125zM80 824l160 100l160 -100v-108l-160 100l-160 -100v108z" />
    <glyph glyph-name="ycircumflex" unicode="&#x177;" 
d="M480 500l-119 -480q-20 -80 -41.5 -129t-62.5 -79t-110 -30q-20 0 -47 4.5t-46 10.5l-1 105q44 -16 80 -16q31 0 49.5 10t31.5 34t25 70h-78l-85 396h-66v104h164l83 -402h6l97 402h120zM80 664l160 100l160 -100v-108l-160 100l-160 -100v108z" />
    <glyph glyph-name="Ydieresis" unicode="&#x178;" 
d="M480 660l-182 -428v-232h-116v232l-182 428h125l112 -288h6l112 288h125zM292.5 771.5q-24.5 18.5 -24.5 54.5q0 35 24 53.5t67 18.5t67 -18.5t24 -53.5q0 -36 -24.5 -54.5t-66.5 -18.5t-66.5 18.5zM54.5 771.5q-24.5 18.5 -24.5 54.5q0 35 24 53.5t67 18.5t67 -18.5
t24 -53.5q0 -36 -24.5 -54.5t-66.5 -18.5t-66.5 18.5z" />
    <glyph glyph-name="Zacute" unicode="&#x179;" 
d="M45 81l252 475h-245v104h384v-82l-252 -474h252v-104h-391v81zM261 736h-101l90 174h131z" />
    <glyph glyph-name="zacute" unicode="&#x17a;" 
d="M29 94l264 302h-257v104h409v-94l-264 -302h271v-104h-423v94zM261 576h-101l90 174h131z" />
    <glyph glyph-name="Zdotaccent" unicode="&#x17b;" 
d="M45 81l252 475h-245v104h384v-82l-252 -474h252v-104h-391v81zM173.5 771.5q-24.5 18.5 -24.5 54.5q0 35 24 53.5t67 18.5t67 -18.5t24 -53.5q0 -36 -24.5 -54.5t-66.5 -18.5t-66.5 18.5z" />
    <glyph glyph-name="zdotaccent" unicode="&#x17c;" 
d="M29 94l264 302h-257v104h409v-94l-264 -302h271v-104h-423v94zM173.5 611.5q-24.5 18.5 -24.5 54.5q0 35 24 53.5t67 18.5t67 -18.5t24 -53.5q0 -36 -24.5 -54.5t-66.5 -18.5t-66.5 18.5z" />
    <glyph glyph-name="Zcaron" unicode="&#x17d;" 
d="M45 81l252 475h-245v104h384v-82l-252 -474h252v-104h-391v81zM393 910l-90 -174h-126l-90 174h106l47 -105l47 105h106z" />
    <glyph glyph-name="zcaron" unicode="&#x17e;" 
d="M29 94l264 302h-257v104h409v-94l-264 -302h271v-104h-423v94zM393 750l-90 -174h-126l-90 174h106l47 -105l47 105h106z" />
    <glyph glyph-name="uni0218" unicode="&#x218;" 
d="M90 616.5q55 51.5 162 51.5q47 0 91.5 -9t64.5 -20v-108q-26 12 -68 22.5t-86 10.5q-103 0 -103 -79q0 -32 16.5 -50.5t57.5 -34.5l84 -33q67 -26 101.5 -66t34.5 -116q0 -86 -55 -139.5t-160 -53.5q-56 0 -104 12t-69 24v112q24 -15 71.5 -29.5t99.5 -14.5q101 0 101 89
q0 31 -16 50t-55 34l-90 35q-70 27 -101.5 67.5t-31.5 99.5q0 94 55 145.5zM116 -311q154 28 154 149q0 19 -4 30h-3q-4 -26 -18.5 -39.5t-37.5 -13.5q-31 0 -50 16.5t-19 50.5q0 37 26 57.5t69 20.5q57 0 88 -38.5t31 -95.5q0 -89 -63.5 -148t-172.5 -73v84z" />
    <glyph glyph-name="uni0219" unicode="&#x219;" 
d="M88 465q56 43 153 43q58 0 100.5 -9t64.5 -20v-104q-63 29 -163 29q-44 0 -69.5 -13.5t-25.5 -40.5q0 -19 16 -30t58 -18l66 -10q86 -13 123 -47t37 -95q0 -77 -56.5 -117.5t-160.5 -40.5q-64 0 -110.5 11.5t-67.5 24.5v104q24 -13 69 -24.5t107 -11.5q103 0 103 54
q0 22 -18 31.5t-57 15.5l-61 9q-83 12 -123.5 43t-40.5 101q0 72 56 115zM116 -311q154 28 154 149q0 19 -4 30h-3q-4 -26 -18.5 -39.5t-37.5 -13.5q-31 0 -50 16.5t-19 50.5q0 37 26 57.5t69 20.5q57 0 88 -38.5t31 -95.5q0 -89 -63.5 -148t-172.5 -73v84z" />
    <glyph glyph-name="uni021A" unicode="&#x21a;" 
d="M470 556h-172v-556h-116v556h-172v104h460v-104zM116 -311q154 28 154 149q0 19 -4 30h-3q-4 -26 -18.5 -39.5t-37.5 -13.5q-31 0 -50 16.5t-19 50.5q0 37 26 57.5t69 20.5q57 0 88 -38.5t31 -95.5q0 -89 -63.5 -148t-172.5 -73v84z" />
    <glyph glyph-name="uni021B" unicode="&#x21b;" 
d="M238 396v-159q0 -56 11 -86t35 -42.5t66 -12.5q21 0 48.5 4.5t44.5 9.5v-101q-12 -5 -42.5 -11t-50.5 -6q-84 0 -133.5 22.5t-72 75.5t-22.5 147v159h-111v104h111v132h116v-132h217v-104h-217zM148 -311q154 28 154 149q0 19 -4 30h-3q-4 -26 -18.5 -39.5t-37.5 -13.5
q-31 0 -50 16.5t-19 50.5q0 37 26 57.5t69 20.5q57 0 88 -38.5t31 -95.5q0 -89 -63.5 -148t-172.5 -73v84z" />
    <glyph glyph-name="uni0237" unicode="&#x237;" 
d="M458 294q-46 -39 -115 -98v-210q0 -106 -41.5 -155t-116.5 -49t-118 45.5t-43 113.5q0 37 10.5 69t29.5 56q31 40 125 122l38 33v175h-133v104h249v-182q24 20 45.5 38.5t40.5 34.5l29 25v-122zM218.5 -91q8.5 23 8.5 76v111q-51 -48 -66 -71q-12 -19 -16.5 -37t-4.5 -39
q0 -30 11.5 -46.5t33.5 -16.5q25 0 33.5 23z" />
    <glyph glyph-name="gravecomb" unicode="&#x300;" horiz-adv-x="0" 
d="M-232 750l90 -174h-101l-120 174h131z" />
    <glyph glyph-name="acutecomb" unicode="&#x301;" horiz-adv-x="0" 
d="M-237 576h-101l90 174h131z" />
    <glyph glyph-name="uni0302" unicode="&#x302;" horiz-adv-x="0" 
d="M-400 664l160 100l160 -100v-108l-160 100l-160 -100v108z" />
    <glyph glyph-name="tildecomb" unicode="&#x303;" horiz-adv-x="0" 
d="M-219.5 594.5q-22.5 14.5 -40.5 42.5l-13 20q-16 24 -23.5 33.5t-13.5 9.5q-21 0 -21 -126h-84q0 117 27.5 163.5t79.5 46.5q25 0 45.5 -13.5t40.5 -43.5l14 -21q16 -23 23.5 -32.5t13.5 -9.5q22 0 22 116h84q0 -110 -28 -155t-80 -45q-24 0 -46.5 14.5z" />
    <glyph glyph-name="uni0304" unicode="&#x304;" horiz-adv-x="0" 
d="M-67 696v-84h-346v84h346z" />
    <glyph glyph-name="uni0306" unicode="&#x306;" horiz-adv-x="0" 
d="M-107.5 653.5q-20.5 -40.5 -55.5 -61t-77 -20.5q-66 0 -109.5 47t-43.5 131h94q0 -44 16.5 -64t42.5 -20t42.5 20t16.5 64h94q0 -56 -20.5 -96.5z" />
    <glyph glyph-name="uni0307" unicode="&#x307;" horiz-adv-x="0" 
d="M-306.5 611.5q-24.5 18.5 -24.5 54.5q0 35 24 53.5t67 18.5t67 -18.5t24 -53.5q0 -36 -24.5 -54.5t-66.5 -18.5t-66.5 18.5z" />
    <glyph glyph-name="uni0308" unicode="&#x308;" horiz-adv-x="0" 
d="M-187.5 611.5q-24.5 18.5 -24.5 54.5q0 35 24 53.5t67 18.5t67 -18.5t24 -53.5q0 -36 -24.5 -54.5t-66.5 -18.5t-66.5 18.5zM-425.5 611.5q-24.5 18.5 -24.5 54.5q0 35 24 53.5t67 18.5t67 -18.5t24 -53.5q0 -36 -24.5 -54.5t-66.5 -18.5t-66.5 18.5z" />
    <glyph glyph-name="uni030A" unicode="&#x30a;" horiz-adv-x="0" 
d="M-311 597.5q-33 17.5 -53.5 51t-20.5 78.5q0 44 20.5 77t53.5 50.5t71 17.5t71 -17.5t53.5 -50.5t20.5 -77t-20 -77.5t-53.5 -51.5t-71.5 -18t-71 17.5zM-197 678.5q18 16.5 18 48.5q0 31 -18 47t-43 16q-24 0 -42.5 -16t-18.5 -47q0 -32 18.5 -48.5t42.5 -16.5
q25 0 43 16.5z" />
    <glyph glyph-name="uni030B" unicode="&#x30b;" horiz-adv-x="0" 
d="M-344 576h-92l90 174h122zM-144 576h-92l90 174h122z" />
    <glyph glyph-name="uni030C" unicode="&#x30c;" horiz-adv-x="0" 
d="M-87 750l-90 -174h-126l-90 174h106l47 -105l47 105h106z" />
    <glyph glyph-name="uni0312" unicode="&#x312;" horiz-adv-x="0" 
d="M-125 849q-154 -28 -154 -149q0 -19 4 -30h3q4 26 18.5 39.5t37.5 13.5q31 0 50 -16.5t19 -50.5q0 -37 -26 -57.5t-69 -20.5q-57 0 -88 38.5t-31 95.5q0 89 63.5 148t172.5 73v-84z" />
    <glyph glyph-name="uni0326" unicode="&#x326;" horiz-adv-x="0" 
d="M-364 -311q154 28 154 149q0 19 -4 30h-3q-4 -26 -18.5 -39.5t-37.5 -13.5q-31 0 -50 16.5t-19 50.5q0 37 26 57.5t69 20.5q57 0 88 -38.5t31 -95.5q0 -89 -63.5 -148t-172.5 -73v84z" />
    <glyph glyph-name="uni0327" unicode="&#x327;" horiz-adv-x="0" 
d="M-351 -156q57 -15 114 -15q63 0 63 32q0 28 -58 28q-38 0 -71 -7l30 118h86l-15 -47q15 4 34 4q42 0 65 -24.5t23 -61.5q0 -58 -47 -88t-110 -30q-62 0 -114 15v76z" />
    <glyph glyph-name="uni0328" unicode="&#x328;" horiz-adv-x="0" 
d="M-236 -217q-57 0 -91 24.5t-34 64.5q0 67 72 128l25 20l93 -2l-19 -18q-69 -63 -69 -105q0 -28 43 -28q23 0 45 5v-82q-26 -7 -65 -7z" />
    <glyph glyph-name="uni0335" unicode="&#x335;" horiz-adv-x="0" 
d="M-82 283v-66h-316v66h316z" />
    <glyph glyph-name="uni0336" unicode="&#x336;" horiz-adv-x="0" 
d="M0 283v-66h-480v66h480z" />
    <glyph glyph-name="uni0337" unicode="&#x337;" horiz-adv-x="0" 
d="M-112 345l26 -58l-284 -131l-26 58z" />
    <glyph glyph-name="uni0338" unicode="&#x338;" horiz-adv-x="0" 
d="M-70 660l55 -37l-395 -623l-55 37z" />
    <glyph glyph-name="Wgrave" unicode="&#x1e80;" 
d="M113 660l22 -367l-5 -139h13l65 256h64l65 -256h13l-5 139l22 367h113l-50 -660h-131l-56 218h-6l-56 -218h-131l-50 660h113zM230 910l90 -174h-101l-120 174h131z" />
    <glyph glyph-name="wgrave" unicode="&#x1e81;" 
d="M115 500l20 -270l-2 -124h6l60 282h82l60 -282h6l-2 124l20 270h115l-60 -500h-133l-46 234h-2l-46 -234h-133l-60 500h115zM230 750l90 -174h-101l-120 174h131z" />
    <glyph glyph-name="Wacute" unicode="&#x1e82;" 
d="M113 660l22 -367l-5 -139h13l65 256h64l65 -256h13l-5 139l22 367h113l-50 -660h-131l-56 218h-6l-56 -218h-131l-50 660h113zM261 736h-101l90 174h131z" />
    <glyph glyph-name="wacute" unicode="&#x1e83;" 
d="M115 500l20 -270l-2 -124h6l60 282h82l60 -282h6l-2 124l20 270h115l-60 -500h-133l-46 234h-2l-46 -234h-133l-60 500h115zM261 576h-101l90 174h131z" />
    <glyph glyph-name="Wdieresis" unicode="&#x1e84;" 
d="M113 660l22 -367l-5 -139h13l65 256h64l65 -256h13l-5 139l22 367h113l-50 -660h-131l-56 218h-6l-56 -218h-131l-50 660h113zM292.5 771.5q-24.5 18.5 -24.5 54.5q0 35 24 53.5t67 18.5t67 -18.5t24 -53.5q0 -36 -24.5 -54.5t-66.5 -18.5t-66.5 18.5zM54.5 771.5
q-24.5 18.5 -24.5 54.5q0 35 24 53.5t67 18.5t67 -18.5t24 -53.5q0 -36 -24.5 -54.5t-66.5 -18.5t-66.5 18.5z" />
    <glyph glyph-name="wdieresis" unicode="&#x1e85;" 
d="M115 500l20 -270l-2 -124h6l60 282h82l60 -282h6l-2 124l20 270h115l-60 -500h-133l-46 234h-2l-46 -234h-133l-60 500h115zM292.5 611.5q-24.5 18.5 -24.5 54.5q0 35 24 53.5t67 18.5t67 -18.5t24 -53.5q0 -36 -24.5 -54.5t-66.5 -18.5t-66.5 18.5zM54.5 611.5
q-24.5 18.5 -24.5 54.5q0 35 24 53.5t67 18.5t67 -18.5t24 -53.5q0 -36 -24.5 -54.5t-66.5 -18.5t-66.5 18.5z" />
    <glyph glyph-name="uni1E9E" unicode="&#x1e9e;" 
d="M427.5 322.5q34.5 -46.5 34.5 -120.5q0 -101 -51.5 -155.5t-135.5 -54.5q-40 0 -70 8v102q28 -8 52 -8q41 0 65.5 26t24.5 82q0 97 -96 97q-22 0 -42 -6v72l130 192q-45 9 -70 9q-63 0 -91 -34.5t-28 -113.5v-418h-115v418q0 126 56 188t177 62q40 0 85 -8.5t80 -21.5
v-110l-99 -149v-2q59 -8 93.5 -54.5z" />
    <glyph glyph-name="Ygrave" unicode="&#x1ef2;" 
d="M480 660l-182 -428v-232h-116v232l-182 428h125l112 -288h6l112 288h125zM230 910l90 -174h-101l-120 174h131z" />
    <glyph glyph-name="ygrave" unicode="&#x1ef3;" 
d="M480 500l-119 -480q-20 -80 -41.5 -129t-62.5 -79t-110 -30q-20 0 -47 4.5t-46 10.5l-1 105q44 -16 80 -16q31 0 49.5 10t31.5 34t25 70h-78l-85 396h-66v104h164l83 -402h6l97 402h120zM230 750l90 -174h-101l-120 174h131z" />
    <glyph glyph-name="endash" unicode="&#x2013;" 
d="M404 342v-84h-328v84h328z" />
    <glyph glyph-name="emdash" unicode="&#x2014;" 
d="M480 342v-84h-480v84h480z" />
    <glyph glyph-name="quoteleft" unicode="&#x2018;" 
d="M364 584q-154 -28 -154 -149q0 -19 4 -30h3q4 26 18.5 39.5t37.5 13.5q31 0 50 -16.5t19 -50.5q0 -37 -26 -57.5t-69 -20.5q-57 0 -88 38.5t-31 95.5q0 89 63.5 148t172.5 73v-84z" />
    <glyph glyph-name="quoteright" unicode="&#x2019;" 
d="M116 397q154 28 154 149q0 19 -4 30h-3q-4 -26 -18.5 -39.5t-37.5 -13.5q-31 0 -50 16.5t-19 50.5q0 37 26 57.5t69 20.5q57 0 88 -38.5t31 -95.5q0 -89 -63.5 -148t-172.5 -73v84z" />
    <glyph glyph-name="quotesinglbase" unicode="&#x201a;" 
d="M116 -134q154 28 154 149q0 19 -4 30h-3q-4 -26 -18.5 -39.5t-37.5 -13.5q-31 0 -50 16.5t-19 50.5q0 37 26 57.5t69 20.5q57 0 88 -38.5t31 -95.5q0 -89 -63.5 -148t-172.5 -73v84z" />
    <glyph glyph-name="quotedblleft" unicode="&#x201c;" 
d="M238 584q-154 -28 -154 -149q0 -19 4 -30h3q4 26 18.5 39.5t37.5 13.5q31 0 50 -16.5t19 -50.5q0 -37 -26 -57.5t-69 -20.5q-57 0 -88 38.5t-31 95.5q0 89 63.5 148t172.5 73v-84zM478 584q-154 -28 -154 -149q0 -19 4 -30h3q4 26 18.5 39.5t37.5 13.5q31 0 50 -16.5
t19 -50.5q0 -37 -26 -57.5t-69 -20.5q-57 0 -88 38.5t-31 95.5q0 89 63.5 148t172.5 73v-84z" />
    <glyph glyph-name="quotedblright" unicode="&#x201d;" 
d="M2 397q154 28 154 149q0 19 -4 30h-3q-4 -26 -18.5 -39.5t-37.5 -13.5q-31 0 -50 16.5t-19 50.5q0 37 26 57.5t69 20.5q57 0 88 -38.5t31 -95.5q0 -89 -63.5 -148t-172.5 -73v84zM242 397q154 28 154 149q0 19 -4 30h-3q-4 -26 -18.5 -39.5t-37.5 -13.5q-31 0 -50 16.5
t-19 50.5q0 37 26 57.5t69 20.5q57 0 88 -38.5t31 -95.5q0 -89 -63.5 -148t-172.5 -73v84z" />
    <glyph glyph-name="quotedblbase" unicode="&#x201e;" 
d="M2 -134q154 28 154 149q0 19 -4 30h-3q-4 -26 -18.5 -39.5t-37.5 -13.5q-31 0 -50 16.5t-19 50.5q0 37 26 57.5t69 20.5q57 0 88 -38.5t31 -95.5q0 -89 -63.5 -148t-172.5 -73v84zM242 -134q154 28 154 149q0 19 -4 30h-3q-4 -26 -18.5 -39.5t-37.5 -13.5q-31 0 -50 16.5
t-19 50.5q0 37 26 57.5t69 20.5q57 0 88 -38.5t31 -95.5q0 -89 -63.5 -148t-172.5 -73v84z" />
    <glyph glyph-name="dagger" unicode="&#x2020;" 
d="M425 368h-143v-398h-84v398h-143v84h143v208h84v-208h143v-84z" />
    <glyph glyph-name="daggerdbl" unicode="&#x2021;" 
d="M282 414v-198h143v-84h-143v-162h-84v162h-143v84h143v198h-143v84h143v162h84v-162h143v-84h-143z" />
    <glyph glyph-name="bullet" unicode="&#x2022;" 
d="M152.5 224q-32.5 29 -32.5 76q0 48 32.5 77t87.5 29t87.5 -29t32.5 -77q0 -47 -32.5 -76t-87.5 -29t-87.5 29z" />
    <glyph glyph-name="ellipsis" unicode="&#x2026;" 
d="M29.5 10.5q-19.5 18.5 -19.5 54.5q0 35 19.5 53.5t53.5 18.5t53.5 -18.5t19.5 -53.5q0 -36 -19.5 -54.5t-53.5 -18.5t-53.5 18.5zM186.5 10.5q-19.5 18.5 -19.5 54.5q0 35 19.5 53.5t53.5 18.5t53.5 -18.5t19.5 -53.5q0 -36 -19.5 -54.5t-53.5 -18.5t-53.5 18.5z
M343.5 10.5q-19.5 18.5 -19.5 54.5q0 35 19.5 53.5t53.5 18.5t53.5 -18.5t19.5 -53.5q0 -36 -19.5 -54.5t-53.5 -18.5t-53.5 18.5z" />
    <glyph glyph-name="perthousand" unicode="&#x2030;" 
d="M33.5 400.5q-33.5 42.5 -33.5 112.5t33.5 112.5t83.5 42.5t83 -43t33 -112t-33 -112t-83 -43t-83.5 42.5zM366 660h77l-358 -660h-76zM133.5 459.5q6.5 17.5 6.5 53.5t-6.5 53.5t-16.5 17.5q-23 0 -23 -71t23 -71q10 0 16.5 17.5zM338.5 247.5q-23.5 31.5 -23.5 85.5
q0 53 23.5 84.5t58.5 31.5t59 -31.5t24 -84.5q0 -54 -24 -85.5t-59 -31.5t-58.5 31.5zM415 333q0 51 -18 51q-17 0 -17 -51q0 -52 17 -52q18 0 18 52zM221.5 24q-23.5 32 -23.5 85t23.5 84.5t58.5 31.5t59 -31.5t24 -84.5t-24 -85t-59 -32t-58.5 32zM293 70q5 13 5 39
t-5 38.5t-13 12.5q-17 0 -17 -51q0 -52 17 -52q8 0 13 13z" />
    <glyph glyph-name="guilsinglleft" unicode="&#x2039;" 
d="M259 504h105l-143 -204l143 -204h-105l-143 204z" />
    <glyph glyph-name="guilsinglright" unicode="&#x203a;" 
d="M221 96h-105l143 204l-143 204h105l143 -204z" />
    <glyph glyph-name="fraction" unicode="&#x2044;" 
d="M62 -45l-71 45l426 705l71 -45z" />
    <glyph glyph-name="Euro" unicode="&#x20ac;" 
d="M251.5 127q29.5 -31 79.5 -31q27 0 59 10t54 24v-106q-16 -12 -51.5 -22t-73.5 -10q-101 0 -155 60.5t-69 174.5h-85l27 66h53q-1 12 -1 37t1 37h-80l27 66h58q15 121 71 178t158 57q43 0 75 -10.5t51 -23.5l-22 -102q-17 12 -45 22t-59 10q-50 0 -77.5 -29.5
t-36.5 -101.5h197l-13 -66h-188q-1 -12 -1 -37t1 -37h173l-14 -66h-153q10 -69 39.5 -100z" />
    <glyph glyph-name="trademark" unicode="&#x2122;" 
d="M204 612h-65v-270h-52v270h-65v48h182v-48zM445 660v-318h-52l7 260h-3l-40 -192h-42l-39 192h-3l7 -260h-52v318h72l34 -173h4l35 173h72z" />
    <glyph glyph-name="arrowleft" unicode="&#x2190;" 
d="M474 258h-308l132 -132h-118l-174 174l174 174h118l-132 -132h308v-84z" />
    <glyph glyph-name="arrowup" unicode="&#x2191;" 
d="M414 242l-132 132v-308h-84v308l-132 -132v118l174 174l174 -174v-118z" />
    <glyph glyph-name="arrowright" unicode="&#x2192;" 
d="M474 300l-174 -174h-118l132 132h-308v84h308l-132 132h118z" />
    <glyph glyph-name="arrowdown" unicode="&#x2193;" 
d="M414 358v-118l-174 -174l-174 174v118l132 -132v308h84v-308z" />
    <glyph glyph-name="arrowboth" unicode="&#x2194;" 
d="M480 300l-100 -204h-96l79 162h-246l79 -162h-96l-100 204l100 204h96l-79 -162h246l-79 162h96z" />
    <glyph glyph-name="arrowupdn" unicode="&#x2195;" 
d="M282 423v-246l162 79v-96l-204 -100l-204 100v96l162 -79v246l-162 -79v96l204 100l204 -100v-96z" />
    <glyph glyph-name="uni2196" unicode="&#x2196;" 
d="M375 105l-217 217v-186l-84 83v246h246l84 -83h-188l219 -218z" />
    <glyph glyph-name="uni2197" unicode="&#x2197;" 
d="M405 466v-246l-83 -84v188l-218 -219l-59 60l217 217h-186l83 84h246z" />
    <glyph glyph-name="uni2198" unicode="&#x2198;" 
d="M406 381v-246h-246l-84 83h188l-219 218l60 59l217 -217v186z" />
    <glyph glyph-name="uni2199" unicode="&#x2199;" 
d="M218 218h186l-83 -84h-246v246l83 84v-188l218 219l59 -60z" />
    <glyph glyph-name="partialdiff" unicode="&#x2202;" 
d="M373.5 640.5q74.5 -119.5 74.5 -320.5q0 -165 -57.5 -246.5t-150.5 -81.5q-62 0 -109 31t-73 89t-26 138q0 78 25.5 136.5t68 90t90.5 31.5q40 0 63.5 -20t40.5 -75l5 2q-14 123 -62 182t-135 59q-43 0 -68 -6v103q21 7 72 7q167 0 241.5 -119.5zM308 146.5
q24 50.5 24 133.5v20q-14 54 -34.5 79t-57.5 25q-48 0 -70 -39.5t-22 -114.5t22 -114.5t70 -39.5q44 0 68 50.5z" />
    <glyph glyph-name="emptyset" unicode="&#x2205;" 
d="M403 470q46 -73 46 -170q0 -73 -26.5 -133.5t-74.5 -95t-108 -34.5q-64 0 -113 38l-43 -61l-58 45l50 71q-46 73 -46 170q0 74 26.5 134t74.5 94.5t109 34.5q63 0 112 -38l43 61l58 -45zM130 208l174 248q-28 23 -64 23q-58 0 -92 -51.5t-34 -127.5q0 -49 16 -92z
M349 392l-174 -248q28 -23 65 -23q56 0 90.5 51.5t34.5 127.5q0 49 -16 92z" />
    <glyph glyph-name="product" unicode="&#x220f;" 
d="M459 556h-63v-616h-116v616h-80v-616h-116v616h-63v104h438v-104z" />
    <glyph glyph-name="summation" unicode="&#x2211;" 
d="M29 21l178 279l-178 278v82h423v-104h-282l163 -256l-162 -256h281v-104h-423v81z" />
    <glyph glyph-name="minus" unicode="&#x2212;" 
d="M425 342v-84h-370v84h370z" />
    <glyph glyph-name="radical" unicode="&#x221a;" 
d="M480 733h-75l-94 -821h-153l-70 349h-88v84h156l68 -345h13l94 817h149v-84z" />
    <glyph glyph-name="infinity" unicode="&#x221e;" 
d="M434.5 485.5q27.5 -58.5 27.5 -185.5t-27.5 -185.5t-83.5 -58.5q-45 0 -68 25.5t-42 86.5q-21 -59 -45.5 -85.5t-66.5 -26.5q-56 0 -83.5 59t-27.5 185t27.5 185t83.5 59q41 0 66 -26.5t45 -83.5q20 56 45.5 83t65.5 27q56 0 83.5 -58.5zM202 301l-11 39
q-16 55 -32.5 87.5t-27.5 32.5q-15 0 -22 -34.5t-7 -125.5t7 -125.5t22 -34.5q16 0 29.5 28.5t30.5 91.5zM371 174.5q7 34.5 7 125.5t-7 125.5t-22 34.5q-21 0 -57 -120l-12 -40l12 -40q35 -120 57 -120q15 0 22 34.5z" />
    <glyph glyph-name="integral" unicode="&#x222b;" 
d="M0 -115q27 -8 50 -8q33 0 56.5 26t35.5 94l114 669q16 92 60.5 136.5t107.5 44.5q26 0 56 -8v-84q-27 8 -50 8q-35 0 -58 -25.5t-35 -94.5l-113 -669q-16 -96 -61.5 -138.5t-106.5 -42.5q-26 0 -56 8v84z" />
    <glyph glyph-name="approxequal" unicode="&#x2248;" 
d="M160 482q21 0 40 -11t47 -32q25 -19 40.5 -28t32.5 -9q29 0 54.5 18.5t50.5 55.5v-97q-23 -28 -50 -44.5t-55 -16.5q-22 0 -41 11t-47 32q-23 18 -39.5 27.5t-32.5 9.5q-30 0 -54.5 -18t-50.5 -56v97q49 61 105 61zM160 282q21 0 40 -11t47 -32q25 -19 40.5 -28t32.5 -9
q29 0 54.5 18.5t50.5 55.5v-97q-23 -28 -50 -44.5t-55 -16.5q-22 0 -41 11t-47 32q-23 18 -39.5 27.5t-32.5 9.5q-29 0 -54.5 -18t-50.5 -56v97q49 61 105 61z" />
    <glyph glyph-name="notequal" unicode="&#x2260;" 
d="M290 358l-34 -116h167v-84h-191l-40 -137h-66l40 137h-113v84h137l34 116h-171v84h195l40 137h66l-40 -137h109v-84h-133z" />
    <glyph glyph-name="lessequal" unicode="&#x2264;" 
d="M408 190l-336 175v70l336 175v-95l-218 -114v-2l218 -114v-95zM408 48h-336v84h336v-84z" />
    <glyph glyph-name="greaterequal" unicode="&#x2265;" 
d="M290 399v2l-218 114v95l336 -175v-70l-336 -175v95zM408 132v-84h-336v84h336z" />
    <glyph glyph-name="lozenge" unicode="&#x25ca;" 
d="M199 660h81l158 -360l-158 -360h-81l-158 360zM239 50h1l107 250l-107 250h-1l-107 -250z" />
    <glyph glyph-name="uni00A40301" 
d="M22 320h112v-80q0 -77 24.5 -110.5t74.5 -33.5t73 40t23 144v380h116v-380q0 -110 -25.5 -173.5t-72 -89t-114.5 -25.5q-103 0 -159 57t-56 191q0 40 4 80zM420 736h-101l90 174h131z" />
    <glyph glyph-name="uni006A0301" 
d="M458 294q-46 -39 -115 -98v-210q0 -106 -41.5 -155t-116.5 -49t-118 45.5t-43 113.5q0 37 10.5 69t29.5 56q31 40 125 122l38 33v175h-133v104h249v-182q24 20 45.5 38.5t40.5 34.5l29 25v-122zM218.5 -91q8.5 23 8.5 76v111q-51 -48 -66 -71q-12 -19 -16.5 -37t-4.5 -39
q0 -30 11.5 -46.5t33.5 -16.5q25 0 33.5 23zM287 576h-101l90 174h131z" />
    <glyph glyph-name="germandbls.calt" 
d="M427.5 322.5q34.5 -46.5 34.5 -120.5q0 -101 -51.5 -155.5t-135.5 -54.5q-40 0 -70 8v102q28 -8 52 -8q41 0 65.5 26t24.5 82q0 97 -96 97q-22 0 -42 -6v72l130 192q-45 9 -70 9q-63 0 -91 -34.5t-28 -113.5v-418h-115v418q0 126 56 188t177 62q40 0 85 -8.5t80 -21.5
v-110l-99 -149v-2q59 -8 93.5 -54.5z" />
  </font>
</defs>
</svg>
